<?xml version="1.0" encoding="UTF-8" standalone="no"?>
<!DOCTYPE svg PUBLIC "-//W3C//DTD SVG 1.1//EN"
 "http://www.w3.org/Graphics/SVG/1.1/DTD/svg11.dtd">
<!-- Generated by graphviz version 12.2.1 (20241206.2353)
 -->
<!-- Title: G Pages: 1 -->
<svg width="1772pt" height="1109pt"
 viewBox="0.00 0.00 1772.00 1109.00" xmlns="http://www.w3.org/2000/svg" xmlns:xlink="http://www.w3.org/1999/xlink">
<g id="graph0" class="graph" transform="scale(1 1) rotate(0) translate(4 1105)">
<title>G</title>
<polygon fill="white" stroke="none" points="-4,4 -4,-1105 1768,-1105 1768,4 -4,4"/>
<!-- github.com/hasansino/goapp/cmd/app -->
<g id="node1" class="node">
<title>github.com/hasansino/goapp/cmd/app</title>
<g id="a_node1"><a xlink:href="https://pkg.go.dev/github.com/hasansino/goapp/cmd/app" xlink:title="github.com/hasansino/goapp/cmd/app\l607 / 19.1KB\l" target="_graphviz">
<polygon fill="none" stroke="#915007" stroke-width="2" stroke-opacity="0.698039" points="216,-506 36,-506 36,-470 216,-470 216,-506"/>
<text text-anchor="start" x="44" y="-489.75" font-family="Times,serif" font-size="10.00">github.com/hasansino/goapp/cmd/app</text>
<text text-anchor="start" x="44" y="-478.5" font-family="Times,serif" font-size="10.00">607 / 19.1KB</text>
</a>
</g>
</g>
<!-- github.com/hasansino/goapp/internal/api/grpc -->
<g id="node3" class="node">
<title>github.com/hasansino/goapp/internal/api/grpc</title>
<g id="a_node3"><a xlink:href="https://pkg.go.dev/github.com/hasansino/goapp/internal/api/grpc" xlink:title="github.com/hasansino/goapp/internal/api/grpc\l145 / 4.4KB\l" target="_graphviz">
<polygon fill="none" stroke="#729107" stroke-width="2" stroke-opacity="0.698039" points="1404,-824 1188,-824 1188,-788 1404,-788 1404,-824"/>
<text text-anchor="start" x="1196" y="-807.75" font-family="Times,serif" font-size="10.00">github.com/hasansino/goapp/internal/api/grpc</text>
<text text-anchor="start" x="1196" y="-796.5" font-family="Times,serif" font-size="10.00">145 / 4.4KB</text>
</a>
</g>
</g>
<!-- github.com/hasansino/goapp/cmd/app&#45;&gt;github.com/hasansino/goapp/internal/api/grpc -->
<g id="edge1" class="edge">
<title>github.com/hasansino/goapp/cmd/app:e&#45;&gt;github.com/hasansino/goapp/internal/api/grpc</title>
<path fill="none" stroke="#729107" stroke-width="2" stroke-opacity="0.698039" d="M217,-488C362.7,-488 237.72,-703.78 360,-783 426.61,-826.16 936.91,-816.81 1174.28,-809.98"/>
<polygon fill="#729107" fill-opacity="0.698039" stroke="#729107" stroke-width="2" stroke-opacity="0.698039" points="1174.18,-813.48 1184.08,-809.69 1173.98,-806.49 1174.18,-813.48"/>
</g>
<!-- github.com/hasansino/goapp/internal/api/http -->
<g id="node5" class="node">
<title>github.com/hasansino/goapp/internal/api/http</title>
<g id="a_node5"><a xlink:href="https://pkg.go.dev/github.com/hasansino/goapp/internal/api/http" xlink:title="github.com/hasansino/goapp/internal/api/http\l281 / 7.7KB\l" target="_graphviz">
<polygon fill="none" stroke="#076b91" stroke-width="2" stroke-opacity="0.698039" points="1008,-786 792,-786 792,-750 1008,-750 1008,-786"/>
<text text-anchor="start" x="800" y="-769.75" font-family="Times,serif" font-size="10.00">github.com/hasansino/goapp/internal/api/http</text>
<text text-anchor="start" x="800" y="-758.5" font-family="Times,serif" font-size="10.00">281 / 7.7KB</text>
</a>
</g>
</g>
<!-- github.com/hasansino/goapp/cmd/app&#45;&gt;github.com/hasansino/goapp/internal/api/http -->
<g id="edge2" class="edge">
<title>github.com/hasansino/goapp/cmd/app:e&#45;&gt;github.com/hasansino/goapp/internal/api/http</title>
<path fill="none" stroke="#076b91" stroke-width="2" stroke-opacity="0.698039" d="M217,-488C350.83,-488 246.04,-682.83 360,-753 427.45,-794.53 641.23,-787.71 778.43,-778.31"/>
<polygon fill="#076b91" fill-opacity="0.698039" stroke="#076b91" stroke-width="2" stroke-opacity="0.698039" points="778.29,-781.83 788.02,-777.64 777.8,-774.85 778.29,-781.83"/>
</g>
<!-- github.com/hasansino/goapp/internal/cache -->
<g id="node8" class="node">
<title>github.com/hasansino/goapp/internal/cache</title>
<g id="a_node8"><a xlink:href="https://pkg.go.dev/github.com/hasansino/goapp/internal/cache" xlink:title="github.com/hasansino/goapp/internal/cache\l29 / 0.8KB\l" target="_graphviz">
<polygon fill="none" stroke="#079156" stroke-width="2" stroke-opacity="0.698039" points="612,-452 396,-452 396,-416 612,-416 612,-452"/>
<text text-anchor="start" x="404" y="-435.75" font-family="Times,serif" font-size="10.00">github.com/hasansino/goapp/internal/cache</text>
<text text-anchor="start" x="404" y="-424.5" font-family="Times,serif" font-size="10.00">29 / 0.8KB</text>
</a>
</g>
</g>
<!-- github.com/hasansino/goapp/cmd/app&#45;&gt;github.com/hasansino/goapp/internal/cache -->
<g id="edge3" class="edge">
<title>github.com/hasansino/goapp/cmd/app:e&#45;&gt;github.com/hasansino/goapp/internal/cache</title>
<path fill="none" stroke="#079156" stroke-width="2" stroke-opacity="0.698039" d="M217,-488C217,-488 309.95,-470.45 389.87,-455.36"/>
<polygon fill="#079156" fill-opacity="0.698039" stroke="#079156" stroke-width="2" stroke-opacity="0.698039" points="390.42,-458.82 399.59,-453.52 389.12,-451.94 390.42,-458.82"/>
</g>
<!-- github.com/hasansino/goapp/internal/cache/memcached -->
<g id="node9" class="node">
<title>github.com/hasansino/goapp/internal/cache/memcached</title>
<g id="a_node9"><a xlink:href="https://pkg.go.dev/github.com/hasansino/goapp/internal/cache/memcached" xlink:title="github.com/hasansino/goapp/internal/cache/memcached\l58 / 1.5KB\l" target="_graphviz">
<polygon fill="none" stroke="#079111" stroke-width="2" stroke-opacity="0.698039" points="630,-398 378,-398 378,-362 630,-362 630,-398"/>
<text text-anchor="start" x="386" y="-381.75" font-family="Times,serif" font-size="10.00">github.com/hasansino/goapp/internal/cache/memcached</text>
<text text-anchor="start" x="386" y="-370.5" font-family="Times,serif" font-size="10.00">58 / 1.5KB</text>
</a>
</g>
</g>
<!-- github.com/hasansino/goapp/cmd/app&#45;&gt;github.com/hasansino/goapp/internal/cache/memcached -->
<g id="edge4" class="edge">
<title>github.com/hasansino/goapp/cmd/app:e&#45;&gt;github.com/hasansino/goapp/internal/cache/memcached</title>
<path fill="none" stroke="#079111" stroke-width="2" stroke-opacity="0.698039" d="M217,-488C290.04,-488 291.41,-432.11 360,-407 364.35,-405.41 368.81,-403.91 373.34,-402.49"/>
<polygon fill="#079111" fill-opacity="0.698039" stroke="#079111" stroke-width="2" stroke-opacity="0.698039" points="373.96,-405.95 382.57,-399.78 371.99,-399.24 373.96,-405.95"/>
</g>
<!-- github.com/hasansino/goapp/internal/cache/miniredis -->
<g id="node10" class="node">
<title>github.com/hasansino/goapp/internal/cache/miniredis</title>
<g id="a_node10"><a xlink:href="https://pkg.go.dev/github.com/hasansino/goapp/internal/cache/miniredis" xlink:title="github.com/hasansino/goapp/internal/cache/miniredis\l34 / 0.7KB\l" target="_graphviz">
<polygon fill="none" stroke="#912007" stroke-width="2" stroke-opacity="0.698039" points="630,-344 378,-344 378,-308 630,-308 630,-344"/>
<text text-anchor="start" x="386" y="-327.75" font-family="Times,serif" font-size="10.00">github.com/hasansino/goapp/internal/cache/miniredis</text>
<text text-anchor="start" x="386" y="-316.5" font-family="Times,serif" font-size="10.00">34 / 0.7KB</text>
</a>
</g>
</g>
<!-- github.com/hasansino/goapp/cmd/app&#45;&gt;github.com/hasansino/goapp/internal/cache/miniredis -->
<g id="edge5" class="edge">
<title>github.com/hasansino/goapp/cmd/app:e&#45;&gt;github.com/hasansino/goapp/internal/cache/miniredis</title>
<path fill="none" stroke="#912007" stroke-width="2" stroke-opacity="0.698039" d="M217,-488C304.4,-488 282.14,-392.71 360,-353 362.1,-351.93 364.24,-350.9 366.41,-349.91"/>
<polygon fill="#912007" fill-opacity="0.698039" stroke="#912007" stroke-width="2" stroke-opacity="0.698039" points="367.6,-353.21 375.5,-346.15 364.92,-346.74 367.6,-353.21"/>
</g>
<!-- github.com/hasansino/goapp/internal/cache/redis -->
<g id="node11" class="node">
<title>github.com/hasansino/goapp/internal/cache/redis</title>
<g id="a_node11"><a xlink:href="https://pkg.go.dev/github.com/hasansino/goapp/internal/cache/redis" xlink:title="github.com/hasansino/goapp/internal/cache/redis\l144 / 3.6KB\l" target="_graphviz">
<polygon fill="none" stroke="#550791" stroke-width="2" stroke-opacity="0.698039" points="630,-290 378,-290 378,-254 630,-254 630,-290"/>
<text text-anchor="start" x="386" y="-273.75" font-family="Times,serif" font-size="10.00">github.com/hasansino/goapp/internal/cache/redis</text>
<text text-anchor="start" x="386" y="-262.5" font-family="Times,serif" font-size="10.00">144 / 3.6KB</text>
</a>
</g>
</g>
<!-- github.com/hasansino/goapp/cmd/app&#45;&gt;github.com/hasansino/goapp/internal/cache/redis -->
<g id="edge6" class="edge">
<title>github.com/hasansino/goapp/cmd/app:e&#45;&gt;github.com/hasansino/goapp/internal/cache/redis</title>
<path fill="none" stroke="#550791" stroke-width="2" stroke-opacity="0.698039" d="M217,-488C322.33,-488 270.47,-354.49 360,-299 361.88,-297.83 363.8,-296.71 365.76,-295.64"/>
<polygon fill="#550791" fill-opacity="0.698039" stroke="#550791" stroke-width="2" stroke-opacity="0.698039" points="367.13,-298.87 374.57,-291.33 364.05,-292.58 367.13,-298.87"/>
</g>
<!-- github.com/hasansino/goapp/internal/config -->
<g id="node12" class="node">
<title>github.com/hasansino/goapp/internal/config</title>
<g id="a_node12"><a xlink:href="https://pkg.go.dev/github.com/hasansino/goapp/internal/config" xlink:title="github.com/hasansino/goapp/internal/config\l272 / 12.5KB\l" target="_graphviz">
<polygon fill="none" stroke="#760791" stroke-width="2" stroke-opacity="0.698039" points="612,-916 396,-916 396,-880 612,-880 612,-916"/>
<text text-anchor="start" x="404" y="-899.75" font-family="Times,serif" font-size="10.00">github.com/hasansino/goapp/internal/config</text>
<text text-anchor="start" x="404" y="-888.5" font-family="Times,serif" font-size="10.00">272 / 12.5KB</text>
</a>
</g>
</g>
<!-- github.com/hasansino/goapp/cmd/app&#45;&gt;github.com/hasansino/goapp/internal/config -->
<g id="edge7" class="edge">
<title>github.com/hasansino/goapp/cmd/app:e&#45;&gt;github.com/hasansino/goapp/internal/config</title>
<path fill="none" stroke="#760791" stroke-width="2" stroke-opacity="0.698039" d="M217,-488C396.62,-488 224.33,-748.29 360,-866 367,-872.07 374.91,-877.07 383.32,-881.17"/>
<polygon fill="#760791" fill-opacity="0.698039" stroke="#760791" stroke-width="2" stroke-opacity="0.698039" points="381.71,-884.29 392.28,-885.02 384.48,-877.85 381.71,-884.29"/>
</g>
<!-- github.com/hasansino/goapp/internal/database/pgsql -->
<g id="node13" class="node">
<title>github.com/hasansino/goapp/internal/database/pgsql</title>
<g id="a_node13"><a xlink:href="https://pkg.go.dev/github.com/hasansino/goapp/internal/database/pgsql" xlink:title="github.com/hasansino/goapp/internal/database/pgsql\l115 / 2.5KB\l" target="_graphviz">
<polygon fill="none" stroke="#130791" stroke-width="2" stroke-opacity="0.698039" points="630,-236 378,-236 378,-200 630,-200 630,-236"/>
<text text-anchor="start" x="386" y="-219.75" font-family="Times,serif" font-size="10.00">github.com/hasansino/goapp/internal/database/pgsql</text>
<text text-anchor="start" x="386" y="-208.5" font-family="Times,serif" font-size="10.00">115 / 2.5KB</text>
</a>
</g>
</g>
<!-- github.com/hasansino/goapp/cmd/app&#45;&gt;github.com/hasansino/goapp/internal/database/pgsql -->
<g id="edge8" class="edge">
<title>github.com/hasansino/goapp/cmd/app:e&#45;&gt;github.com/hasansino/goapp/internal/database/pgsql</title>
<path fill="none" stroke="#130791" stroke-width="2" stroke-opacity="0.698039" d="M217,-488C342.31,-488 257.49,-317.07 360,-245 361.93,-243.64 363.91,-242.35 365.94,-241.11"/>
<polygon fill="#130791" fill-opacity="0.698039" stroke="#130791" stroke-width="2" stroke-opacity="0.698039" points="367.33,-244.34 374.47,-236.51 364.01,-238.18 367.33,-244.34"/>
</g>
<!-- github.com/hasansino/goapp/internal/database/pgsql/migrate -->
<g id="node14" class="node">
<title>github.com/hasansino/goapp/internal/database/pgsql/migrate</title>
<g id="a_node14"><a xlink:href="https://pkg.go.dev/github.com/hasansino/goapp/internal/database/pgsql/migrate" xlink:title="github.com/hasansino/goapp/internal/database/pgsql/migrate\l28 / 561B\l" target="_graphviz">
<polygon fill="none" stroke="#07916d" stroke-width="2" stroke-opacity="0.698039" points="648,-182 360,-182 360,-146 648,-146 648,-182"/>
<text text-anchor="start" x="368" y="-165.75" font-family="Times,serif" font-size="10.00">github.com/hasansino/goapp/internal/database/pgsql/migrate</text>
<text text-anchor="start" x="368" y="-154.5" font-family="Times,serif" font-size="10.00">28 / 561B</text>
</a>
</g>
</g>
<!-- github.com/hasansino/goapp/cmd/app&#45;&gt;github.com/hasansino/goapp/internal/database/pgsql/migrate -->
<g id="edge9" class="edge">
<title>github.com/hasansino/goapp/cmd/app:e&#45;&gt;github.com/hasansino/goapp/internal/database/pgsql/migrate</title>
<path fill="none" stroke="#07916d" stroke-width="2" stroke-opacity="0.698039" d="M217,-488C363.5,-488 243.76,-280.17 360,-191 360.49,-190.63 360.98,-190.26 361.48,-189.89"/>
<polygon fill="#07916d" fill-opacity="0.698039" stroke="#07916d" stroke-width="2" stroke-opacity="0.698039" points="363.31,-192.87 369.83,-184.51 359.52,-186.98 363.31,-192.87"/>
</g>
<!-- github.com/hasansino/goapp/internal/database/sqlite -->
<g id="node15" class="node">
<title>github.com/hasansino/goapp/internal/database/sqlite</title>
<g id="a_node15"><a xlink:href="https://pkg.go.dev/github.com/hasansino/goapp/internal/database/sqlite" xlink:title="github.com/hasansino/goapp/internal/database/sqlite\l112 / 2.6KB\l" target="_graphviz">
<polygon fill="none" stroke="#071591" stroke-width="2" stroke-opacity="0.698039" points="1026,-113 774,-113 774,-77 1026,-77 1026,-113"/>
<text text-anchor="start" x="782" y="-96.75" font-family="Times,serif" font-size="10.00">github.com/hasansino/goapp/internal/database/sqlite</text>
<text text-anchor="start" x="782" y="-85.5" font-family="Times,serif" font-size="10.00">112 / 2.6KB</text>
</a>
</g>
</g>
<!-- github.com/hasansino/goapp/cmd/app&#45;&gt;github.com/hasansino/goapp/internal/database/sqlite -->
<g id="edge10" class="edge">
<title>github.com/hasansino/goapp/cmd/app:e&#45;&gt;github.com/hasansino/goapp/internal/database/sqlite</title>
<path fill="none" stroke="#071591" stroke-width="2" stroke-opacity="0.698039" d="M217,-488C385.45,-488 223.97,-236.36 360,-137 391.65,-113.89 611.4,-103.05 760.35,-98.32"/>
<polygon fill="#071591" fill-opacity="0.698039" stroke="#071591" stroke-width="2" stroke-opacity="0.698039" points="760.28,-101.82 770.16,-98.01 760.06,-94.83 760.28,-101.82"/>
</g>
<!-- github.com/hasansino/goapp/internal/database/sqlite/migrate -->
<g id="node16" class="node">
<title>github.com/hasansino/goapp/internal/database/sqlite/migrate</title>
<g id="a_node16"><a xlink:href="https://pkg.go.dev/github.com/hasansino/goapp/internal/database/sqlite/migrate" xlink:title="github.com/hasansino/goapp/internal/database/sqlite/migrate\l29 / 0.7KB\l" target="_graphviz">
<polygon fill="none" stroke="#072391" stroke-width="2" stroke-opacity="0.698039" points="648,-90 360,-90 360,-54 648,-54 648,-90"/>
<text text-anchor="start" x="368" y="-73.75" font-family="Times,serif" font-size="10.00">github.com/hasansino/goapp/internal/database/sqlite/migrate</text>
<text text-anchor="start" x="368" y="-62.5" font-family="Times,serif" font-size="10.00">29 / 0.7KB</text>
</a>
</g>
</g>
<!-- github.com/hasansino/goapp/cmd/app&#45;&gt;github.com/hasansino/goapp/internal/database/sqlite/migrate -->
<g id="edge11" class="edge">
<title>github.com/hasansino/goapp/cmd/app:e&#45;&gt;github.com/hasansino/goapp/internal/database/sqlite/migrate</title>
<path fill="none" stroke="#072391" stroke-width="2" stroke-opacity="0.698039" d="M217,-488C399.12,-488 222.75,-223.71 360,-104 362.65,-101.69 365.43,-99.53 368.32,-97.53"/>
<polygon fill="#072391" fill-opacity="0.698039" stroke="#072391" stroke-width="2" stroke-opacity="0.698039" points="369.92,-100.65 376.63,-92.45 366.27,-94.67 369.92,-100.65"/>
</g>
<!-- github.com/hasansino/goapp/internal/events -->
<g id="node17" class="node">
<title>github.com/hasansino/goapp/internal/events</title>
<g id="a_node17"><a xlink:href="https://pkg.go.dev/github.com/hasansino/goapp/internal/events" xlink:title="github.com/hasansino/goapp/internal/events\l28 / 0.8KB\l" target="_graphviz">
<polygon fill="none" stroke="#889107" stroke-width="2" stroke-opacity="0.698039" points="612,-36 396,-36 396,0 612,0 612,-36"/>
<text text-anchor="start" x="404" y="-19.75" font-family="Times,serif" font-size="10.00">github.com/hasansino/goapp/internal/events</text>
<text text-anchor="start" x="404" y="-8.5" font-family="Times,serif" font-size="10.00">28 / 0.8KB</text>
</a>
</g>
</g>
<!-- github.com/hasansino/goapp/cmd/app&#45;&gt;github.com/hasansino/goapp/internal/events -->
<g id="edge12" class="edge">
<title>github.com/hasansino/goapp/cmd/app:e&#45;&gt;github.com/hasansino/goapp/internal/events</title>
<path fill="none" stroke="#889107" stroke-width="2" stroke-opacity="0.698039" d="M217,-488C423.89,-488 204.81,-181.82 360,-45 366.97,-38.85 374.89,-33.92 383.34,-29.97"/>
<polygon fill="#889107" fill-opacity="0.698039" stroke="#889107" stroke-width="2" stroke-opacity="0.698039" points="384.4,-33.32 392.35,-26.31 381.77,-26.83 384.4,-33.32"/>
</g>
<!-- github.com/hasansino/goapp/internal/events/gochan -->
<g id="node18" class="node">
<title>github.com/hasansino/goapp/internal/events/gochan</title>
<g id="a_node18"><a xlink:href="https://pkg.go.dev/github.com/hasansino/goapp/internal/events/gochan" xlink:title="github.com/hasansino/goapp/internal/events/gochan\l47 / 1.0KB\l" target="_graphviz">
<polygon fill="none" stroke="#918e07" stroke-width="2" stroke-opacity="0.698039" points="630,-560 378,-560 378,-524 630,-524 630,-560"/>
<text text-anchor="start" x="386" y="-543.75" font-family="Times,serif" font-size="10.00">github.com/hasansino/goapp/internal/events/gochan</text>
<text text-anchor="start" x="386" y="-532.5" font-family="Times,serif" font-size="10.00">47 / 1.0KB</text>
</a>
</g>
</g>
<!-- github.com/hasansino/goapp/cmd/app&#45;&gt;github.com/hasansino/goapp/internal/events/gochan -->
<g id="edge13" class="edge">
<title>github.com/hasansino/goapp/cmd/app:e&#45;&gt;github.com/hasansino/goapp/internal/events/gochan</title>
<path fill="none" stroke="#918e07" stroke-width="2" stroke-opacity="0.698039" d="M217,-488C217,-488 309.95,-505.55 389.87,-520.64"/>
<polygon fill="#918e07" fill-opacity="0.698039" stroke="#918e07" stroke-width="2" stroke-opacity="0.698039" points="389.12,-524.06 399.59,-522.48 390.42,-517.18 389.12,-524.06"/>
</g>
<!-- github.com/hasansino/goapp/internal/example -->
<g id="node19" class="node">
<title>github.com/hasansino/goapp/internal/example</title>
<g id="a_node19"><a xlink:href="https://pkg.go.dev/github.com/hasansino/goapp/internal/example" xlink:title="github.com/hasansino/goapp/internal/example\l183 / 5.3KB\l" target="_graphviz">
<polygon fill="none" stroke="#91072a" stroke-width="2" stroke-opacity="0.698039" points="1008,-694 792,-694 792,-658 1008,-658 1008,-694"/>
<text text-anchor="start" x="800" y="-677.75" font-family="Times,serif" font-size="10.00">github.com/hasansino/goapp/internal/example</text>
<text text-anchor="start" x="800" y="-666.5" font-family="Times,serif" font-size="10.00">183 / 5.3KB</text>
</a>
</g>
</g>
<!-- github.com/hasansino/goapp/cmd/app&#45;&gt;github.com/hasansino/goapp/internal/example -->
<g id="edge14" class="edge">
<title>github.com/hasansino/goapp/cmd/app:e&#45;&gt;github.com/hasansino/goapp/internal/example</title>
<path fill="none" stroke="#91072a" stroke-width="2" stroke-opacity="0.698039" d="M217,-488C316.76,-488 270.35,-617.26 360,-661 430.91,-695.6 642.12,-691.14 778.13,-684.05"/>
<polygon fill="#91072a" fill-opacity="0.698039" stroke="#91072a" stroke-width="2" stroke-opacity="0.698039" points="778.23,-687.55 788.03,-683.52 777.86,-680.56 778.23,-687.55"/>
</g>
<!-- github.com/hasansino/goapp/internal/example/provider/grpc -->
<g id="node23" class="node">
<title>github.com/hasansino/goapp/internal/example/provider/grpc</title>
<g id="a_node23"><a xlink:href="https://pkg.go.dev/github.com/hasansino/goapp/internal/example/provider/grpc" xlink:title="github.com/hasansino/goapp/internal/example/provider/grpc\l835 / 30.1KB\l" target="_graphviz">
<polygon fill="none" stroke="#300791" stroke-width="2" stroke-opacity="0.698039" points="648,-652 360,-652 360,-616 648,-616 648,-652"/>
<text text-anchor="start" x="368" y="-635.75" font-family="Times,serif" font-size="10.00">github.com/hasansino/goapp/internal/example/provider/grpc</text>
<text text-anchor="start" x="368" y="-624.5" font-family="Times,serif" font-size="10.00">835 / 30.1KB</text>
</a>
</g>
</g>
<!-- github.com/hasansino/goapp/cmd/app&#45;&gt;github.com/hasansino/goapp/internal/example/provider/grpc -->
<g id="edge15" class="edge">
<title>github.com/hasansino/goapp/cmd/app:e&#45;&gt;github.com/hasansino/goapp/internal/example/provider/grpc</title>
<path fill="none" stroke="#300791" stroke-width="2" stroke-opacity="0.698039" d="M217,-488C298.28,-488 286.69,-566.9 360,-602 366.92,-605.31 374.19,-608.29 381.64,-610.96"/>
<polygon fill="#300791" fill-opacity="0.698039" stroke="#300791" stroke-width="2" stroke-opacity="0.698039" points="380.41,-614.24 391.01,-614.09 382.63,-607.6 380.41,-614.24"/>
</g>
<!-- github.com/hasansino/goapp/internal/example/provider/http -->
<g id="node24" class="node">
<title>github.com/hasansino/goapp/internal/example/provider/http</title>
<g id="a_node24"><a xlink:href="https://pkg.go.dev/github.com/hasansino/goapp/internal/example/provider/http" xlink:title="github.com/hasansino/goapp/internal/example/provider/http\l125 / 3.8KB\l" target="_graphviz">
<polygon fill="none" stroke="#915907" stroke-width="2" stroke-opacity="0.698039" points="648,-744 360,-744 360,-708 648,-708 648,-744"/>
<text text-anchor="start" x="368" y="-727.75" font-family="Times,serif" font-size="10.00">github.com/hasansino/goapp/internal/example/provider/http</text>
<text text-anchor="start" x="368" y="-716.5" font-family="Times,serif" font-size="10.00">125 / 3.8KB</text>
</a>
</g>
</g>
<!-- github.com/hasansino/goapp/cmd/app&#45;&gt;github.com/hasansino/goapp/internal/example/provider/http -->
<g id="edge16" class="edge">
<title>github.com/hasansino/goapp/cmd/app:e&#45;&gt;github.com/hasansino/goapp/internal/example/provider/http</title>
<path fill="none" stroke="#915907" stroke-width="2" stroke-opacity="0.698039" d="M217,-488C328.45,-488 267.52,-631.8 360,-694 364.16,-696.8 368.52,-699.35 373.03,-701.68"/>
<polygon fill="#915907" fill-opacity="0.698039" stroke="#915907" stroke-width="2" stroke-opacity="0.698039" points="371.24,-704.71 381.78,-705.77 374.2,-698.37 371.24,-704.71"/>
</g>
<!-- github.com/hasansino/goapp/internal/example/repository/gorm -->
<g id="node25" class="node">
<title>github.com/hasansino/goapp/internal/example/repository/gorm</title>
<g id="a_node25"><a xlink:href="https://pkg.go.dev/github.com/hasansino/goapp/internal/example/repository/gorm" xlink:title="github.com/hasansino/goapp/internal/example/repository/gorm\l114 / 3.4KB\l" target="_graphviz">
<polygon fill="none" stroke="#078c91" stroke-width="2" stroke-opacity="0.698039" points="1044,-602 756,-602 756,-566 1044,-566 1044,-602"/>
<text text-anchor="start" x="764" y="-585.75" font-family="Times,serif" font-size="10.00">github.com/hasansino/goapp/internal/example/repository/gorm</text>
<text text-anchor="start" x="764" y="-574.5" font-family="Times,serif" font-size="10.00">114 / 3.4KB</text>
</a>
</g>
</g>
<!-- github.com/hasansino/goapp/cmd/app&#45;&gt;github.com/hasansino/goapp/internal/example/repository/gorm -->
<g id="edge17" class="edge">
<title>github.com/hasansino/goapp/cmd/app:e&#45;&gt;github.com/hasansino/goapp/internal/example/repository/gorm</title>
<path fill="none" stroke="#078c91" stroke-width="2" stroke-opacity="0.698039" d="M217,-488C290.04,-488 289.63,-549.4 360,-569 485.24,-603.88 633.22,-605.33 742.41,-599.35"/>
<polygon fill="#078c91" fill-opacity="0.698039" stroke="#078c91" stroke-width="2" stroke-opacity="0.698039" points="742.39,-602.86 752.17,-598.79 741.99,-595.87 742.39,-602.86"/>
</g>
<!-- github.com/hasansino/goapp/internal/metrics -->
<g id="node26" class="node">
<title>github.com/hasansino/goapp/internal/metrics</title>
<g id="a_node26"><a xlink:href="https://pkg.go.dev/github.com/hasansino/goapp/internal/metrics" xlink:title="github.com/hasansino/goapp/internal/metrics\l93 / 2.5KB\l" target="_graphviz">
<polygon fill="none" stroke="#916207" stroke-width="2" stroke-opacity="0.698039" points="1764,-824 1548,-824 1548,-788 1764,-788 1764,-824"/>
<text text-anchor="start" x="1556" y="-807.75" font-family="Times,serif" font-size="10.00">github.com/hasansino/goapp/internal/metrics</text>
<text text-anchor="start" x="1556" y="-796.5" font-family="Times,serif" font-size="10.00">93 / 2.5KB</text>
</a>
</g>
</g>
<!-- github.com/hasansino/goapp/cmd/app&#45;&gt;github.com/hasansino/goapp/internal/metrics -->
<g id="edge18" class="edge">
<title>github.com/hasansino/goapp/cmd/app:e&#45;&gt;github.com/hasansino/goapp/internal/metrics</title>
<path fill="none" stroke="#916207" stroke-width="2" stroke-opacity="0.698039" d="M217,-488C374.4,-488 230,-723.25 360,-812 459.12,-879.67 1320.21,-840.49 1440,-833 1470.77,-831.08 1503.88,-827.62 1534.67,-823.8"/>
<polygon fill="#916207" fill-opacity="0.698039" stroke="#916207" stroke-width="2" stroke-opacity="0.698039" points="1534.77,-827.32 1544.25,-822.59 1533.89,-820.37 1534.77,-827.32"/>
</g>
<!-- github.com/hasansino/goapp/internal/metrics/providers/http -->
<g id="node27" class="node">
<title>github.com/hasansino/goapp/internal/metrics/providers/http</title>
<g id="a_node27"><a xlink:href="https://pkg.go.dev/github.com/hasansino/goapp/internal/metrics/providers/http" xlink:title="github.com/hasansino/goapp/internal/metrics/providers/http\l17 / 406B\l" target="_graphviz">
<polygon fill="none" stroke="#2a0791" stroke-width="2" stroke-opacity="0.698039" points="648,-506 360,-506 360,-470 648,-470 648,-506"/>
<text text-anchor="start" x="368" y="-489.75" font-family="Times,serif" font-size="10.00">github.com/hasansino/goapp/internal/metrics/providers/http</text>
<text text-anchor="start" x="368" y="-478.5" font-family="Times,serif" font-size="10.00">17 / 406B</text>
</a>
</g>
</g>
<!-- github.com/hasansino/goapp/cmd/app&#45;&gt;github.com/hasansino/goapp/internal/metrics/providers/http -->
<g id="edge19" class="edge">
<title>github.com/hasansino/goapp/cmd/app:e&#45;&gt;github.com/hasansino/goapp/internal/metrics/providers/http</title>
<path fill="none" stroke="#2a0791" stroke-width="2" stroke-opacity="0.698039" d="M217,-488C258.96,-488 304.38,-488 346.41,-488"/>
<polygon fill="#2a0791" fill-opacity="0.698039" stroke="#2a0791" stroke-width="2" stroke-opacity="0.698039" points="346.31,-491.5 356.31,-488 346.31,-484.5 346.31,-491.5"/>
</g>
<!-- github.com/hasansino/goapp/cmd/cfg2env -->
<g id="node2" class="node">
<title>github.com/hasansino/goapp/cmd/cfg2env</title>
<g id="a_node2"><a xlink:href="https://pkg.go.dev/github.com/hasansino/goapp/cmd/cfg2env" xlink:title="github.com/hasansino/goapp/cmd/cfg2env\l24 / 622B\l" target="_graphviz">
<polygon fill="none" stroke="#6e9107" stroke-width="2" stroke-opacity="0.698039" points="234,-939 18,-939 18,-903 234,-903 234,-939"/>
<text text-anchor="start" x="26" y="-922.75" font-family="Times,serif" font-size="10.00">github.com/hasansino/goapp/cmd/cfg2env</text>
<text text-anchor="start" x="26" y="-911.5" font-family="Times,serif" font-size="10.00">24 / 622B</text>
</a>
</g>
</g>
<!-- github.com/hasansino/goapp/cmd/cfg2env&#45;&gt;github.com/hasansino/goapp/internal/config -->
<g id="edge20" class="edge">
<title>github.com/hasansino/goapp/cmd/cfg2env:e&#45;&gt;github.com/hasansino/goapp/internal/config</title>
<path fill="none" stroke="#760791" stroke-width="2" stroke-opacity="0.698039" d="M235,-921C283.34,-921 336.41,-917.24 382.48,-912.76"/>
<polygon fill="#760791" fill-opacity="0.698039" stroke="#760791" stroke-width="2" stroke-opacity="0.698039" points="382.66,-916.26 392.26,-911.78 381.96,-909.29 382.66,-916.26"/>
</g>
<!-- github.com/hasansino/goapp/internal/tools -->
<g id="node28" class="node">
<title>github.com/hasansino/goapp/internal/tools</title>
<g id="a_node28"><a xlink:href="https://pkg.go.dev/github.com/hasansino/goapp/internal/tools" xlink:title="github.com/hasansino/goapp/internal/tools\l73 / 1.8KB\l" target="_graphviz">
<polygon fill="none" stroke="#079168" stroke-width="2" stroke-opacity="0.698039" points="1008,-916 792,-916 792,-880 1008,-880 1008,-916"/>
<text text-anchor="start" x="800" y="-899.75" font-family="Times,serif" font-size="10.00">github.com/hasansino/goapp/internal/tools</text>
<text text-anchor="start" x="800" y="-888.5" font-family="Times,serif" font-size="10.00">73 / 1.8KB</text>
</a>
</g>
</g>
<!-- github.com/hasansino/goapp/cmd/cfg2env&#45;&gt;github.com/hasansino/goapp/internal/tools -->
<g id="edge21" class="edge">
<title>github.com/hasansino/goapp/cmd/cfg2env:e&#45;&gt;github.com/hasansino/goapp/internal/tools</title>
<path fill="none" stroke="#079168" stroke-width="2" stroke-opacity="0.698039" d="M235,-921C290.58,-921 304.42,-924.11 360,-925 487.98,-927.05 520.18,-931.85 648,-925 690.54,-922.72 736.97,-918.28 778.2,-913.64"/>
<polygon fill="#079168" fill-opacity="0.698039" stroke="#079168" stroke-width="2" stroke-opacity="0.698039" points="778.56,-917.13 788.09,-912.51 777.76,-910.17 778.56,-917.13"/>
</g>
<!-- github.com/hasansino/goapp/internal/api/grpc&#45;&gt;github.com/hasansino/goapp/internal/metrics -->
<g id="edge22" class="edge">
<title>github.com/hasansino/goapp/internal/api/grpc:e&#45;&gt;github.com/hasansino/goapp/internal/metrics</title>
<path fill="none" stroke="#916207" stroke-width="2" stroke-opacity="0.698039" d="M1405,-806C1447.09,-806 1493.18,-806 1534.18,-806"/>
<polygon fill="#916207" fill-opacity="0.698039" stroke="#916207" stroke-width="2" stroke-opacity="0.698039" points="1533.99,-809.5 1543.99,-806 1533.99,-802.5 1533.99,-809.5"/>
</g>
<!-- github.com/hasansino/goapp/internal/api/grpc/mocks -->
<g id="node4" class="node">
<title>github.com/hasansino/goapp/internal/api/grpc/mocks</title>
<g id="a_node4"><a xlink:href="https://pkg.go.dev/github.com/hasansino/goapp/internal/api/grpc/mocks" xlink:title="github.com/hasansino/goapp/internal/api/grpc/mocks\l44 / 1.5KB\l" target="_graphviz">
<polygon fill="none" stroke="#320791" stroke-width="2" stroke-opacity="0.698039" points="252,-993 0,-993 0,-957 252,-957 252,-993"/>
<text text-anchor="start" x="8" y="-976.75" font-family="Times,serif" font-size="10.00">github.com/hasansino/goapp/internal/api/grpc/mocks</text>
<text text-anchor="start" x="8" y="-965.5" font-family="Times,serif" font-size="10.00">44 / 1.5KB</text>
</a>
</g>
</g>
<!-- github.com/hasansino/goapp/internal/api/http/middleware -->
<g id="node6" class="node">
<title>github.com/hasansino/goapp/internal/api/http/middleware</title>
<g id="a_node6"><a xlink:href="https://pkg.go.dev/github.com/hasansino/goapp/internal/api/http/middleware" xlink:title="github.com/hasansino/goapp/internal/api/http/middleware\l68 / 1.9KB\l" target="_graphviz">
<polygon fill="none" stroke="#910757" stroke-width="2" stroke-opacity="0.698039" points="1440,-770 1152,-770 1152,-734 1440,-734 1440,-770"/>
<text text-anchor="start" x="1160" y="-753.75" font-family="Times,serif" font-size="10.00">github.com/hasansino/goapp/internal/api/http/middleware</text>
<text text-anchor="start" x="1160" y="-742.5" font-family="Times,serif" font-size="10.00">68 / 1.9KB</text>
</a>
</g>
</g>
<!-- github.com/hasansino/goapp/internal/api/http&#45;&gt;github.com/hasansino/goapp/internal/api/http/middleware -->
<g id="edge23" class="edge">
<title>github.com/hasansino/goapp/internal/api/http:e&#45;&gt;github.com/hasansino/goapp/internal/api/http/middleware</title>
<path fill="none" stroke="#910757" stroke-width="2" stroke-opacity="0.698039" d="M1009,-768C1050.91,-768 1096.23,-766.27 1138.16,-763.94"/>
<polygon fill="#910757" fill-opacity="0.698039" stroke="#910757" stroke-width="2" stroke-opacity="0.698039" points="1138.25,-767.44 1148.04,-763.37 1137.85,-760.45 1138.25,-767.44"/>
</g>
<!-- github.com/hasansino/goapp/internal/api/http/middleware&#45;&gt;github.com/hasansino/goapp/internal/metrics -->
<g id="edge24" class="edge">
<title>github.com/hasansino/goapp/internal/api/http/middleware:e&#45;&gt;github.com/hasansino/goapp/internal/metrics</title>
<path fill="none" stroke="#916207" stroke-width="2" stroke-opacity="0.698039" d="M1440,-752C1493.94,-752 1553.27,-768.19 1595.91,-782.84"/>
<polygon fill="#916207" fill-opacity="0.698039" stroke="#916207" stroke-width="2" stroke-opacity="0.698039" points="1594.58,-786.08 1605.18,-786.11 1596.91,-779.48 1594.58,-786.08"/>
</g>
<!-- github.com/hasansino/goapp/internal/api/http/mocks -->
<g id="node7" class="node">
<title>github.com/hasansino/goapp/internal/api/http/mocks</title>
<g id="a_node7"><a xlink:href="https://pkg.go.dev/github.com/hasansino/goapp/internal/api/http/mocks" xlink:title="github.com/hasansino/goapp/internal/api/http/mocks\l44 / 1.5KB\l" target="_graphviz">
<polygon fill="none" stroke="#359107" stroke-width="2" stroke-opacity="0.698039" points="252,-1047 0,-1047 0,-1011 252,-1011 252,-1047"/>
<text text-anchor="start" x="8" y="-1030.75" font-family="Times,serif" font-size="10.00">github.com/hasansino/goapp/internal/api/http/mocks</text>
<text text-anchor="start" x="8" y="-1019.5" font-family="Times,serif" font-size="10.00">44 / 1.5KB</text>
</a>
</g>
</g>
<!-- github.com/hasansino/goapp/internal/config&#45;&gt;github.com/hasansino/goapp/internal/tools -->
<g id="edge25" class="edge">
<title>github.com/hasansino/goapp/internal/config:e&#45;&gt;github.com/hasansino/goapp/internal/tools</title>
<path fill="none" stroke="#079168" stroke-width="2" stroke-opacity="0.698039" d="M613,-898C667.24,-898 727.27,-898 778.27,-898"/>
<polygon fill="#079168" fill-opacity="0.698039" stroke="#079168" stroke-width="2" stroke-opacity="0.698039" points="778,-901.5 788,-898 778,-894.5 778,-901.5"/>
</g>
<!-- github.com/hasansino/goapp/internal/database/sqlite/migrate&#45;&gt;github.com/hasansino/goapp/internal/database/sqlite -->
<g id="edge26" class="edge">
<title>github.com/hasansino/goapp/internal/database/sqlite/migrate:e&#45;&gt;github.com/hasansino/goapp/internal/database/sqlite</title>
<path fill="none" stroke="#071591" stroke-width="2" stroke-opacity="0.698039" d="M648,-72C684.5,-72 723.86,-74.44 760.35,-77.73"/>
<polygon fill="#071591" fill-opacity="0.698039" stroke="#071591" stroke-width="2" stroke-opacity="0.698039" points="759.83,-81.2 770.11,-78.65 760.48,-74.23 759.83,-81.2"/>
</g>
<!-- github.com/hasansino/goapp/internal/example/domain -->
<g id="node20" class="node">
<title>github.com/hasansino/goapp/internal/example/domain</title>
<g id="a_node20"><a xlink:href="https://pkg.go.dev/github.com/hasansino/goapp/internal/example/domain" xlink:title="github.com/hasansino/goapp/internal/example/domain\l32 / 0.7KB\l" target="_graphviz">
<polygon fill="none" stroke="#91074b" stroke-width="2" stroke-opacity="0.698039" points="1422,-675 1170,-675 1170,-639 1422,-639 1422,-675"/>
<text text-anchor="start" x="1178" y="-658.75" font-family="Times,serif" font-size="10.00">github.com/hasansino/goapp/internal/example/domain</text>
<text text-anchor="start" x="1178" y="-647.5" font-family="Times,serif" font-size="10.00">32 / 0.7KB</text>
</a>
</g>
</g>
<!-- github.com/hasansino/goapp/internal/example&#45;&gt;github.com/hasansino/goapp/internal/example/domain -->
<g id="edge27" class="edge">
<title>github.com/hasansino/goapp/internal/example:e&#45;&gt;github.com/hasansino/goapp/internal/example/domain</title>
<path fill="none" stroke="#91074b" stroke-width="2" stroke-opacity="0.698039" d="M1009,-676C1057.09,-676 1109.63,-673.29 1156.4,-669.92"/>
<polygon fill="#91074b" fill-opacity="0.698039" stroke="#91074b" stroke-width="2" stroke-opacity="0.698039" points="1156.38,-673.43 1166.1,-669.2 1155.87,-666.45 1156.38,-673.43"/>
</g>
<!-- github.com/hasansino/goapp/internal/example/models -->
<g id="node22" class="node">
<title>github.com/hasansino/goapp/internal/example/models</title>
<g id="a_node22"><a xlink:href="https://pkg.go.dev/github.com/hasansino/goapp/internal/example/models" xlink:title="github.com/hasansino/goapp/internal/example/models\l15 / 365B\l" target="_graphviz">
<polygon fill="none" stroke="#072891" stroke-width="2" stroke-opacity="0.698039" points="1422,-602 1170,-602 1170,-566 1422,-566 1422,-602"/>
<text text-anchor="start" x="1178" y="-585.75" font-family="Times,serif" font-size="10.00">github.com/hasansino/goapp/internal/example/models</text>
<text text-anchor="start" x="1178" y="-574.5" font-family="Times,serif" font-size="10.00">15 / 365B</text>
</a>
</g>
</g>
<!-- github.com/hasansino/goapp/internal/example&#45;&gt;github.com/hasansino/goapp/internal/example/models -->
<g id="edge28" class="edge">
<title>github.com/hasansino/goapp/internal/example:e&#45;&gt;github.com/hasansino/goapp/internal/example/models</title>
<path fill="none" stroke="#072891" stroke-width="2" stroke-opacity="0.698039" d="M1009,-676C1009,-676 1139.24,-634.1 1223.94,-606.86"/>
<polygon fill="#072891" fill-opacity="0.698039" stroke="#072891" stroke-width="2" stroke-opacity="0.698039" points="1224.76,-610.27 1233.21,-603.88 1222.61,-603.61 1224.76,-610.27"/>
</g>
<!-- github.com/hasansino/goapp/internal/example/mocks -->
<g id="node21" class="node">
<title>github.com/hasansino/goapp/internal/example/mocks</title>
<g id="a_node21"><a xlink:href="https://pkg.go.dev/github.com/hasansino/goapp/internal/example/mocks" xlink:title="github.com/hasansino/goapp/internal/example/mocks\l236 / 8.7KB\l" target="_graphviz">
<polygon fill="none" stroke="#072391" stroke-width="2" stroke-opacity="0.698039" points="1026,-548 774,-548 774,-512 1026,-512 1026,-548"/>
<text text-anchor="start" x="782" y="-531.75" font-family="Times,serif" font-size="10.00">github.com/hasansino/goapp/internal/example/mocks</text>
<text text-anchor="start" x="782" y="-520.5" font-family="Times,serif" font-size="10.00">236 / 8.7KB</text>
</a>
</g>
</g>
<!-- github.com/hasansino/goapp/internal/example/mocks&#45;&gt;github.com/hasansino/goapp/internal/example/models -->
<g id="edge29" class="edge">
<title>github.com/hasansino/goapp/internal/example/mocks:e&#45;&gt;github.com/hasansino/goapp/internal/example/models</title>
<path fill="none" stroke="#072891" stroke-width="2" stroke-opacity="0.698039" d="M1027,-530C1094.56,-530 1169.84,-546.69 1223.37,-561.52"/>
<polygon fill="#072891" fill-opacity="0.698039" stroke="#072891" stroke-width="2" stroke-opacity="0.698039" points="1222.33,-564.86 1232.9,-564.21 1224.23,-558.12 1222.33,-564.86"/>
</g>
<!-- github.com/hasansino/goapp/internal/example/provider/grpc&#45;&gt;github.com/hasansino/goapp/internal/example -->
<g id="edge30" class="edge">
<title>github.com/hasansino/goapp/internal/example/provider/grpc:e&#45;&gt;github.com/hasansino/goapp/internal/example</title>
<path fill="none" stroke="#91072a" stroke-width="2" stroke-opacity="0.698039" d="M648,-634C675.92,-634 737.47,-644.24 792.62,-654.61"/>
<polygon fill="#91072a" fill-opacity="0.698039" stroke="#91072a" stroke-width="2" stroke-opacity="0.698039" points="791.92,-658.04 802.4,-656.46 793.23,-651.16 791.92,-658.04"/>
</g>
<!-- github.com/hasansino/goapp/internal/example/provider/grpc&#45;&gt;github.com/hasansino/goapp/internal/example/domain -->
<g id="edge31" class="edge">
<title>github.com/hasansino/goapp/internal/example/provider/grpc:e&#45;&gt;github.com/hasansino/goapp/internal/example/domain</title>
<path fill="none" stroke="#91074b" stroke-width="2" stroke-opacity="0.698039" d="M648,-634C823.4,-634 1025.38,-642.55 1156.35,-649.22"/>
<polygon fill="#91074b" fill-opacity="0.698039" stroke="#91074b" stroke-width="2" stroke-opacity="0.698039" points="1156.01,-652.71 1166.18,-649.72 1156.37,-645.72 1156.01,-652.71"/>
</g>
<!-- github.com/hasansino/goapp/internal/example/provider/http&#45;&gt;github.com/hasansino/goapp/internal/api/http -->
<g id="edge32" class="edge">
<title>github.com/hasansino/goapp/internal/example/provider/http:e&#45;&gt;github.com/hasansino/goapp/internal/api/http</title>
<path fill="none" stroke="#076b91" stroke-width="2" stroke-opacity="0.698039" d="M648,-726C675.92,-726 737.47,-736.24 792.62,-746.61"/>
<polygon fill="#076b91" fill-opacity="0.698039" stroke="#076b91" stroke-width="2" stroke-opacity="0.698039" points="791.92,-750.04 802.4,-748.46 793.23,-743.16 791.92,-750.04"/>
</g>
<!-- github.com/hasansino/goapp/internal/example/provider/http&#45;&gt;github.com/hasansino/goapp/internal/example -->
<g id="edge33" class="edge">
<title>github.com/hasansino/goapp/internal/example/provider/http:e&#45;&gt;github.com/hasansino/goapp/internal/example</title>
<path fill="none" stroke="#91072a" stroke-width="2" stroke-opacity="0.698039" d="M648,-726C663.49,-726 736.59,-711.16 799.93,-697.65"/>
<polygon fill="#91072a" fill-opacity="0.698039" stroke="#91072a" stroke-width="2" stroke-opacity="0.698039" points="800.44,-701.12 809.49,-695.61 798.98,-694.28 800.44,-701.12"/>
</g>
<!-- github.com/hasansino/goapp/internal/example/provider/http&#45;&gt;github.com/hasansino/goapp/internal/example/domain -->
<g id="edge34" class="edge">
<title>github.com/hasansino/goapp/internal/example/provider/http:e&#45;&gt;github.com/hasansino/goapp/internal/example/domain</title>
<path fill="none" stroke="#91074b" stroke-width="2" stroke-opacity="0.698039" d="M648,-726C824.3,-726 868.96,-724.04 1044,-703 1093.65,-697.03 1148.32,-687.38 1193.93,-678.46"/>
<polygon fill="#91074b" fill-opacity="0.698039" stroke="#91074b" stroke-width="2" stroke-opacity="0.698039" points="1194.44,-681.93 1203.57,-676.55 1193.08,-675.06 1194.44,-681.93"/>
</g>
<!-- github.com/hasansino/goapp/internal/example/provider/http&#45;&gt;github.com/hasansino/goapp/internal/tools -->
<g id="edge35" class="edge">
<title>github.com/hasansino/goapp/internal/example/provider/http:e&#45;&gt;github.com/hasansino/goapp/internal/tools</title>
<path fill="none" stroke="#079168" stroke-width="2" stroke-opacity="0.698039" d="M648,-726C660.73,-726 796.61,-823.53 862.96,-871.7"/>
<polygon fill="#079168" fill-opacity="0.698039" stroke="#079168" stroke-width="2" stroke-opacity="0.698039" points="860.76,-874.44 870.91,-877.49 864.88,-868.77 860.76,-874.44"/>
</g>
<!-- github.com/hasansino/goapp/internal/example/repository/gorm&#45;&gt;github.com/hasansino/goapp/internal/example/domain -->
<g id="edge36" class="edge">
<title>github.com/hasansino/goapp/internal/example/repository/gorm:e&#45;&gt;github.com/hasansino/goapp/internal/example/domain</title>
<path fill="none" stroke="#91074b" stroke-width="2" stroke-opacity="0.698039" d="M1044,-584C1062.21,-584 1156.26,-612.7 1223.89,-634.11"/>
<polygon fill="#91074b" fill-opacity="0.698039" stroke="#91074b" stroke-width="2" stroke-opacity="0.698039" points="1222.71,-637.4 1233.3,-637.09 1224.82,-630.73 1222.71,-637.4"/>
</g>
<!-- github.com/hasansino/goapp/internal/example/repository/gorm&#45;&gt;github.com/hasansino/goapp/internal/example/models -->
<g id="edge37" class="edge">
<title>github.com/hasansino/goapp/internal/example/repository/gorm:e&#45;&gt;github.com/hasansino/goapp/internal/example/models</title>
<path fill="none" stroke="#072891" stroke-width="2" stroke-opacity="0.698039" d="M1044,-584C1080.45,-584 1119.87,-584 1156.44,-584"/>
<polygon fill="#072891" fill-opacity="0.698039" stroke="#072891" stroke-width="2" stroke-opacity="0.698039" points="1156.21,-587.5 1166.21,-584 1156.21,-580.5 1156.21,-587.5"/>
</g>
<!-- github.com/hasansino/goapp/tests -->
<g id="node29" class="node">
<title>github.com/hasansino/goapp/tests</title>
<g id="a_node29"><a xlink:href="https://pkg.go.dev/github.com/hasansino/goapp/tests" xlink:title="github.com/hasansino/goapp/tests\l0 / 0B\l" target="_graphviz">
<polygon fill="none" stroke="#910772" stroke-width="2" stroke-opacity="0.698039" points="216,-1101 36,-1101 36,-1065 216,-1065 216,-1101"/>
<text text-anchor="start" x="44" y="-1084.75" font-family="Times,serif" font-size="10.00">github.com/hasansino/goapp/tests</text>
<text text-anchor="start" x="44" y="-1073.5" font-family="Times,serif" font-size="10.00">0 / 0B</text>
</a>
</g>
</g>
</g>
</svg>
