<?xml version="1.0" encoding="UTF-8" standalone="no"?>
<!DOCTYPE svg PUBLIC "-//W3C//DTD SVG 1.1//EN"
 "http://www.w3.org/Graphics/SVG/1.1/DTD/svg11.dtd">
<!-- Generated by graphviz version 12.2.1 (20241206.2353)
 -->
<!-- Title: G Pages: 1 -->
<svg width="1772pt" height="1070pt"
 viewBox="0.00 0.00 1772.00 1070.48" xmlns="http://www.w3.org/2000/svg" xmlns:xlink="http://www.w3.org/1999/xlink">
<g id="graph0" class="graph" transform="scale(1 1) rotate(0) translate(4 1066.48)">
<title>G</title>
<polygon fill="white" stroke="none" points="-4,4 -4,-1066.48 1768,-1066.48 1768,4 -4,4"/>
<!-- github.com/hasansino/goapp/cmd/app -->
<g id="node1" class="node">
<title>github.com/hasansino/goapp/cmd/app</title>
<g id="a_node1"><a xlink:href="https://pkg.go.dev/github.com/hasansino/goapp/cmd/app" xlink:title="github.com/hasansino/goapp/cmd/app\l589 / 18.9KB\l" target="_graphviz">
<polygon fill="none" stroke="#915007" stroke-width="2" stroke-opacity="0.698039" points="216,-494.48 36,-494.48 36,-458.48 216,-458.48 216,-494.48"/>
<text text-anchor="start" x="44" y="-478.23" font-family="Times,serif" font-size="10.00">github.com/hasansino/goapp/cmd/app</text>
<text text-anchor="start" x="44" y="-466.98" font-family="Times,serif" font-size="10.00">589 / 18.9KB</text>
</a>
</g>
</g>
<!-- github.com/hasansino/goapp/internal/api/grpc -->
<g id="node3" class="node">
<title>github.com/hasansino/goapp/internal/api/grpc</title>
<g id="a_node3"><a xlink:href="https://pkg.go.dev/github.com/hasansino/goapp/internal/api/grpc" xlink:title="github.com/hasansino/goapp/internal/api/grpc\l145 / 4.4KB\l" target="_graphviz">
<polygon fill="none" stroke="#729107" stroke-width="2" stroke-opacity="0.698039" points="1404,-785.48 1188,-785.48 1188,-749.48 1404,-749.48 1404,-785.48"/>
<text text-anchor="start" x="1196" y="-769.23" font-family="Times,serif" font-size="10.00">github.com/hasansino/goapp/internal/api/grpc</text>
<text text-anchor="start" x="1196" y="-757.98" font-family="Times,serif" font-size="10.00">145 / 4.4KB</text>
</a>
</g>
</g>
<!-- github.com/hasansino/goapp/cmd/app&#45;&gt;github.com/hasansino/goapp/internal/api/grpc -->
<g id="edge1" class="edge">
<title>github.com/hasansino/goapp/cmd/app:e&#45;&gt;github.com/hasansino/goapp/internal/api/grpc</title>
<path fill="none" stroke="#729107" stroke-width="2" stroke-opacity="0.698039" d="M217,-476.48C352.01,-476.48 245.29,-673.28 360,-744.48 427.44,-786.34 937.3,-777.67 1174.42,-771.24"/>
<polygon fill="#729107" fill-opacity="0.698039" stroke="#729107" stroke-width="2" stroke-opacity="0.698039" points="1174.3,-774.75 1184.2,-770.97 1174.11,-767.75 1174.3,-774.75"/>
</g>
<!-- github.com/hasansino/goapp/internal/api/http -->
<g id="node5" class="node">
<title>github.com/hasansino/goapp/internal/api/http</title>
<g id="a_node5"><a xlink:href="https://pkg.go.dev/github.com/hasansino/goapp/internal/api/http" xlink:title="github.com/hasansino/goapp/internal/api/http\l281 / 7.7KB\l" target="_graphviz">
<polygon fill="none" stroke="#076b91" stroke-width="2" stroke-opacity="0.698039" points="1008,-747.48 792,-747.48 792,-711.48 1008,-711.48 1008,-747.48"/>
<text text-anchor="start" x="800" y="-731.23" font-family="Times,serif" font-size="10.00">github.com/hasansino/goapp/internal/api/http</text>
<text text-anchor="start" x="800" y="-719.98" font-family="Times,serif" font-size="10.00">281 / 7.7KB</text>
</a>
</g>
</g>
<!-- github.com/hasansino/goapp/cmd/app&#45;&gt;github.com/hasansino/goapp/internal/api/http -->
<g id="edge2" class="edge">
<title>github.com/hasansino/goapp/cmd/app:e&#45;&gt;github.com/hasansino/goapp/internal/api/http</title>
<path fill="none" stroke="#076b91" stroke-width="2" stroke-opacity="0.698039" d="M217,-476.48C340.4,-476.48 253.45,-652.22 360,-714.48 428.34,-754.41 641.56,-748.13 778.46,-739.27"/>
<polygon fill="#076b91" fill-opacity="0.698039" stroke="#076b91" stroke-width="2" stroke-opacity="0.698039" points="778.28,-742.79 788.03,-738.64 777.82,-735.81 778.28,-742.79"/>
</g>
<!-- github.com/hasansino/goapp/internal/cache -->
<g id="node8" class="node">
<title>github.com/hasansino/goapp/internal/cache</title>
<g id="a_node8"><a xlink:href="https://pkg.go.dev/github.com/hasansino/goapp/internal/cache" xlink:title="github.com/hasansino/goapp/internal/cache\l28 / 0.8KB\l" target="_graphviz">
<polygon fill="none" stroke="#079156" stroke-width="2" stroke-opacity="0.698039" points="612,-413.48 396,-413.48 396,-377.48 612,-377.48 612,-413.48"/>
<text text-anchor="start" x="404" y="-397.23" font-family="Times,serif" font-size="10.00">github.com/hasansino/goapp/internal/cache</text>
<text text-anchor="start" x="404" y="-385.98" font-family="Times,serif" font-size="10.00">28 / 0.8KB</text>
</a>
</g>
</g>
<!-- github.com/hasansino/goapp/cmd/app&#45;&gt;github.com/hasansino/goapp/internal/cache -->
<g id="edge3" class="edge">
<title>github.com/hasansino/goapp/cmd/app:e&#45;&gt;github.com/hasansino/goapp/internal/cache</title>
<path fill="none" stroke="#079156" stroke-width="2" stroke-opacity="0.698039" d="M217,-476.48C284.94,-476.48 294.6,-440.85 360,-422.48 367.33,-420.42 374.92,-418.47 382.61,-416.63"/>
<polygon fill="#079156" fill-opacity="0.698039" stroke="#079156" stroke-width="2" stroke-opacity="0.698039" points="383.25,-420.08 392.21,-414.43 381.68,-413.25 383.25,-420.08"/>
</g>
<!-- github.com/hasansino/goapp/internal/cache/memcached -->
<g id="node9" class="node">
<title>github.com/hasansino/goapp/internal/cache/memcached</title>
<g id="a_node9"><a xlink:href="https://pkg.go.dev/github.com/hasansino/goapp/internal/cache/memcached" xlink:title="github.com/hasansino/goapp/internal/cache/memcached\l58 / 1.5KB\l" target="_graphviz">
<polygon fill="none" stroke="#079111" stroke-width="2" stroke-opacity="0.698039" points="630,-359.48 378,-359.48 378,-323.48 630,-323.48 630,-359.48"/>
<text text-anchor="start" x="386" y="-343.23" font-family="Times,serif" font-size="10.00">github.com/hasansino/goapp/internal/cache/memcached</text>
<text text-anchor="start" x="386" y="-331.98" font-family="Times,serif" font-size="10.00">58 / 1.5KB</text>
</a>
</g>
</g>
<!-- github.com/hasansino/goapp/cmd/app&#45;&gt;github.com/hasansino/goapp/internal/cache/memcached -->
<g id="edge4" class="edge">
<title>github.com/hasansino/goapp/cmd/app:e&#45;&gt;github.com/hasansino/goapp/internal/cache/memcached</title>
<path fill="none" stroke="#079111" stroke-width="2" stroke-opacity="0.698039" d="M217,-476.48C296.64,-476.48 287.17,-400.72 360,-368.48 362.98,-367.16 366.03,-365.9 369.12,-364.71"/>
<polygon fill="#079111" fill-opacity="0.698039" stroke="#079111" stroke-width="2" stroke-opacity="0.698039" points="370.16,-368.06 378.41,-361.41 367.82,-361.46 370.16,-368.06"/>
</g>
<!-- github.com/hasansino/goapp/internal/cache/miniredis -->
<g id="node10" class="node">
<title>github.com/hasansino/goapp/internal/cache/miniredis</title>
<g id="a_node10"><a xlink:href="https://pkg.go.dev/github.com/hasansino/goapp/internal/cache/miniredis" xlink:title="github.com/hasansino/goapp/internal/cache/miniredis\l34 / 0.7KB\l" target="_graphviz">
<polygon fill="none" stroke="#912007" stroke-width="2" stroke-opacity="0.698039" points="630,-305.48 378,-305.48 378,-269.48 630,-269.48 630,-305.48"/>
<text text-anchor="start" x="386" y="-289.23" font-family="Times,serif" font-size="10.00">github.com/hasansino/goapp/internal/cache/miniredis</text>
<text text-anchor="start" x="386" y="-277.98" font-family="Times,serif" font-size="10.00">34 / 0.7KB</text>
</a>
</g>
</g>
<!-- github.com/hasansino/goapp/cmd/app&#45;&gt;github.com/hasansino/goapp/internal/cache/miniredis -->
<g id="edge5" class="edge">
<title>github.com/hasansino/goapp/cmd/app:e&#45;&gt;github.com/hasansino/goapp/internal/cache/miniredis</title>
<path fill="none" stroke="#912007" stroke-width="2" stroke-opacity="0.698039" d="M217,-476.48C313.04,-476.48 276.52,-361.96 360,-314.48 361.8,-313.45 363.63,-312.47 365.49,-311.52"/>
<polygon fill="#912007" fill-opacity="0.698039" stroke="#912007" stroke-width="2" stroke-opacity="0.698039" points="366.86,-314.74 374.48,-307.39 363.94,-308.38 366.86,-314.74"/>
</g>
<!-- github.com/hasansino/goapp/internal/cache/redis -->
<g id="node11" class="node">
<title>github.com/hasansino/goapp/internal/cache/redis</title>
<g id="a_node11"><a xlink:href="https://pkg.go.dev/github.com/hasansino/goapp/internal/cache/redis" xlink:title="github.com/hasansino/goapp/internal/cache/redis\l144 / 3.6KB\l" target="_graphviz">
<polygon fill="none" stroke="#550791" stroke-width="2" stroke-opacity="0.698039" points="630,-251.48 378,-251.48 378,-215.48 630,-215.48 630,-251.48"/>
<text text-anchor="start" x="386" y="-235.23" font-family="Times,serif" font-size="10.00">github.com/hasansino/goapp/internal/cache/redis</text>
<text text-anchor="start" x="386" y="-223.98" font-family="Times,serif" font-size="10.00">144 / 3.6KB</text>
</a>
</g>
</g>
<!-- github.com/hasansino/goapp/cmd/app&#45;&gt;github.com/hasansino/goapp/internal/cache/redis -->
<g id="edge6" class="edge">
<title>github.com/hasansino/goapp/cmd/app:e&#45;&gt;github.com/hasansino/goapp/internal/cache/redis</title>
<path fill="none" stroke="#550791" stroke-width="2" stroke-opacity="0.698039" d="M217,-476.48C332.13,-476.48 264.1,-324.18 360,-260.48 361.84,-259.25 363.73,-258.08 365.65,-256.96"/>
<polygon fill="#550791" fill-opacity="0.698039" stroke="#550791" stroke-width="2" stroke-opacity="0.698039" points="367.07,-260.16 374.34,-252.45 363.85,-253.95 367.07,-260.16"/>
</g>
<!-- github.com/hasansino/goapp/internal/config -->
<g id="node12" class="node">
<title>github.com/hasansino/goapp/internal/config</title>
<g id="a_node12"><a xlink:href="https://pkg.go.dev/github.com/hasansino/goapp/internal/config" xlink:title="github.com/hasansino/goapp/internal/config\l265 / 12.1KB\l" target="_graphviz">
<polygon fill="none" stroke="#760791" stroke-width="2" stroke-opacity="0.698039" points="612,-877.48 396,-877.48 396,-841.48 612,-841.48 612,-877.48"/>
<text text-anchor="start" x="404" y="-861.23" font-family="Times,serif" font-size="10.00">github.com/hasansino/goapp/internal/config</text>
<text text-anchor="start" x="404" y="-849.98" font-family="Times,serif" font-size="10.00">265 / 12.1KB</text>
</a>
</g>
</g>
<!-- github.com/hasansino/goapp/cmd/app&#45;&gt;github.com/hasansino/goapp/internal/config -->
<g id="edge7" class="edge">
<title>github.com/hasansino/goapp/cmd/app:e&#45;&gt;github.com/hasansino/goapp/internal/config</title>
<path fill="none" stroke="#760791" stroke-width="2" stroke-opacity="0.698039" d="M217,-476.48C385.45,-476.48 231.38,-718.7 360,-827.48 367.08,-833.47 375.04,-838.4 383.49,-842.45"/>
<polygon fill="#760791" fill-opacity="0.698039" stroke="#760791" stroke-width="2" stroke-opacity="0.698039" points="381.91,-845.58 392.48,-846.27 384.65,-839.14 381.91,-845.58"/>
</g>
<!-- github.com/hasansino/goapp/internal/core -->
<g id="node13" class="node">
<title>github.com/hasansino/goapp/internal/core</title>
<g id="a_node13"><a xlink:href="https://pkg.go.dev/github.com/hasansino/goapp/internal/core" xlink:title="github.com/hasansino/goapp/internal/core\l4 / 57B\l" target="_graphviz">
<polygon fill="none" stroke="#073391" stroke-width="2" stroke-opacity="0.698039" points="612,-197.48 396,-197.48 396,-161.48 612,-161.48 612,-197.48"/>
<text text-anchor="start" x="404" y="-181.23" font-family="Times,serif" font-size="10.00">github.com/hasansino/goapp/internal/core</text>
<text text-anchor="start" x="404" y="-169.98" font-family="Times,serif" font-size="10.00">4 / 57B</text>
</a>
</g>
</g>
<!-- github.com/hasansino/goapp/cmd/app&#45;&gt;github.com/hasansino/goapp/internal/core -->
<g id="edge8" class="edge">
<title>github.com/hasansino/goapp/cmd/app:e&#45;&gt;github.com/hasansino/goapp/internal/core</title>
<path fill="none" stroke="#073391" stroke-width="2" stroke-opacity="0.698039" d="M217,-476.48C352.79,-476.48 250.69,-287.05 360,-206.48 367.04,-201.29 374.78,-197.01 382.92,-193.49"/>
<polygon fill="#073391" fill-opacity="0.698039" stroke="#073391" stroke-width="2" stroke-opacity="0.698039" points="384.16,-196.77 392.26,-189.94 381.66,-190.23 384.16,-196.77"/>
</g>
<!-- github.com/hasansino/goapp/internal/database/pgsql -->
<g id="node14" class="node">
<title>github.com/hasansino/goapp/internal/database/pgsql</title>
<g id="a_node14"><a xlink:href="https://pkg.go.dev/github.com/hasansino/goapp/internal/database/pgsql" xlink:title="github.com/hasansino/goapp/internal/database/pgsql\l115 / 2.5KB\l" target="_graphviz">
<polygon fill="none" stroke="#130791" stroke-width="2" stroke-opacity="0.698039" points="630,-143.48 378,-143.48 378,-107.48 630,-107.48 630,-143.48"/>
<text text-anchor="start" x="386" y="-127.23" font-family="Times,serif" font-size="10.00">github.com/hasansino/goapp/internal/database/pgsql</text>
<text text-anchor="start" x="386" y="-115.98" font-family="Times,serif" font-size="10.00">115 / 2.5KB</text>
</a>
</g>
</g>
<!-- github.com/hasansino/goapp/cmd/app&#45;&gt;github.com/hasansino/goapp/internal/database/pgsql -->
<g id="edge9" class="edge">
<title>github.com/hasansino/goapp/cmd/app:e&#45;&gt;github.com/hasansino/goapp/internal/database/pgsql</title>
<path fill="none" stroke="#130791" stroke-width="2" stroke-opacity="0.698039" d="M217,-476.48C374.4,-476.48 236.71,-250.33 360,-152.48 362,-150.89 364.07,-149.38 366.2,-147.95"/>
<polygon fill="#130791" fill-opacity="0.698039" stroke="#130791" stroke-width="2" stroke-opacity="0.698039" points="367.8,-151.07 374.65,-142.99 364.26,-145.04 367.8,-151.07"/>
</g>
<!-- github.com/hasansino/goapp/internal/database/pgsql/migrate -->
<g id="node15" class="node">
<title>github.com/hasansino/goapp/internal/database/pgsql/migrate</title>
<g id="a_node15"><a xlink:href="https://pkg.go.dev/github.com/hasansino/goapp/internal/database/pgsql/migrate" xlink:title="github.com/hasansino/goapp/internal/database/pgsql/migrate\l28 / 561B\l" target="_graphviz">
<polygon fill="none" stroke="#07916d" stroke-width="2" stroke-opacity="0.698039" points="648,-89.48 360,-89.48 360,-53.48 648,-53.48 648,-89.48"/>
<text text-anchor="start" x="368" y="-73.23" font-family="Times,serif" font-size="10.00">github.com/hasansino/goapp/internal/database/pgsql/migrate</text>
<text text-anchor="start" x="368" y="-61.98" font-family="Times,serif" font-size="10.00">28 / 561B</text>
</a>
</g>
</g>
<!-- github.com/hasansino/goapp/cmd/app&#45;&gt;github.com/hasansino/goapp/internal/database/pgsql/migrate -->
<g id="edge10" class="edge">
<title>github.com/hasansino/goapp/cmd/app:e&#45;&gt;github.com/hasansino/goapp/internal/database/pgsql/migrate</title>
<path fill="none" stroke="#07916d" stroke-width="2" stroke-opacity="0.698039" d="M217,-476.48C396.62,-476.48 222.37,-213.9 360,-98.48 360.34,-98.2 360.67,-97.92 361.01,-97.64"/>
<polygon fill="#07916d" fill-opacity="0.698039" stroke="#07916d" stroke-width="2" stroke-opacity="0.698039" points="362.76,-100.7 368.91,-92.07 358.72,-94.98 362.76,-100.7"/>
</g>
<!-- github.com/hasansino/goapp/internal/database/sqlite -->
<g id="node16" class="node">
<title>github.com/hasansino/goapp/internal/database/sqlite</title>
<g id="a_node16"><a xlink:href="https://pkg.go.dev/github.com/hasansino/goapp/internal/database/sqlite" xlink:title="github.com/hasansino/goapp/internal/database/sqlite\l112 / 2.6KB\l" target="_graphviz">
<polygon fill="none" stroke="#071591" stroke-width="2" stroke-opacity="0.698039" points="1026,-249.48 774,-249.48 774,-213.48 1026,-213.48 1026,-249.48"/>
<text text-anchor="start" x="782" y="-233.23" font-family="Times,serif" font-size="10.00">github.com/hasansino/goapp/internal/database/sqlite</text>
<text text-anchor="start" x="782" y="-221.98" font-family="Times,serif" font-size="10.00">112 / 2.6KB</text>
</a>
</g>
</g>
<!-- github.com/hasansino/goapp/cmd/app&#45;&gt;github.com/hasansino/goapp/internal/database/sqlite -->
<g id="edge11" class="edge">
<title>github.com/hasansino/goapp/cmd/app:e&#45;&gt;github.com/hasansino/goapp/internal/database/sqlite</title>
<path fill="none" stroke="#071591" stroke-width="2" stroke-opacity="0.698039" d="M217,-476.48C419.25,-476.48 196.05,-162.91 360,-44.48 463.76,30.47 526.5,-4.2 648,-44.48 743.19,-76.04 831.57,-159.27 873.5,-203.28"/>
<polygon fill="#071591" fill-opacity="0.698039" stroke="#071591" stroke-width="2" stroke-opacity="0.698039" points="870.73,-205.45 880.12,-210.35 875.84,-200.66 870.73,-205.45"/>
</g>
<!-- github.com/hasansino/goapp/internal/database/sqlite/migrate -->
<g id="node17" class="node">
<title>github.com/hasansino/goapp/internal/database/sqlite/migrate</title>
<g id="a_node17"><a xlink:href="https://pkg.go.dev/github.com/hasansino/goapp/internal/database/sqlite/migrate" xlink:title="github.com/hasansino/goapp/internal/database/sqlite/migrate\l29 / 0.7KB\l" target="_graphviz">
<polygon fill="none" stroke="#072391" stroke-width="2" stroke-opacity="0.698039" points="648,-521.48 360,-521.48 360,-485.48 648,-485.48 648,-521.48"/>
<text text-anchor="start" x="368" y="-505.23" font-family="Times,serif" font-size="10.00">github.com/hasansino/goapp/internal/database/sqlite/migrate</text>
<text text-anchor="start" x="368" y="-493.98" font-family="Times,serif" font-size="10.00">29 / 0.7KB</text>
</a>
</g>
</g>
<!-- github.com/hasansino/goapp/cmd/app&#45;&gt;github.com/hasansino/goapp/internal/database/sqlite/migrate -->
<g id="edge12" class="edge">
<title>github.com/hasansino/goapp/cmd/app:e&#45;&gt;github.com/hasansino/goapp/internal/database/sqlite/migrate</title>
<path fill="none" stroke="#072391" stroke-width="2" stroke-opacity="0.698039" d="M217,-476.48C259.03,-476.48 304.39,-479.41 346.32,-483.33"/>
<polygon fill="#072391" fill-opacity="0.698039" stroke="#072391" stroke-width="2" stroke-opacity="0.698039" points="345.92,-486.81 356.21,-484.29 346.59,-479.84 345.92,-486.81"/>
</g>
<!-- github.com/hasansino/goapp/internal/example -->
<g id="node18" class="node">
<title>github.com/hasansino/goapp/internal/example</title>
<g id="a_node18"><a xlink:href="https://pkg.go.dev/github.com/hasansino/goapp/internal/example" xlink:title="github.com/hasansino/goapp/internal/example\l130 / 3.8KB\l" target="_graphviz">
<polygon fill="none" stroke="#91072a" stroke-width="2" stroke-opacity="0.698039" points="1008,-655.48 792,-655.48 792,-619.48 1008,-619.48 1008,-655.48"/>
<text text-anchor="start" x="800" y="-639.23" font-family="Times,serif" font-size="10.00">github.com/hasansino/goapp/internal/example</text>
<text text-anchor="start" x="800" y="-627.98" font-family="Times,serif" font-size="10.00">130 / 3.8KB</text>
</a>
</g>
</g>
<!-- github.com/hasansino/goapp/cmd/app&#45;&gt;github.com/hasansino/goapp/internal/example -->
<g id="edge13" class="edge">
<title>github.com/hasansino/goapp/cmd/app:e&#45;&gt;github.com/hasansino/goapp/internal/example</title>
<path fill="none" stroke="#91072a" stroke-width="2" stroke-opacity="0.698039" d="M217,-476.48C307.83,-476.48 276.76,-586.12 360,-622.48 432.25,-654.04 642.77,-650.56 778.33,-644.49"/>
<polygon fill="#91072a" fill-opacity="0.698039" stroke="#91072a" stroke-width="2" stroke-opacity="0.698039" points="778.35,-647.99 788.18,-644.04 778.03,-641 778.35,-647.99"/>
</g>
<!-- github.com/hasansino/goapp/internal/example/provider/grpc -->
<g id="node22" class="node">
<title>github.com/hasansino/goapp/internal/example/provider/grpc</title>
<g id="a_node22"><a xlink:href="https://pkg.go.dev/github.com/hasansino/goapp/internal/example/provider/grpc" xlink:title="github.com/hasansino/goapp/internal/example/provider/grpc\l835 / 30.1KB\l" target="_graphviz">
<polygon fill="none" stroke="#300791" stroke-width="2" stroke-opacity="0.698039" points="648,-613.48 360,-613.48 360,-577.48 648,-577.48 648,-613.48"/>
<text text-anchor="start" x="368" y="-597.23" font-family="Times,serif" font-size="10.00">github.com/hasansino/goapp/internal/example/provider/grpc</text>
<text text-anchor="start" x="368" y="-585.98" font-family="Times,serif" font-size="10.00">835 / 30.1KB</text>
</a>
</g>
</g>
<!-- github.com/hasansino/goapp/cmd/app&#45;&gt;github.com/hasansino/goapp/internal/example/provider/grpc -->
<g id="edge14" class="edge">
<title>github.com/hasansino/goapp/cmd/app:e&#45;&gt;github.com/hasansino/goapp/internal/example/provider/grpc</title>
<path fill="none" stroke="#300791" stroke-width="2" stroke-opacity="0.698039" d="M217,-476.48C291.39,-476.48 291.01,-535.65 360,-563.48 368.69,-566.99 377.85,-570.15 387.15,-572.99"/>
<polygon fill="#300791" fill-opacity="0.698039" stroke="#300791" stroke-width="2" stroke-opacity="0.698039" points="385.95,-576.28 396.53,-575.7 387.9,-569.56 385.95,-576.28"/>
</g>
<!-- github.com/hasansino/goapp/internal/example/provider/http -->
<g id="node23" class="node">
<title>github.com/hasansino/goapp/internal/example/provider/http</title>
<g id="a_node23"><a xlink:href="https://pkg.go.dev/github.com/hasansino/goapp/internal/example/provider/http" xlink:title="github.com/hasansino/goapp/internal/example/provider/http\l125 / 3.8KB\l" target="_graphviz">
<polygon fill="none" stroke="#915907" stroke-width="2" stroke-opacity="0.698039" points="648,-705.48 360,-705.48 360,-669.48 648,-669.48 648,-705.48"/>
<text text-anchor="start" x="368" y="-689.23" font-family="Times,serif" font-size="10.00">github.com/hasansino/goapp/internal/example/provider/http</text>
<text text-anchor="start" x="368" y="-677.98" font-family="Times,serif" font-size="10.00">125 / 3.8KB</text>
</a>
</g>
</g>
<!-- github.com/hasansino/goapp/cmd/app&#45;&gt;github.com/hasansino/goapp/internal/example/provider/http -->
<g id="edge15" class="edge">
<title>github.com/hasansino/goapp/cmd/app:e&#45;&gt;github.com/hasansino/goapp/internal/example/provider/http</title>
<path fill="none" stroke="#915907" stroke-width="2" stroke-opacity="0.698039" d="M217,-476.48C318.83,-476.48 273.64,-601.53 360,-655.48 364.61,-658.36 369.45,-660.98 374.45,-663.37"/>
<polygon fill="#915907" fill-opacity="0.698039" stroke="#915907" stroke-width="2" stroke-opacity="0.698039" points="373.01,-666.56 383.58,-667.33 375.79,-660.14 373.01,-666.56"/>
</g>
<!-- github.com/hasansino/goapp/internal/example/repository/gorm -->
<g id="node24" class="node">
<title>github.com/hasansino/goapp/internal/example/repository/gorm</title>
<g id="a_node24"><a xlink:href="https://pkg.go.dev/github.com/hasansino/goapp/internal/example/repository/gorm" xlink:title="github.com/hasansino/goapp/internal/example/repository/gorm\l114 / 3.4KB\l" target="_graphviz">
<polygon fill="none" stroke="#078c91" stroke-width="2" stroke-opacity="0.698039" points="1044,-563.48 756,-563.48 756,-527.48 1044,-527.48 1044,-563.48"/>
<text text-anchor="start" x="764" y="-547.23" font-family="Times,serif" font-size="10.00">github.com/hasansino/goapp/internal/example/repository/gorm</text>
<text text-anchor="start" x="764" y="-535.98" font-family="Times,serif" font-size="10.00">114 / 3.4KB</text>
</a>
</g>
</g>
<!-- github.com/hasansino/goapp/cmd/app&#45;&gt;github.com/hasansino/goapp/internal/example/repository/gorm -->
<g id="edge16" class="edge">
<title>github.com/hasansino/goapp/cmd/app:e&#45;&gt;github.com/hasansino/goapp/internal/example/repository/gorm</title>
<path fill="none" stroke="#078c91" stroke-width="2" stroke-opacity="0.698039" d="M217,-476.48C284.94,-476.48 293.34,-517.35 360,-530.48 486.87,-555.47 633.76,-557.85 742.12,-554.76"/>
<polygon fill="#078c91" fill-opacity="0.698039" stroke="#078c91" stroke-width="2" stroke-opacity="0.698039" points="742.23,-558.26 752.12,-554.45 742.02,-551.26 742.23,-558.26"/>
</g>
<!-- github.com/hasansino/goapp/internal/metrics -->
<g id="node25" class="node">
<title>github.com/hasansino/goapp/internal/metrics</title>
<g id="a_node25"><a xlink:href="https://pkg.go.dev/github.com/hasansino/goapp/internal/metrics" xlink:title="github.com/hasansino/goapp/internal/metrics\l93 / 2.5KB\l" target="_graphviz">
<polygon fill="none" stroke="#916207" stroke-width="2" stroke-opacity="0.698039" points="1764,-785.48 1548,-785.48 1548,-749.48 1764,-749.48 1764,-785.48"/>
<text text-anchor="start" x="1556" y="-769.23" font-family="Times,serif" font-size="10.00">github.com/hasansino/goapp/internal/metrics</text>
<text text-anchor="start" x="1556" y="-757.98" font-family="Times,serif" font-size="10.00">93 / 2.5KB</text>
</a>
</g>
</g>
<!-- github.com/hasansino/goapp/cmd/app&#45;&gt;github.com/hasansino/goapp/internal/metrics -->
<g id="edge17" class="edge">
<title>github.com/hasansino/goapp/cmd/app:e&#45;&gt;github.com/hasansino/goapp/internal/metrics</title>
<path fill="none" stroke="#916207" stroke-width="2" stroke-opacity="0.698039" d="M217,-476.48C363.5,-476.48 237.55,-693.04 360,-773.48 460.31,-839.38 1320.21,-801.97 1440,-794.48 1470.77,-792.55 1503.88,-789.1 1534.67,-785.28"/>
<polygon fill="#916207" fill-opacity="0.698039" stroke="#916207" stroke-width="2" stroke-opacity="0.698039" points="1534.77,-788.8 1544.25,-784.07 1533.89,-781.85 1534.77,-788.8"/>
</g>
<!-- github.com/hasansino/goapp/internal/metrics/providers/http -->
<g id="node26" class="node">
<title>github.com/hasansino/goapp/internal/metrics/providers/http</title>
<g id="a_node26"><a xlink:href="https://pkg.go.dev/github.com/hasansino/goapp/internal/metrics/providers/http" xlink:title="github.com/hasansino/goapp/internal/metrics/providers/http\l17 / 406B\l" target="_graphviz">
<polygon fill="none" stroke="#2a0791" stroke-width="2" stroke-opacity="0.698039" points="648,-467.48 360,-467.48 360,-431.48 648,-431.48 648,-467.48"/>
<text text-anchor="start" x="368" y="-451.23" font-family="Times,serif" font-size="10.00">github.com/hasansino/goapp/internal/metrics/providers/http</text>
<text text-anchor="start" x="368" y="-439.98" font-family="Times,serif" font-size="10.00">17 / 406B</text>
</a>
</g>
</g>
<!-- github.com/hasansino/goapp/cmd/app&#45;&gt;github.com/hasansino/goapp/internal/metrics/providers/http -->
<g id="edge18" class="edge">
<title>github.com/hasansino/goapp/cmd/app:e&#45;&gt;github.com/hasansino/goapp/internal/metrics/providers/http</title>
<path fill="none" stroke="#2a0791" stroke-width="2" stroke-opacity="0.698039" d="M217,-476.48C259.03,-476.48 304.39,-473.55 346.32,-469.63"/>
<polygon fill="#2a0791" fill-opacity="0.698039" stroke="#2a0791" stroke-width="2" stroke-opacity="0.698039" points="346.59,-473.12 356.21,-468.67 345.92,-466.15 346.59,-473.12"/>
</g>
<!-- github.com/hasansino/goapp/cmd/cfg2env -->
<g id="node2" class="node">
<title>github.com/hasansino/goapp/cmd/cfg2env</title>
<g id="a_node2"><a xlink:href="https://pkg.go.dev/github.com/hasansino/goapp/cmd/cfg2env" xlink:title="github.com/hasansino/goapp/cmd/cfg2env\l24 / 622B\l" target="_graphviz">
<polygon fill="none" stroke="#6e9107" stroke-width="2" stroke-opacity="0.698039" points="234,-900.48 18,-900.48 18,-864.48 234,-864.48 234,-900.48"/>
<text text-anchor="start" x="26" y="-884.23" font-family="Times,serif" font-size="10.00">github.com/hasansino/goapp/cmd/cfg2env</text>
<text text-anchor="start" x="26" y="-872.98" font-family="Times,serif" font-size="10.00">24 / 622B</text>
</a>
</g>
</g>
<!-- github.com/hasansino/goapp/cmd/cfg2env&#45;&gt;github.com/hasansino/goapp/internal/config -->
<g id="edge19" class="edge">
<title>github.com/hasansino/goapp/cmd/cfg2env:e&#45;&gt;github.com/hasansino/goapp/internal/config</title>
<path fill="none" stroke="#760791" stroke-width="2" stroke-opacity="0.698039" d="M235,-882.48C283.34,-882.48 336.41,-878.72 382.48,-874.24"/>
<polygon fill="#760791" fill-opacity="0.698039" stroke="#760791" stroke-width="2" stroke-opacity="0.698039" points="382.66,-877.74 392.26,-873.26 381.96,-870.77 382.66,-877.74"/>
</g>
<!-- github.com/hasansino/goapp/internal/tools -->
<g id="node27" class="node">
<title>github.com/hasansino/goapp/internal/tools</title>
<g id="a_node27"><a xlink:href="https://pkg.go.dev/github.com/hasansino/goapp/internal/tools" xlink:title="github.com/hasansino/goapp/internal/tools\l73 / 1.8KB\l" target="_graphviz">
<polygon fill="none" stroke="#079168" stroke-width="2" stroke-opacity="0.698039" points="1008,-877.48 792,-877.48 792,-841.48 1008,-841.48 1008,-877.48"/>
<text text-anchor="start" x="800" y="-861.23" font-family="Times,serif" font-size="10.00">github.com/hasansino/goapp/internal/tools</text>
<text text-anchor="start" x="800" y="-849.98" font-family="Times,serif" font-size="10.00">73 / 1.8KB</text>
</a>
</g>
</g>
<!-- github.com/hasansino/goapp/cmd/cfg2env&#45;&gt;github.com/hasansino/goapp/internal/tools -->
<g id="edge20" class="edge">
<title>github.com/hasansino/goapp/cmd/cfg2env:e&#45;&gt;github.com/hasansino/goapp/internal/tools</title>
<path fill="none" stroke="#079168" stroke-width="2" stroke-opacity="0.698039" d="M235,-882.48C290.58,-882.48 304.42,-885.59 360,-886.48 487.98,-888.53 520.18,-893.33 648,-886.48 690.54,-884.2 736.97,-879.76 778.2,-875.12"/>
<polygon fill="#079168" fill-opacity="0.698039" stroke="#079168" stroke-width="2" stroke-opacity="0.698039" points="778.56,-878.6 788.09,-873.99 777.76,-871.65 778.56,-878.6"/>
</g>
<!-- github.com/hasansino/goapp/internal/api/grpc&#45;&gt;github.com/hasansino/goapp/internal/metrics -->
<g id="edge21" class="edge">
<title>github.com/hasansino/goapp/internal/api/grpc:e&#45;&gt;github.com/hasansino/goapp/internal/metrics</title>
<path fill="none" stroke="#916207" stroke-width="2" stroke-opacity="0.698039" d="M1405,-767.48C1447.09,-767.48 1493.18,-767.48 1534.18,-767.48"/>
<polygon fill="#916207" fill-opacity="0.698039" stroke="#916207" stroke-width="2" stroke-opacity="0.698039" points="1533.99,-770.98 1543.99,-767.48 1533.99,-763.98 1533.99,-770.98"/>
</g>
<!-- github.com/hasansino/goapp/internal/api/grpc/mocks -->
<g id="node4" class="node">
<title>github.com/hasansino/goapp/internal/api/grpc/mocks</title>
<g id="a_node4"><a xlink:href="https://pkg.go.dev/github.com/hasansino/goapp/internal/api/grpc/mocks" xlink:title="github.com/hasansino/goapp/internal/api/grpc/mocks\l44 / 1.5KB\l" target="_graphviz">
<polygon fill="none" stroke="#320791" stroke-width="2" stroke-opacity="0.698039" points="252,-954.48 0,-954.48 0,-918.48 252,-918.48 252,-954.48"/>
<text text-anchor="start" x="8" y="-938.23" font-family="Times,serif" font-size="10.00">github.com/hasansino/goapp/internal/api/grpc/mocks</text>
<text text-anchor="start" x="8" y="-926.98" font-family="Times,serif" font-size="10.00">44 / 1.5KB</text>
</a>
</g>
</g>
<!-- github.com/hasansino/goapp/internal/api/http/middleware -->
<g id="node6" class="node">
<title>github.com/hasansino/goapp/internal/api/http/middleware</title>
<g id="a_node6"><a xlink:href="https://pkg.go.dev/github.com/hasansino/goapp/internal/api/http/middleware" xlink:title="github.com/hasansino/goapp/internal/api/http/middleware\l68 / 1.9KB\l" target="_graphviz">
<polygon fill="none" stroke="#910757" stroke-width="2" stroke-opacity="0.698039" points="1440,-731.48 1152,-731.48 1152,-695.48 1440,-695.48 1440,-731.48"/>
<text text-anchor="start" x="1160" y="-715.23" font-family="Times,serif" font-size="10.00">github.com/hasansino/goapp/internal/api/http/middleware</text>
<text text-anchor="start" x="1160" y="-703.98" font-family="Times,serif" font-size="10.00">68 / 1.9KB</text>
</a>
</g>
</g>
<!-- github.com/hasansino/goapp/internal/api/http&#45;&gt;github.com/hasansino/goapp/internal/api/http/middleware -->
<g id="edge22" class="edge">
<title>github.com/hasansino/goapp/internal/api/http:e&#45;&gt;github.com/hasansino/goapp/internal/api/http/middleware</title>
<path fill="none" stroke="#910757" stroke-width="2" stroke-opacity="0.698039" d="M1009,-729.48C1050.91,-729.48 1096.23,-727.75 1138.16,-725.42"/>
<polygon fill="#910757" fill-opacity="0.698039" stroke="#910757" stroke-width="2" stroke-opacity="0.698039" points="1138.25,-728.92 1148.04,-724.85 1137.85,-721.93 1138.25,-728.92"/>
</g>
<!-- github.com/hasansino/goapp/internal/api/http/middleware&#45;&gt;github.com/hasansino/goapp/internal/metrics -->
<g id="edge23" class="edge">
<title>github.com/hasansino/goapp/internal/api/http/middleware:e&#45;&gt;github.com/hasansino/goapp/internal/metrics</title>
<path fill="none" stroke="#916207" stroke-width="2" stroke-opacity="0.698039" d="M1440,-713.48C1493.94,-713.48 1553.27,-729.67 1595.91,-744.32"/>
<polygon fill="#916207" fill-opacity="0.698039" stroke="#916207" stroke-width="2" stroke-opacity="0.698039" points="1594.58,-747.56 1605.18,-747.59 1596.91,-740.96 1594.58,-747.56"/>
</g>
<!-- github.com/hasansino/goapp/internal/api/http/mocks -->
<g id="node7" class="node">
<title>github.com/hasansino/goapp/internal/api/http/mocks</title>
<g id="a_node7"><a xlink:href="https://pkg.go.dev/github.com/hasansino/goapp/internal/api/http/mocks" xlink:title="github.com/hasansino/goapp/internal/api/http/mocks\l44 / 1.5KB\l" target="_graphviz">
<polygon fill="none" stroke="#359107" stroke-width="2" stroke-opacity="0.698039" points="252,-1008.48 0,-1008.48 0,-972.48 252,-972.48 252,-1008.48"/>
<text text-anchor="start" x="8" y="-992.23" font-family="Times,serif" font-size="10.00">github.com/hasansino/goapp/internal/api/http/mocks</text>
<text text-anchor="start" x="8" y="-980.98" font-family="Times,serif" font-size="10.00">44 / 1.5KB</text>
</a>
</g>
</g>
<!-- github.com/hasansino/goapp/internal/config&#45;&gt;github.com/hasansino/goapp/internal/tools -->
<g id="edge24" class="edge">
<title>github.com/hasansino/goapp/internal/config:e&#45;&gt;github.com/hasansino/goapp/internal/tools</title>
<path fill="none" stroke="#079168" stroke-width="2" stroke-opacity="0.698039" d="M613,-859.48C667.24,-859.48 727.27,-859.48 778.27,-859.48"/>
<polygon fill="#079168" fill-opacity="0.698039" stroke="#079168" stroke-width="2" stroke-opacity="0.698039" points="778,-862.98 788,-859.48 778,-855.98 778,-862.98"/>
</g>
<!-- github.com/hasansino/goapp/internal/database/sqlite/migrate&#45;&gt;github.com/hasansino/goapp/internal/database/sqlite -->
<g id="edge25" class="edge">
<title>github.com/hasansino/goapp/internal/database/sqlite/migrate:e&#45;&gt;github.com/hasansino/goapp/internal/database/sqlite</title>
<path fill="none" stroke="#071591" stroke-width="2" stroke-opacity="0.698039" d="M648,-503.48C778.06,-503.48 859.36,-333.45 887.7,-262.26"/>
<polygon fill="#071591" fill-opacity="0.698039" stroke="#071591" stroke-width="2" stroke-opacity="0.698039" points="890.94,-263.59 891.29,-253 884.41,-261.06 890.94,-263.59"/>
</g>
<!-- github.com/hasansino/goapp/internal/example/domain -->
<g id="node19" class="node">
<title>github.com/hasansino/goapp/internal/example/domain</title>
<g id="a_node19"><a xlink:href="https://pkg.go.dev/github.com/hasansino/goapp/internal/example/domain" xlink:title="github.com/hasansino/goapp/internal/example/domain\l15 / 361B\l" target="_graphviz">
<polygon fill="none" stroke="#91074b" stroke-width="2" stroke-opacity="0.698039" points="1422,-636.48 1170,-636.48 1170,-600.48 1422,-600.48 1422,-636.48"/>
<text text-anchor="start" x="1178" y="-620.23" font-family="Times,serif" font-size="10.00">github.com/hasansino/goapp/internal/example/domain</text>
<text text-anchor="start" x="1178" y="-608.98" font-family="Times,serif" font-size="10.00">15 / 361B</text>
</a>
</g>
</g>
<!-- github.com/hasansino/goapp/internal/example&#45;&gt;github.com/hasansino/goapp/internal/example/domain -->
<g id="edge26" class="edge">
<title>github.com/hasansino/goapp/internal/example:e&#45;&gt;github.com/hasansino/goapp/internal/example/domain</title>
<path fill="none" stroke="#91074b" stroke-width="2" stroke-opacity="0.698039" d="M1009,-637.48C1057.09,-637.48 1109.63,-634.77 1156.4,-631.4"/>
<polygon fill="#91074b" fill-opacity="0.698039" stroke="#91074b" stroke-width="2" stroke-opacity="0.698039" points="1156.38,-634.91 1166.1,-630.68 1155.87,-627.93 1156.38,-634.91"/>
</g>
<!-- github.com/hasansino/goapp/internal/example/models -->
<g id="node21" class="node">
<title>github.com/hasansino/goapp/internal/example/models</title>
<g id="a_node21"><a xlink:href="https://pkg.go.dev/github.com/hasansino/goapp/internal/example/models" xlink:title="github.com/hasansino/goapp/internal/example/models\l15 / 365B\l" target="_graphviz">
<polygon fill="none" stroke="#072891" stroke-width="2" stroke-opacity="0.698039" points="1422,-563.48 1170,-563.48 1170,-527.48 1422,-527.48 1422,-563.48"/>
<text text-anchor="start" x="1178" y="-547.23" font-family="Times,serif" font-size="10.00">github.com/hasansino/goapp/internal/example/models</text>
<text text-anchor="start" x="1178" y="-535.98" font-family="Times,serif" font-size="10.00">15 / 365B</text>
</a>
</g>
</g>
<!-- github.com/hasansino/goapp/internal/example&#45;&gt;github.com/hasansino/goapp/internal/example/models -->
<g id="edge27" class="edge">
<title>github.com/hasansino/goapp/internal/example:e&#45;&gt;github.com/hasansino/goapp/internal/example/models</title>
<path fill="none" stroke="#072891" stroke-width="2" stroke-opacity="0.698039" d="M1009,-637.48C1009,-637.48 1139.24,-595.58 1223.94,-568.34"/>
<polygon fill="#072891" fill-opacity="0.698039" stroke="#072891" stroke-width="2" stroke-opacity="0.698039" points="1224.76,-571.75 1233.21,-565.36 1222.61,-565.09 1224.76,-571.75"/>
</g>
<!-- github.com/hasansino/goapp/internal/example/mocks -->
<g id="node20" class="node">
<title>github.com/hasansino/goapp/internal/example/mocks</title>
<g id="a_node20"><a xlink:href="https://pkg.go.dev/github.com/hasansino/goapp/internal/example/mocks" xlink:title="github.com/hasansino/goapp/internal/example/mocks\l179 / 6.5KB\l" target="_graphviz">
<polygon fill="none" stroke="#072391" stroke-width="2" stroke-opacity="0.698039" points="1026,-509.48 774,-509.48 774,-473.48 1026,-473.48 1026,-509.48"/>
<text text-anchor="start" x="782" y="-493.23" font-family="Times,serif" font-size="10.00">github.com/hasansino/goapp/internal/example/mocks</text>
<text text-anchor="start" x="782" y="-481.98" font-family="Times,serif" font-size="10.00">179 / 6.5KB</text>
</a>
</g>
</g>
<!-- github.com/hasansino/goapp/internal/example/mocks&#45;&gt;github.com/hasansino/goapp/internal/example/models -->
<g id="edge28" class="edge">
<title>github.com/hasansino/goapp/internal/example/mocks:e&#45;&gt;github.com/hasansino/goapp/internal/example/models</title>
<path fill="none" stroke="#072891" stroke-width="2" stroke-opacity="0.698039" d="M1027,-491.48C1094.56,-491.48 1169.84,-508.17 1223.37,-523"/>
<polygon fill="#072891" fill-opacity="0.698039" stroke="#072891" stroke-width="2" stroke-opacity="0.698039" points="1222.33,-526.34 1232.9,-525.69 1224.23,-519.6 1222.33,-526.34"/>
</g>
<!-- github.com/hasansino/goapp/internal/example/provider/grpc&#45;&gt;github.com/hasansino/goapp/internal/example -->
<g id="edge29" class="edge">
<title>github.com/hasansino/goapp/internal/example/provider/grpc:e&#45;&gt;github.com/hasansino/goapp/internal/example</title>
<path fill="none" stroke="#91072a" stroke-width="2" stroke-opacity="0.698039" d="M648,-595.48C675.92,-595.48 737.47,-605.72 792.62,-616.09"/>
<polygon fill="#91072a" fill-opacity="0.698039" stroke="#91072a" stroke-width="2" stroke-opacity="0.698039" points="791.92,-619.52 802.4,-617.94 793.23,-612.64 791.92,-619.52"/>
</g>
<!-- github.com/hasansino/goapp/internal/example/provider/grpc&#45;&gt;github.com/hasansino/goapp/internal/example/domain -->
<g id="edge30" class="edge">
<title>github.com/hasansino/goapp/internal/example/provider/grpc:e&#45;&gt;github.com/hasansino/goapp/internal/example/domain</title>
<path fill="none" stroke="#91074b" stroke-width="2" stroke-opacity="0.698039" d="M648,-595.48C823.4,-595.48 1025.38,-604.03 1156.35,-610.7"/>
<polygon fill="#91074b" fill-opacity="0.698039" stroke="#91074b" stroke-width="2" stroke-opacity="0.698039" points="1156.01,-614.19 1166.18,-611.2 1156.37,-607.2 1156.01,-614.19"/>
</g>
<!-- github.com/hasansino/goapp/internal/example/provider/http&#45;&gt;github.com/hasansino/goapp/internal/api/http -->
<g id="edge31" class="edge">
<title>github.com/hasansino/goapp/internal/example/provider/http:e&#45;&gt;github.com/hasansino/goapp/internal/api/http</title>
<path fill="none" stroke="#076b91" stroke-width="2" stroke-opacity="0.698039" d="M648,-687.48C675.92,-687.48 737.47,-697.72 792.62,-708.09"/>
<polygon fill="#076b91" fill-opacity="0.698039" stroke="#076b91" stroke-width="2" stroke-opacity="0.698039" points="791.92,-711.52 802.4,-709.94 793.23,-704.64 791.92,-711.52"/>
</g>
<!-- github.com/hasansino/goapp/internal/example/provider/http&#45;&gt;github.com/hasansino/goapp/internal/example -->
<g id="edge32" class="edge">
<title>github.com/hasansino/goapp/internal/example/provider/http:e&#45;&gt;github.com/hasansino/goapp/internal/example</title>
<path fill="none" stroke="#91072a" stroke-width="2" stroke-opacity="0.698039" d="M648,-687.48C663.49,-687.48 736.59,-672.64 799.93,-659.13"/>
<polygon fill="#91072a" fill-opacity="0.698039" stroke="#91072a" stroke-width="2" stroke-opacity="0.698039" points="800.44,-662.6 809.49,-657.09 798.98,-655.76 800.44,-662.6"/>
</g>
<!-- github.com/hasansino/goapp/internal/example/provider/http&#45;&gt;github.com/hasansino/goapp/internal/example/domain -->
<g id="edge33" class="edge">
<title>github.com/hasansino/goapp/internal/example/provider/http:e&#45;&gt;github.com/hasansino/goapp/internal/example/domain</title>
<path fill="none" stroke="#91074b" stroke-width="2" stroke-opacity="0.698039" d="M648,-687.48C824.3,-687.48 868.96,-685.52 1044,-664.48 1093.65,-658.51 1148.32,-648.86 1193.93,-639.94"/>
<polygon fill="#91074b" fill-opacity="0.698039" stroke="#91074b" stroke-width="2" stroke-opacity="0.698039" points="1194.44,-643.4 1203.57,-638.03 1193.08,-636.54 1194.44,-643.4"/>
</g>
<!-- github.com/hasansino/goapp/internal/example/provider/http&#45;&gt;github.com/hasansino/goapp/internal/tools -->
<g id="edge34" class="edge">
<title>github.com/hasansino/goapp/internal/example/provider/http:e&#45;&gt;github.com/hasansino/goapp/internal/tools</title>
<path fill="none" stroke="#079168" stroke-width="2" stroke-opacity="0.698039" d="M648,-687.48C660.73,-687.48 796.61,-785.01 862.96,-833.18"/>
<polygon fill="#079168" fill-opacity="0.698039" stroke="#079168" stroke-width="2" stroke-opacity="0.698039" points="860.76,-835.92 870.91,-838.96 864.88,-830.25 860.76,-835.92"/>
</g>
<!-- github.com/hasansino/goapp/internal/example/repository/gorm&#45;&gt;github.com/hasansino/goapp/internal/example/domain -->
<g id="edge35" class="edge">
<title>github.com/hasansino/goapp/internal/example/repository/gorm:e&#45;&gt;github.com/hasansino/goapp/internal/example/domain</title>
<path fill="none" stroke="#91074b" stroke-width="2" stroke-opacity="0.698039" d="M1044,-545.48C1062.21,-545.48 1156.26,-574.18 1223.89,-595.59"/>
<polygon fill="#91074b" fill-opacity="0.698039" stroke="#91074b" stroke-width="2" stroke-opacity="0.698039" points="1222.71,-598.88 1233.3,-598.57 1224.82,-592.21 1222.71,-598.88"/>
</g>
<!-- github.com/hasansino/goapp/internal/example/repository/gorm&#45;&gt;github.com/hasansino/goapp/internal/example/models -->
<g id="edge36" class="edge">
<title>github.com/hasansino/goapp/internal/example/repository/gorm:e&#45;&gt;github.com/hasansino/goapp/internal/example/models</title>
<path fill="none" stroke="#072891" stroke-width="2" stroke-opacity="0.698039" d="M1044,-545.48C1080.45,-545.48 1119.87,-545.48 1156.44,-545.48"/>
<polygon fill="#072891" fill-opacity="0.698039" stroke="#072891" stroke-width="2" stroke-opacity="0.698039" points="1156.21,-548.98 1166.21,-545.48 1156.21,-541.98 1156.21,-548.98"/>
</g>
<!-- github.com/hasansino/goapp/tests -->
<g id="node28" class="node">
<title>github.com/hasansino/goapp/tests</title>
<g id="a_node28"><a xlink:href="https://pkg.go.dev/github.com/hasansino/goapp/tests" xlink:title="github.com/hasansino/goapp/tests\l0 / 0B\l" target="_graphviz">
<polygon fill="none" stroke="#910772" stroke-width="2" stroke-opacity="0.698039" points="216,-1062.48 36,-1062.48 36,-1026.48 216,-1026.48 216,-1062.48"/>
<text text-anchor="start" x="44" y="-1046.23" font-family="Times,serif" font-size="10.00">github.com/hasansino/goapp/tests</text>
<text text-anchor="start" x="44" y="-1034.98" font-family="Times,serif" font-size="10.00">0 / 0B</text>
</a>
</g>
</g>
</g>
</svg>
