<?xml version="1.0" encoding="UTF-8" standalone="no"?>
<!DOCTYPE svg PUBLIC "-//W3C//DTD SVG 1.1//EN"
 "http://www.w3.org/Graphics/SVG/1.1/DTD/svg11.dtd">
<!-- Generated by graphviz version 12.2.1 (20241206.2353)
 -->
<!-- Title: G Pages: 1 -->
<svg width="1772pt" height="1267pt"
 viewBox="0.00 0.00 1772.00 1267.00" xmlns="http://www.w3.org/2000/svg" xmlns:xlink="http://www.w3.org/1999/xlink">
<g id="graph0" class="graph" transform="scale(1 1) rotate(0) translate(4 1263)">
<title>G</title>
<polygon fill="white" stroke="none" points="-4,4 -4,-1263 1768,-1263 1768,4 -4,4"/>
<!-- github.com/hasansino/goapp/cmd/app -->
<g id="node1" class="node">
<title>github.com/hasansino/goapp/cmd/app</title>
<g id="a_node1"><a xlink:href="https://pkg.go.dev/github.com/hasansino/goapp/cmd/app" xlink:title="github.com/hasansino/goapp/cmd/app\l695 / 22.1KB\l" target="_graphviz">
<polygon fill="none" stroke="#915007" stroke-width="2" stroke-opacity="0.698039" points="216,-587 36,-587 36,-551 216,-551 216,-587"/>
<text text-anchor="start" x="44" y="-570.75" font-family="Times,serif" font-size="10.00">github.com/hasansino/goapp/cmd/app</text>
<text text-anchor="start" x="44" y="-559.5" font-family="Times,serif" font-size="10.00">695 / 22.1KB</text>
</a>
</g>
</g>
<!-- github.com/hasansino/goapp/internal/api/grpc -->
<g id="node3" class="node">
<title>github.com/hasansino/goapp/internal/api/grpc</title>
<g id="a_node3"><a xlink:href="https://pkg.go.dev/github.com/hasansino/goapp/internal/api/grpc" xlink:title="github.com/hasansino/goapp/internal/api/grpc\l145 / 4.4KB\l" target="_graphviz">
<polygon fill="none" stroke="#729107" stroke-width="2" stroke-opacity="0.698039" points="1404,-874 1188,-874 1188,-838 1404,-838 1404,-874"/>
<text text-anchor="start" x="1196" y="-857.75" font-family="Times,serif" font-size="10.00">github.com/hasansino/goapp/internal/api/grpc</text>
<text text-anchor="start" x="1196" y="-846.5" font-family="Times,serif" font-size="10.00">145 / 4.4KB</text>
</a>
</g>
</g>
<!-- github.com/hasansino/goapp/cmd/app&#45;&gt;github.com/hasansino/goapp/internal/api/grpc -->
<g id="edge1" class="edge">
<title>github.com/hasansino/goapp/cmd/app:e&#45;&gt;github.com/hasansino/goapp/internal/api/grpc</title>
<path fill="none" stroke="#729107" stroke-width="2" stroke-opacity="0.698039" d="M217,-569C351.61,-569 245.3,-765.53 360,-836 427.62,-877.55 937.39,-867.29 1174.45,-860.13"/>
<polygon fill="#729107" fill-opacity="0.698039" stroke="#729107" stroke-width="2" stroke-opacity="0.698039" points="1174.34,-863.64 1184.23,-859.83 1174.13,-856.64 1174.34,-863.64"/>
</g>
<!-- github.com/hasansino/goapp/internal/api/http -->
<g id="node5" class="node">
<title>github.com/hasansino/goapp/internal/api/http</title>
<g id="a_node5"><a xlink:href="https://pkg.go.dev/github.com/hasansino/goapp/internal/api/http" xlink:title="github.com/hasansino/goapp/internal/api/http\l281 / 7.7KB\l" target="_graphviz">
<polygon fill="none" stroke="#076b91" stroke-width="2" stroke-opacity="0.698039" points="1008,-836 792,-836 792,-800 1008,-800 1008,-836"/>
<text text-anchor="start" x="800" y="-819.75" font-family="Times,serif" font-size="10.00">github.com/hasansino/goapp/internal/api/http</text>
<text text-anchor="start" x="800" y="-808.5" font-family="Times,serif" font-size="10.00">281 / 7.7KB</text>
</a>
</g>
</g>
<!-- github.com/hasansino/goapp/cmd/app&#45;&gt;github.com/hasansino/goapp/internal/api/http -->
<g id="edge2" class="edge">
<title>github.com/hasansino/goapp/cmd/app:e&#45;&gt;github.com/hasansino/goapp/internal/api/http</title>
<path fill="none" stroke="#076b91" stroke-width="2" stroke-opacity="0.698039" d="M217,-569C340.4,-569 253.22,-745.14 360,-807 428.47,-846.67 641.66,-838.73 778.5,-828.77"/>
<polygon fill="#076b91" fill-opacity="0.698039" stroke="#076b91" stroke-width="2" stroke-opacity="0.698039" points="778.36,-832.29 788.07,-828.06 777.84,-825.31 778.36,-832.29"/>
</g>
<!-- github.com/hasansino/goapp/internal/cache -->
<g id="node8" class="node">
<title>github.com/hasansino/goapp/internal/cache</title>
<g id="a_node8"><a xlink:href="https://pkg.go.dev/github.com/hasansino/goapp/internal/cache" xlink:title="github.com/hasansino/goapp/internal/cache\l29 / 0.8KB\l" target="_graphviz">
<polygon fill="none" stroke="#079156" stroke-width="2" stroke-opacity="0.698039" points="612,-506 396,-506 396,-470 612,-470 612,-506"/>
<text text-anchor="start" x="404" y="-489.75" font-family="Times,serif" font-size="10.00">github.com/hasansino/goapp/internal/cache</text>
<text text-anchor="start" x="404" y="-478.5" font-family="Times,serif" font-size="10.00">29 / 0.8KB</text>
</a>
</g>
</g>
<!-- github.com/hasansino/goapp/cmd/app&#45;&gt;github.com/hasansino/goapp/internal/cache -->
<g id="edge3" class="edge">
<title>github.com/hasansino/goapp/cmd/app:e&#45;&gt;github.com/hasansino/goapp/internal/cache</title>
<path fill="none" stroke="#079156" stroke-width="2" stroke-opacity="0.698039" d="M217,-569C284.94,-569 294.6,-533.37 360,-515 367.33,-512.94 374.92,-510.99 382.61,-509.15"/>
<polygon fill="#079156" fill-opacity="0.698039" stroke="#079156" stroke-width="2" stroke-opacity="0.698039" points="383.25,-512.6 392.21,-506.95 381.68,-505.78 383.25,-512.6"/>
</g>
<!-- github.com/hasansino/goapp/internal/cache/memcached -->
<g id="node9" class="node">
<title>github.com/hasansino/goapp/internal/cache/memcached</title>
<g id="a_node9"><a xlink:href="https://pkg.go.dev/github.com/hasansino/goapp/internal/cache/memcached" xlink:title="github.com/hasansino/goapp/internal/cache/memcached\l58 / 1.5KB\l" target="_graphviz">
<polygon fill="none" stroke="#079111" stroke-width="2" stroke-opacity="0.698039" points="630,-452 378,-452 378,-416 630,-416 630,-452"/>
<text text-anchor="start" x="386" y="-435.75" font-family="Times,serif" font-size="10.00">github.com/hasansino/goapp/internal/cache/memcached</text>
<text text-anchor="start" x="386" y="-424.5" font-family="Times,serif" font-size="10.00">58 / 1.5KB</text>
</a>
</g>
</g>
<!-- github.com/hasansino/goapp/cmd/app&#45;&gt;github.com/hasansino/goapp/internal/cache/memcached -->
<g id="edge4" class="edge">
<title>github.com/hasansino/goapp/cmd/app:e&#45;&gt;github.com/hasansino/goapp/internal/cache/memcached</title>
<path fill="none" stroke="#079111" stroke-width="2" stroke-opacity="0.698039" d="M217,-569C296.64,-569 287.17,-493.24 360,-461 362.98,-459.68 366.03,-458.42 369.12,-457.23"/>
<polygon fill="#079111" fill-opacity="0.698039" stroke="#079111" stroke-width="2" stroke-opacity="0.698039" points="370.16,-460.58 378.41,-453.93 367.82,-453.98 370.16,-460.58"/>
</g>
<!-- github.com/hasansino/goapp/internal/cache/miniredis -->
<g id="node10" class="node">
<title>github.com/hasansino/goapp/internal/cache/miniredis</title>
<g id="a_node10"><a xlink:href="https://pkg.go.dev/github.com/hasansino/goapp/internal/cache/miniredis" xlink:title="github.com/hasansino/goapp/internal/cache/miniredis\l34 / 0.7KB\l" target="_graphviz">
<polygon fill="none" stroke="#912007" stroke-width="2" stroke-opacity="0.698039" points="630,-398 378,-398 378,-362 630,-362 630,-398"/>
<text text-anchor="start" x="386" y="-381.75" font-family="Times,serif" font-size="10.00">github.com/hasansino/goapp/internal/cache/miniredis</text>
<text text-anchor="start" x="386" y="-370.5" font-family="Times,serif" font-size="10.00">34 / 0.7KB</text>
</a>
</g>
</g>
<!-- github.com/hasansino/goapp/cmd/app&#45;&gt;github.com/hasansino/goapp/internal/cache/miniredis -->
<g id="edge5" class="edge">
<title>github.com/hasansino/goapp/cmd/app:e&#45;&gt;github.com/hasansino/goapp/internal/cache/miniredis</title>
<path fill="none" stroke="#912007" stroke-width="2" stroke-opacity="0.698039" d="M217,-569C313.04,-569 276.52,-454.48 360,-407 361.8,-405.98 363.63,-404.99 365.49,-404.04"/>
<polygon fill="#912007" fill-opacity="0.698039" stroke="#912007" stroke-width="2" stroke-opacity="0.698039" points="366.86,-407.26 374.48,-399.91 363.94,-400.9 366.86,-407.26"/>
</g>
<!-- github.com/hasansino/goapp/internal/cache/redis -->
<g id="node11" class="node">
<title>github.com/hasansino/goapp/internal/cache/redis</title>
<g id="a_node11"><a xlink:href="https://pkg.go.dev/github.com/hasansino/goapp/internal/cache/redis" xlink:title="github.com/hasansino/goapp/internal/cache/redis\l144 / 3.6KB\l" target="_graphviz">
<polygon fill="none" stroke="#550791" stroke-width="2" stroke-opacity="0.698039" points="630,-344 378,-344 378,-308 630,-308 630,-344"/>
<text text-anchor="start" x="386" y="-327.75" font-family="Times,serif" font-size="10.00">github.com/hasansino/goapp/internal/cache/redis</text>
<text text-anchor="start" x="386" y="-316.5" font-family="Times,serif" font-size="10.00">144 / 3.6KB</text>
</a>
</g>
</g>
<!-- github.com/hasansino/goapp/cmd/app&#45;&gt;github.com/hasansino/goapp/internal/cache/redis -->
<g id="edge6" class="edge">
<title>github.com/hasansino/goapp/cmd/app:e&#45;&gt;github.com/hasansino/goapp/internal/cache/redis</title>
<path fill="none" stroke="#550791" stroke-width="2" stroke-opacity="0.698039" d="M217,-569C332.13,-569 264.1,-416.7 360,-353 361.84,-351.77 363.73,-350.6 365.65,-349.48"/>
<polygon fill="#550791" fill-opacity="0.698039" stroke="#550791" stroke-width="2" stroke-opacity="0.698039" points="367.07,-352.68 374.34,-344.97 363.85,-346.47 367.07,-352.68"/>
</g>
<!-- github.com/hasansino/goapp/internal/config -->
<g id="node12" class="node">
<title>github.com/hasansino/goapp/internal/config</title>
<g id="a_node12"><a xlink:href="https://pkg.go.dev/github.com/hasansino/goapp/internal/config" xlink:title="github.com/hasansino/goapp/internal/config\l300 / 13.8KB\l" target="_graphviz">
<polygon fill="none" stroke="#760791" stroke-width="2" stroke-opacity="0.698039" points="612,-1074 396,-1074 396,-1038 612,-1038 612,-1074"/>
<text text-anchor="start" x="404" y="-1057.75" font-family="Times,serif" font-size="10.00">github.com/hasansino/goapp/internal/config</text>
<text text-anchor="start" x="404" y="-1046.5" font-family="Times,serif" font-size="10.00">300 / 13.8KB</text>
</a>
</g>
</g>
<!-- github.com/hasansino/goapp/cmd/app&#45;&gt;github.com/hasansino/goapp/internal/config -->
<g id="edge7" class="edge">
<title>github.com/hasansino/goapp/cmd/app:e&#45;&gt;github.com/hasansino/goapp/internal/config</title>
<path fill="none" stroke="#760791" stroke-width="2" stroke-opacity="0.698039" d="M217,-569C431.1,-569 200.18,-886.54 360,-1029 366.94,-1035.18 374.83,-1040.15 383.27,-1044.11"/>
<polygon fill="#760791" fill-opacity="0.698039" stroke="#760791" stroke-width="2" stroke-opacity="0.698039" points="381.68,-1047.25 392.26,-1047.78 384.33,-1040.77 381.68,-1047.25"/>
</g>
<!-- github.com/hasansino/goapp/internal/database/pgsql -->
<g id="node13" class="node">
<title>github.com/hasansino/goapp/internal/database/pgsql</title>
<g id="a_node13"><a xlink:href="https://pkg.go.dev/github.com/hasansino/goapp/internal/database/pgsql" xlink:title="github.com/hasansino/goapp/internal/database/pgsql\l115 / 2.5KB\l" target="_graphviz">
<polygon fill="none" stroke="#130791" stroke-width="2" stroke-opacity="0.698039" points="630,-290 378,-290 378,-254 630,-254 630,-290"/>
<text text-anchor="start" x="386" y="-273.75" font-family="Times,serif" font-size="10.00">github.com/hasansino/goapp/internal/database/pgsql</text>
<text text-anchor="start" x="386" y="-262.5" font-family="Times,serif" font-size="10.00">115 / 2.5KB</text>
</a>
</g>
</g>
<!-- github.com/hasansino/goapp/cmd/app&#45;&gt;github.com/hasansino/goapp/internal/database/pgsql -->
<g id="edge8" class="edge">
<title>github.com/hasansino/goapp/cmd/app:e&#45;&gt;github.com/hasansino/goapp/internal/database/pgsql</title>
<path fill="none" stroke="#130791" stroke-width="2" stroke-opacity="0.698039" d="M217,-569C352.79,-569 250.69,-379.57 360,-299 361.94,-297.57 363.93,-296.21 365.97,-294.92"/>
<polygon fill="#130791" fill-opacity="0.698039" stroke="#130791" stroke-width="2" stroke-opacity="0.698039" points="367.6,-298.02 374.63,-290.09 364.19,-291.9 367.6,-298.02"/>
</g>
<!-- github.com/hasansino/goapp/internal/database/pgsql/migrate -->
<g id="node14" class="node">
<title>github.com/hasansino/goapp/internal/database/pgsql/migrate</title>
<g id="a_node14"><a xlink:href="https://pkg.go.dev/github.com/hasansino/goapp/internal/database/pgsql/migrate" xlink:title="github.com/hasansino/goapp/internal/database/pgsql/migrate\l28 / 561B\l" target="_graphviz">
<polygon fill="none" stroke="#07916d" stroke-width="2" stroke-opacity="0.698039" points="648,-236 360,-236 360,-200 648,-200 648,-236"/>
<text text-anchor="start" x="368" y="-219.75" font-family="Times,serif" font-size="10.00">github.com/hasansino/goapp/internal/database/pgsql/migrate</text>
<text text-anchor="start" x="368" y="-208.5" font-family="Times,serif" font-size="10.00">28 / 561B</text>
</a>
</g>
</g>
<!-- github.com/hasansino/goapp/cmd/app&#45;&gt;github.com/hasansino/goapp/internal/database/pgsql/migrate -->
<g id="edge9" class="edge">
<title>github.com/hasansino/goapp/cmd/app:e&#45;&gt;github.com/hasansino/goapp/internal/database/pgsql/migrate</title>
<path fill="none" stroke="#07916d" stroke-width="2" stroke-opacity="0.698039" d="M217,-569C374.4,-569 236.71,-342.85 360,-245 360.47,-244.63 360.94,-244.26 361.42,-243.89"/>
<polygon fill="#07916d" fill-opacity="0.698039" stroke="#07916d" stroke-width="2" stroke-opacity="0.698039" points="363.01,-247.04 369.39,-238.58 359.13,-241.21 363.01,-247.04"/>
</g>
<!-- github.com/hasansino/goapp/internal/database/sqlite -->
<g id="node15" class="node">
<title>github.com/hasansino/goapp/internal/database/sqlite</title>
<g id="a_node15"><a xlink:href="https://pkg.go.dev/github.com/hasansino/goapp/internal/database/sqlite" xlink:title="github.com/hasansino/goapp/internal/database/sqlite\l112 / 2.6KB\l" target="_graphviz">
<polygon fill="none" stroke="#071591" stroke-width="2" stroke-opacity="0.698039" points="1026,-167 774,-167 774,-131 1026,-131 1026,-167"/>
<text text-anchor="start" x="782" y="-150.75" font-family="Times,serif" font-size="10.00">github.com/hasansino/goapp/internal/database/sqlite</text>
<text text-anchor="start" x="782" y="-139.5" font-family="Times,serif" font-size="10.00">112 / 2.6KB</text>
</a>
</g>
</g>
<!-- github.com/hasansino/goapp/cmd/app&#45;&gt;github.com/hasansino/goapp/internal/database/sqlite -->
<g id="edge10" class="edge">
<title>github.com/hasansino/goapp/cmd/app:e&#45;&gt;github.com/hasansino/goapp/internal/database/sqlite</title>
<path fill="none" stroke="#071591" stroke-width="2" stroke-opacity="0.698039" d="M217,-569C396.62,-569 216.3,-298.76 360,-191 391.35,-167.49 611.19,-156.78 760.25,-152.17"/>
<polygon fill="#071591" fill-opacity="0.698039" stroke="#071591" stroke-width="2" stroke-opacity="0.698039" points="760.18,-155.68 770.07,-151.88 759.97,-148.68 760.18,-155.68"/>
</g>
<!-- github.com/hasansino/goapp/internal/database/sqlite/migrate -->
<g id="node16" class="node">
<title>github.com/hasansino/goapp/internal/database/sqlite/migrate</title>
<g id="a_node16"><a xlink:href="https://pkg.go.dev/github.com/hasansino/goapp/internal/database/sqlite/migrate" xlink:title="github.com/hasansino/goapp/internal/database/sqlite/migrate\l29 / 0.7KB\l" target="_graphviz">
<polygon fill="none" stroke="#072391" stroke-width="2" stroke-opacity="0.698039" points="648,-144 360,-144 360,-108 648,-108 648,-144"/>
<text text-anchor="start" x="368" y="-127.75" font-family="Times,serif" font-size="10.00">github.com/hasansino/goapp/internal/database/sqlite/migrate</text>
<text text-anchor="start" x="368" y="-116.5" font-family="Times,serif" font-size="10.00">29 / 0.7KB</text>
</a>
</g>
</g>
<!-- github.com/hasansino/goapp/cmd/app&#45;&gt;github.com/hasansino/goapp/internal/database/sqlite/migrate -->
<g id="edge11" class="edge">
<title>github.com/hasansino/goapp/cmd/app:e&#45;&gt;github.com/hasansino/goapp/internal/database/sqlite/migrate</title>
<path fill="none" stroke="#072391" stroke-width="2" stroke-opacity="0.698039" d="M217,-569C410.41,-569 215.63,-286.7 360,-158 362.49,-155.78 365.11,-153.7 367.82,-151.76"/>
<polygon fill="#072391" fill-opacity="0.698039" stroke="#072391" stroke-width="2" stroke-opacity="0.698039" points="369.57,-154.79 376.19,-146.52 365.85,-148.86 369.57,-154.79"/>
</g>
<!-- github.com/hasansino/goapp/internal/events -->
<g id="node17" class="node">
<title>github.com/hasansino/goapp/internal/events</title>
<g id="a_node17"><a xlink:href="https://pkg.go.dev/github.com/hasansino/goapp/internal/events" xlink:title="github.com/hasansino/goapp/internal/events\l32 / 0.9KB\l" target="_graphviz">
<polygon fill="none" stroke="#889107" stroke-width="2" stroke-opacity="0.698039" points="612,-90 396,-90 396,-54 612,-54 612,-90"/>
<text text-anchor="start" x="404" y="-73.75" font-family="Times,serif" font-size="10.00">github.com/hasansino/goapp/internal/events</text>
<text text-anchor="start" x="404" y="-62.5" font-family="Times,serif" font-size="10.00">32 / 0.9KB</text>
</a>
</g>
</g>
<!-- github.com/hasansino/goapp/cmd/app&#45;&gt;github.com/hasansino/goapp/internal/events -->
<g id="edge12" class="edge">
<title>github.com/hasansino/goapp/cmd/app:e&#45;&gt;github.com/hasansino/goapp/internal/events</title>
<path fill="none" stroke="#889107" stroke-width="2" stroke-opacity="0.698039" d="M217,-569C435.34,-569 197.45,-244.77 360,-99 366.92,-92.8 374.8,-87.82 383.23,-83.84"/>
<polygon fill="#889107" fill-opacity="0.698039" stroke="#889107" stroke-width="2" stroke-opacity="0.698039" points="384.28,-87.19 392.21,-80.16 381.63,-80.71 384.28,-87.19"/>
</g>
<!-- github.com/hasansino/goapp/internal/events/gochan -->
<g id="node18" class="node">
<title>github.com/hasansino/goapp/internal/events/gochan</title>
<g id="a_node18"><a xlink:href="https://pkg.go.dev/github.com/hasansino/goapp/internal/events/gochan" xlink:title="github.com/hasansino/goapp/internal/events/gochan\l68 / 1.4KB\l" target="_graphviz">
<polygon fill="none" stroke="#918e07" stroke-width="2" stroke-opacity="0.698039" points="630,-36 378,-36 378,0 630,0 630,-36"/>
<text text-anchor="start" x="386" y="-19.75" font-family="Times,serif" font-size="10.00">github.com/hasansino/goapp/internal/events/gochan</text>
<text text-anchor="start" x="386" y="-8.5" font-family="Times,serif" font-size="10.00">68 / 1.4KB</text>
</a>
</g>
</g>
<!-- github.com/hasansino/goapp/cmd/app&#45;&gt;github.com/hasansino/goapp/internal/events/gochan -->
<g id="edge13" class="edge">
<title>github.com/hasansino/goapp/cmd/app:e&#45;&gt;github.com/hasansino/goapp/internal/events/gochan</title>
<path fill="none" stroke="#918e07" stroke-width="2" stroke-opacity="0.698039" d="M217,-569C458.41,-569 182.63,-208.75 360,-45 362.03,-43.13 364.15,-41.36 366.34,-39.7"/>
<polygon fill="#918e07" fill-opacity="0.698039" stroke="#918e07" stroke-width="2" stroke-opacity="0.698039" points="368.12,-42.72 374.59,-34.33 364.3,-36.86 368.12,-42.72"/>
</g>
<!-- github.com/hasansino/goapp/internal/events/kafka -->
<g id="node19" class="node">
<title>github.com/hasansino/goapp/internal/events/kafka</title>
<g id="a_node19"><a xlink:href="https://pkg.go.dev/github.com/hasansino/goapp/internal/events/kafka" xlink:title="github.com/hasansino/goapp/internal/events/kafka\l107 / 2.6KB\l" target="_graphviz">
<polygon fill="none" stroke="#071291" stroke-width="2" stroke-opacity="0.698039" points="630,-1020 378,-1020 378,-984 630,-984 630,-1020"/>
<text text-anchor="start" x="386" y="-1003.75" font-family="Times,serif" font-size="10.00">github.com/hasansino/goapp/internal/events/kafka</text>
<text text-anchor="start" x="386" y="-992.5" font-family="Times,serif" font-size="10.00">107 / 2.6KB</text>
</a>
</g>
</g>
<!-- github.com/hasansino/goapp/cmd/app&#45;&gt;github.com/hasansino/goapp/internal/events/kafka -->
<g id="edge14" class="edge">
<title>github.com/hasansino/goapp/cmd/app:e&#45;&gt;github.com/hasansino/goapp/internal/events/kafka</title>
<path fill="none" stroke="#071291" stroke-width="2" stroke-opacity="0.698039" d="M217,-569C408.31,-569 214.84,-850.39 360,-975 361.98,-976.7 364.03,-978.3 366.14,-979.82"/>
<polygon fill="#071291" fill-opacity="0.698039" stroke="#071291" stroke-width="2" stroke-opacity="0.698039" points="364.28,-982.78 374.62,-985.09 367.98,-976.84 364.28,-982.78"/>
</g>
<!-- github.com/hasansino/goapp/internal/events/nats -->
<g id="node20" class="node">
<title>github.com/hasansino/goapp/internal/events/nats</title>
<g id="a_node20"><a xlink:href="https://pkg.go.dev/github.com/hasansino/goapp/internal/events/nats" xlink:title="github.com/hasansino/goapp/internal/events/nats\l194 / 6.4KB\l" target="_graphviz">
<polygon fill="none" stroke="#699107" stroke-width="2" stroke-opacity="0.698039" points="630,-966 378,-966 378,-930 630,-930 630,-966"/>
<text text-anchor="start" x="386" y="-949.75" font-family="Times,serif" font-size="10.00">github.com/hasansino/goapp/internal/events/nats</text>
<text text-anchor="start" x="386" y="-938.5" font-family="Times,serif" font-size="10.00">194 / 6.4KB</text>
</a>
</g>
</g>
<!-- github.com/hasansino/goapp/cmd/app&#45;&gt;github.com/hasansino/goapp/internal/events/nats -->
<g id="edge15" class="edge">
<title>github.com/hasansino/goapp/cmd/app:e&#45;&gt;github.com/hasansino/goapp/internal/events/nats</title>
<path fill="none" stroke="#699107" stroke-width="2" stroke-opacity="0.698039" d="M217,-569C383.8,-569 232.42,-808.54 360,-916 362.73,-918.3 365.6,-920.45 368.57,-922.45"/>
<polygon fill="#699107" fill-opacity="0.698039" stroke="#699107" stroke-width="2" stroke-opacity="0.698039" points="366.77,-925.45 377.16,-927.53 370.33,-919.42 366.77,-925.45"/>
</g>
<!-- github.com/hasansino/goapp/internal/events/rabbitmq -->
<g id="node21" class="node">
<title>github.com/hasansino/goapp/internal/events/rabbitmq</title>
<g id="a_node21"><a xlink:href="https://pkg.go.dev/github.com/hasansino/goapp/internal/events/rabbitmq" xlink:title="github.com/hasansino/goapp/internal/events/rabbitmq\l94 / 2.1KB\l" target="_graphviz">
<polygon fill="none" stroke="#072891" stroke-width="2" stroke-opacity="0.698039" points="630,-614 378,-614 378,-578 630,-578 630,-614"/>
<text text-anchor="start" x="386" y="-597.75" font-family="Times,serif" font-size="10.00">github.com/hasansino/goapp/internal/events/rabbitmq</text>
<text text-anchor="start" x="386" y="-586.5" font-family="Times,serif" font-size="10.00">94 / 2.1KB</text>
</a>
</g>
</g>
<!-- github.com/hasansino/goapp/cmd/app&#45;&gt;github.com/hasansino/goapp/internal/events/rabbitmq -->
<g id="edge16" class="edge">
<title>github.com/hasansino/goapp/cmd/app:e&#45;&gt;github.com/hasansino/goapp/internal/events/rabbitmq</title>
<path fill="none" stroke="#072891" stroke-width="2" stroke-opacity="0.698039" d="M217,-569C265.2,-569 317.76,-572.85 364.53,-577.64"/>
<polygon fill="#072891" fill-opacity="0.698039" stroke="#072891" stroke-width="2" stroke-opacity="0.698039" points="363.92,-581.09 374.23,-578.66 364.65,-574.13 363.92,-581.09"/>
</g>
<!-- github.com/hasansino/goapp/internal/example -->
<g id="node22" class="node">
<title>github.com/hasansino/goapp/internal/example</title>
<g id="a_node22"><a xlink:href="https://pkg.go.dev/github.com/hasansino/goapp/internal/example" xlink:title="github.com/hasansino/goapp/internal/example\l183 / 5.3KB\l" target="_graphviz">
<polygon fill="none" stroke="#91072a" stroke-width="2" stroke-opacity="0.698039" points="1008,-744 792,-744 792,-708 1008,-708 1008,-744"/>
<text text-anchor="start" x="800" y="-727.75" font-family="Times,serif" font-size="10.00">github.com/hasansino/goapp/internal/example</text>
<text text-anchor="start" x="800" y="-716.5" font-family="Times,serif" font-size="10.00">183 / 5.3KB</text>
</a>
</g>
</g>
<!-- github.com/hasansino/goapp/cmd/app&#45;&gt;github.com/hasansino/goapp/internal/example -->
<g id="edge17" class="edge">
<title>github.com/hasansino/goapp/cmd/app:e&#45;&gt;github.com/hasansino/goapp/internal/example</title>
<path fill="none" stroke="#91072a" stroke-width="2" stroke-opacity="0.698039" d="M217,-569C307.83,-569 276.63,-678.95 360,-715 432.35,-746.28 642.84,-741.16 778.36,-734"/>
<polygon fill="#91072a" fill-opacity="0.698039" stroke="#91072a" stroke-width="2" stroke-opacity="0.698039" points="778.42,-737.5 788.22,-733.46 778.04,-730.51 778.42,-737.5"/>
</g>
<!-- github.com/hasansino/goapp/internal/example/provider/grpc -->
<g id="node26" class="node">
<title>github.com/hasansino/goapp/internal/example/provider/grpc</title>
<g id="a_node26"><a xlink:href="https://pkg.go.dev/github.com/hasansino/goapp/internal/example/provider/grpc" xlink:title="github.com/hasansino/goapp/internal/example/provider/grpc\l835 / 30.1KB\l" target="_graphviz">
<polygon fill="none" stroke="#300791" stroke-width="2" stroke-opacity="0.698039" points="648,-706 360,-706 360,-670 648,-670 648,-706"/>
<text text-anchor="start" x="368" y="-689.75" font-family="Times,serif" font-size="10.00">github.com/hasansino/goapp/internal/example/provider/grpc</text>
<text text-anchor="start" x="368" y="-678.5" font-family="Times,serif" font-size="10.00">835 / 30.1KB</text>
</a>
</g>
</g>
<!-- github.com/hasansino/goapp/cmd/app&#45;&gt;github.com/hasansino/goapp/internal/example/provider/grpc -->
<g id="edge18" class="edge">
<title>github.com/hasansino/goapp/cmd/app:e&#45;&gt;github.com/hasansino/goapp/internal/example/provider/grpc</title>
<path fill="none" stroke="#300791" stroke-width="2" stroke-opacity="0.698039" d="M217,-569C291.39,-569 291.01,-628.17 360,-656 368.69,-659.51 377.85,-662.67 387.15,-665.51"/>
<polygon fill="#300791" fill-opacity="0.698039" stroke="#300791" stroke-width="2" stroke-opacity="0.698039" points="385.95,-668.8 396.53,-668.22 387.9,-662.08 385.95,-668.8"/>
</g>
<!-- github.com/hasansino/goapp/internal/example/provider/http -->
<g id="node27" class="node">
<title>github.com/hasansino/goapp/internal/example/provider/http</title>
<g id="a_node27"><a xlink:href="https://pkg.go.dev/github.com/hasansino/goapp/internal/example/provider/http" xlink:title="github.com/hasansino/goapp/internal/example/provider/http\l125 / 3.8KB\l" target="_graphviz">
<polygon fill="none" stroke="#915907" stroke-width="2" stroke-opacity="0.698039" points="648,-798 360,-798 360,-762 648,-762 648,-798"/>
<text text-anchor="start" x="368" y="-781.75" font-family="Times,serif" font-size="10.00">github.com/hasansino/goapp/internal/example/provider/http</text>
<text text-anchor="start" x="368" y="-770.5" font-family="Times,serif" font-size="10.00">125 / 3.8KB</text>
</a>
</g>
</g>
<!-- github.com/hasansino/goapp/cmd/app&#45;&gt;github.com/hasansino/goapp/internal/example/provider/http -->
<g id="edge19" class="edge">
<title>github.com/hasansino/goapp/cmd/app:e&#45;&gt;github.com/hasansino/goapp/internal/example/provider/http</title>
<path fill="none" stroke="#915907" stroke-width="2" stroke-opacity="0.698039" d="M217,-569C318.83,-569 273.64,-694.05 360,-748 364.61,-750.88 369.45,-753.5 374.45,-755.89"/>
<polygon fill="#915907" fill-opacity="0.698039" stroke="#915907" stroke-width="2" stroke-opacity="0.698039" points="373.01,-759.08 383.58,-759.85 375.79,-752.66 373.01,-759.08"/>
</g>
<!-- github.com/hasansino/goapp/internal/example/repository/gorm -->
<g id="node28" class="node">
<title>github.com/hasansino/goapp/internal/example/repository/gorm</title>
<g id="a_node28"><a xlink:href="https://pkg.go.dev/github.com/hasansino/goapp/internal/example/repository/gorm" xlink:title="github.com/hasansino/goapp/internal/example/repository/gorm\l114 / 3.4KB\l" target="_graphviz">
<polygon fill="none" stroke="#078c91" stroke-width="2" stroke-opacity="0.698039" points="1044,-652 756,-652 756,-616 1044,-616 1044,-652"/>
<text text-anchor="start" x="764" y="-635.75" font-family="Times,serif" font-size="10.00">github.com/hasansino/goapp/internal/example/repository/gorm</text>
<text text-anchor="start" x="764" y="-624.5" font-family="Times,serif" font-size="10.00">114 / 3.4KB</text>
</a>
</g>
</g>
<!-- github.com/hasansino/goapp/cmd/app&#45;&gt;github.com/hasansino/goapp/internal/example/repository/gorm -->
<g id="edge20" class="edge">
<title>github.com/hasansino/goapp/cmd/app:e&#45;&gt;github.com/hasansino/goapp/internal/example/repository/gorm</title>
<path fill="none" stroke="#078c91" stroke-width="2" stroke-opacity="0.698039" d="M217,-569C284.94,-569 293.3,-610.12 360,-623 487.07,-647.54 634.12,-648.78 742.5,-644.73"/>
<polygon fill="#078c91" fill-opacity="0.698039" stroke="#078c91" stroke-width="2" stroke-opacity="0.698039" points="742.31,-648.24 752.16,-644.34 742.03,-641.24 742.31,-648.24"/>
</g>
<!-- github.com/hasansino/goapp/internal/metrics -->
<g id="node29" class="node">
<title>github.com/hasansino/goapp/internal/metrics</title>
<g id="a_node29"><a xlink:href="https://pkg.go.dev/github.com/hasansino/goapp/internal/metrics" xlink:title="github.com/hasansino/goapp/internal/metrics\l93 / 2.5KB\l" target="_graphviz">
<polygon fill="none" stroke="#916207" stroke-width="2" stroke-opacity="0.698039" points="1764,-874 1548,-874 1548,-838 1764,-838 1764,-874"/>
<text text-anchor="start" x="1556" y="-857.75" font-family="Times,serif" font-size="10.00">github.com/hasansino/goapp/internal/metrics</text>
<text text-anchor="start" x="1556" y="-846.5" font-family="Times,serif" font-size="10.00">93 / 2.5KB</text>
</a>
</g>
</g>
<!-- github.com/hasansino/goapp/cmd/app&#45;&gt;github.com/hasansino/goapp/internal/metrics -->
<g id="edge21" class="edge">
<title>github.com/hasansino/goapp/cmd/app:e&#45;&gt;github.com/hasansino/goapp/internal/metrics</title>
<path fill="none" stroke="#916207" stroke-width="2" stroke-opacity="0.698039" d="M217,-569C363.1,-569 237.63,-785.17 360,-865 460.52,-930.58 1320.22,-890.49 1440,-883 1470.77,-881.08 1503.88,-877.62 1534.67,-873.8"/>
<polygon fill="#916207" fill-opacity="0.698039" stroke="#916207" stroke-width="2" stroke-opacity="0.698039" points="1534.77,-877.32 1544.25,-872.59 1533.89,-870.37 1534.77,-877.32"/>
</g>
<!-- github.com/hasansino/goapp/internal/metrics/providers/http -->
<g id="node30" class="node">
<title>github.com/hasansino/goapp/internal/metrics/providers/http</title>
<g id="a_node30"><a xlink:href="https://pkg.go.dev/github.com/hasansino/goapp/internal/metrics/providers/http" xlink:title="github.com/hasansino/goapp/internal/metrics/providers/http\l17 / 406B\l" target="_graphviz">
<polygon fill="none" stroke="#2a0791" stroke-width="2" stroke-opacity="0.698039" points="648,-560 360,-560 360,-524 648,-524 648,-560"/>
<text text-anchor="start" x="368" y="-543.75" font-family="Times,serif" font-size="10.00">github.com/hasansino/goapp/internal/metrics/providers/http</text>
<text text-anchor="start" x="368" y="-532.5" font-family="Times,serif" font-size="10.00">17 / 406B</text>
</a>
</g>
</g>
<!-- github.com/hasansino/goapp/cmd/app&#45;&gt;github.com/hasansino/goapp/internal/metrics/providers/http -->
<g id="edge22" class="edge">
<title>github.com/hasansino/goapp/cmd/app:e&#45;&gt;github.com/hasansino/goapp/internal/metrics/providers/http</title>
<path fill="none" stroke="#2a0791" stroke-width="2" stroke-opacity="0.698039" d="M217,-569C259.03,-569 304.39,-566.07 346.32,-562.15"/>
<polygon fill="#2a0791" fill-opacity="0.698039" stroke="#2a0791" stroke-width="2" stroke-opacity="0.698039" points="346.59,-565.64 356.21,-561.19 345.92,-558.67 346.59,-565.64"/>
</g>
<!-- github.com/hasansino/goapp/cmd/cfg2env -->
<g id="node2" class="node">
<title>github.com/hasansino/goapp/cmd/cfg2env</title>
<g id="a_node2"><a xlink:href="https://pkg.go.dev/github.com/hasansino/goapp/cmd/cfg2env" xlink:title="github.com/hasansino/goapp/cmd/cfg2env\l24 / 622B\l" target="_graphviz">
<polygon fill="none" stroke="#6e9107" stroke-width="2" stroke-opacity="0.698039" points="234,-1097 18,-1097 18,-1061 234,-1061 234,-1097"/>
<text text-anchor="start" x="26" y="-1080.75" font-family="Times,serif" font-size="10.00">github.com/hasansino/goapp/cmd/cfg2env</text>
<text text-anchor="start" x="26" y="-1069.5" font-family="Times,serif" font-size="10.00">24 / 622B</text>
</a>
</g>
</g>
<!-- github.com/hasansino/goapp/cmd/cfg2env&#45;&gt;github.com/hasansino/goapp/internal/config -->
<g id="edge23" class="edge">
<title>github.com/hasansino/goapp/cmd/cfg2env:e&#45;&gt;github.com/hasansino/goapp/internal/config</title>
<path fill="none" stroke="#760791" stroke-width="2" stroke-opacity="0.698039" d="M235,-1079C283.34,-1079 336.41,-1075.24 382.48,-1070.76"/>
<polygon fill="#760791" fill-opacity="0.698039" stroke="#760791" stroke-width="2" stroke-opacity="0.698039" points="382.66,-1074.26 392.26,-1069.78 381.96,-1067.29 382.66,-1074.26"/>
</g>
<!-- github.com/hasansino/goapp/internal/tools -->
<g id="node31" class="node">
<title>github.com/hasansino/goapp/internal/tools</title>
<g id="a_node31"><a xlink:href="https://pkg.go.dev/github.com/hasansino/goapp/internal/tools" xlink:title="github.com/hasansino/goapp/internal/tools\l73 / 1.8KB\l" target="_graphviz">
<polygon fill="none" stroke="#079168" stroke-width="2" stroke-opacity="0.698039" points="1008,-1074 792,-1074 792,-1038 1008,-1038 1008,-1074"/>
<text text-anchor="start" x="800" y="-1057.75" font-family="Times,serif" font-size="10.00">github.com/hasansino/goapp/internal/tools</text>
<text text-anchor="start" x="800" y="-1046.5" font-family="Times,serif" font-size="10.00">73 / 1.8KB</text>
</a>
</g>
</g>
<!-- github.com/hasansino/goapp/cmd/cfg2env&#45;&gt;github.com/hasansino/goapp/internal/tools -->
<g id="edge24" class="edge">
<title>github.com/hasansino/goapp/cmd/cfg2env:e&#45;&gt;github.com/hasansino/goapp/internal/tools</title>
<path fill="none" stroke="#079168" stroke-width="2" stroke-opacity="0.698039" d="M235,-1079C290.58,-1079 304.42,-1082.11 360,-1083 487.98,-1085.05 520.18,-1089.85 648,-1083 690.54,-1080.72 736.97,-1076.28 778.2,-1071.64"/>
<polygon fill="#079168" fill-opacity="0.698039" stroke="#079168" stroke-width="2" stroke-opacity="0.698039" points="778.56,-1075.13 788.09,-1070.51 777.76,-1068.17 778.56,-1075.13"/>
</g>
<!-- github.com/hasansino/goapp/internal/api/grpc&#45;&gt;github.com/hasansino/goapp/internal/metrics -->
<g id="edge25" class="edge">
<title>github.com/hasansino/goapp/internal/api/grpc:e&#45;&gt;github.com/hasansino/goapp/internal/metrics</title>
<path fill="none" stroke="#916207" stroke-width="2" stroke-opacity="0.698039" d="M1405,-856C1447.09,-856 1493.18,-856 1534.18,-856"/>
<polygon fill="#916207" fill-opacity="0.698039" stroke="#916207" stroke-width="2" stroke-opacity="0.698039" points="1533.99,-859.5 1543.99,-856 1533.99,-852.5 1533.99,-859.5"/>
</g>
<!-- github.com/hasansino/goapp/internal/api/grpc/mocks -->
<g id="node4" class="node">
<title>github.com/hasansino/goapp/internal/api/grpc/mocks</title>
<g id="a_node4"><a xlink:href="https://pkg.go.dev/github.com/hasansino/goapp/internal/api/grpc/mocks" xlink:title="github.com/hasansino/goapp/internal/api/grpc/mocks\l44 / 1.5KB\l" target="_graphviz">
<polygon fill="none" stroke="#320791" stroke-width="2" stroke-opacity="0.698039" points="252,-1151 0,-1151 0,-1115 252,-1115 252,-1151"/>
<text text-anchor="start" x="8" y="-1134.75" font-family="Times,serif" font-size="10.00">github.com/hasansino/goapp/internal/api/grpc/mocks</text>
<text text-anchor="start" x="8" y="-1123.5" font-family="Times,serif" font-size="10.00">44 / 1.5KB</text>
</a>
</g>
</g>
<!-- github.com/hasansino/goapp/internal/api/http/middleware -->
<g id="node6" class="node">
<title>github.com/hasansino/goapp/internal/api/http/middleware</title>
<g id="a_node6"><a xlink:href="https://pkg.go.dev/github.com/hasansino/goapp/internal/api/http/middleware" xlink:title="github.com/hasansino/goapp/internal/api/http/middleware\l68 / 1.9KB\l" target="_graphviz">
<polygon fill="none" stroke="#910757" stroke-width="2" stroke-opacity="0.698039" points="1440,-820 1152,-820 1152,-784 1440,-784 1440,-820"/>
<text text-anchor="start" x="1160" y="-803.75" font-family="Times,serif" font-size="10.00">github.com/hasansino/goapp/internal/api/http/middleware</text>
<text text-anchor="start" x="1160" y="-792.5" font-family="Times,serif" font-size="10.00">68 / 1.9KB</text>
</a>
</g>
</g>
<!-- github.com/hasansino/goapp/internal/api/http&#45;&gt;github.com/hasansino/goapp/internal/api/http/middleware -->
<g id="edge26" class="edge">
<title>github.com/hasansino/goapp/internal/api/http:e&#45;&gt;github.com/hasansino/goapp/internal/api/http/middleware</title>
<path fill="none" stroke="#910757" stroke-width="2" stroke-opacity="0.698039" d="M1009,-818C1050.91,-818 1096.23,-816.27 1138.16,-813.94"/>
<polygon fill="#910757" fill-opacity="0.698039" stroke="#910757" stroke-width="2" stroke-opacity="0.698039" points="1138.25,-817.44 1148.04,-813.37 1137.85,-810.45 1138.25,-817.44"/>
</g>
<!-- github.com/hasansino/goapp/internal/api/http/middleware&#45;&gt;github.com/hasansino/goapp/internal/metrics -->
<g id="edge27" class="edge">
<title>github.com/hasansino/goapp/internal/api/http/middleware:e&#45;&gt;github.com/hasansino/goapp/internal/metrics</title>
<path fill="none" stroke="#916207" stroke-width="2" stroke-opacity="0.698039" d="M1440,-802C1493.94,-802 1553.27,-818.19 1595.91,-832.84"/>
<polygon fill="#916207" fill-opacity="0.698039" stroke="#916207" stroke-width="2" stroke-opacity="0.698039" points="1594.58,-836.08 1605.18,-836.11 1596.91,-829.48 1594.58,-836.08"/>
</g>
<!-- github.com/hasansino/goapp/internal/api/http/mocks -->
<g id="node7" class="node">
<title>github.com/hasansino/goapp/internal/api/http/mocks</title>
<g id="a_node7"><a xlink:href="https://pkg.go.dev/github.com/hasansino/goapp/internal/api/http/mocks" xlink:title="github.com/hasansino/goapp/internal/api/http/mocks\l44 / 1.5KB\l" target="_graphviz">
<polygon fill="none" stroke="#359107" stroke-width="2" stroke-opacity="0.698039" points="252,-1205 0,-1205 0,-1169 252,-1169 252,-1205"/>
<text text-anchor="start" x="8" y="-1188.75" font-family="Times,serif" font-size="10.00">github.com/hasansino/goapp/internal/api/http/mocks</text>
<text text-anchor="start" x="8" y="-1177.5" font-family="Times,serif" font-size="10.00">44 / 1.5KB</text>
</a>
</g>
</g>
<!-- github.com/hasansino/goapp/internal/config&#45;&gt;github.com/hasansino/goapp/internal/tools -->
<g id="edge28" class="edge">
<title>github.com/hasansino/goapp/internal/config:e&#45;&gt;github.com/hasansino/goapp/internal/tools</title>
<path fill="none" stroke="#079168" stroke-width="2" stroke-opacity="0.698039" d="M613,-1056C667.24,-1056 727.27,-1056 778.27,-1056"/>
<polygon fill="#079168" fill-opacity="0.698039" stroke="#079168" stroke-width="2" stroke-opacity="0.698039" points="778,-1059.5 788,-1056 778,-1052.5 778,-1059.5"/>
</g>
<!-- github.com/hasansino/goapp/internal/database/sqlite/migrate&#45;&gt;github.com/hasansino/goapp/internal/database/sqlite -->
<g id="edge29" class="edge">
<title>github.com/hasansino/goapp/internal/database/sqlite/migrate:e&#45;&gt;github.com/hasansino/goapp/internal/database/sqlite</title>
<path fill="none" stroke="#071591" stroke-width="2" stroke-opacity="0.698039" d="M648,-126C684.5,-126 723.86,-128.44 760.35,-131.73"/>
<polygon fill="#071591" fill-opacity="0.698039" stroke="#071591" stroke-width="2" stroke-opacity="0.698039" points="759.83,-135.2 770.11,-132.65 760.48,-128.23 759.83,-135.2"/>
</g>
<!-- github.com/hasansino/goapp/internal/example/domain -->
<g id="node23" class="node">
<title>github.com/hasansino/goapp/internal/example/domain</title>
<g id="a_node23"><a xlink:href="https://pkg.go.dev/github.com/hasansino/goapp/internal/example/domain" xlink:title="github.com/hasansino/goapp/internal/example/domain\l33 / 0.8KB\l" target="_graphviz">
<polygon fill="none" stroke="#91074b" stroke-width="2" stroke-opacity="0.698039" points="1422,-725 1170,-725 1170,-689 1422,-689 1422,-725"/>
<text text-anchor="start" x="1178" y="-708.75" font-family="Times,serif" font-size="10.00">github.com/hasansino/goapp/internal/example/domain</text>
<text text-anchor="start" x="1178" y="-697.5" font-family="Times,serif" font-size="10.00">33 / 0.8KB</text>
</a>
</g>
</g>
<!-- github.com/hasansino/goapp/internal/example&#45;&gt;github.com/hasansino/goapp/internal/example/domain -->
<g id="edge30" class="edge">
<title>github.com/hasansino/goapp/internal/example:e&#45;&gt;github.com/hasansino/goapp/internal/example/domain</title>
<path fill="none" stroke="#91074b" stroke-width="2" stroke-opacity="0.698039" d="M1009,-726C1057.09,-726 1109.63,-723.29 1156.4,-719.92"/>
<polygon fill="#91074b" fill-opacity="0.698039" stroke="#91074b" stroke-width="2" stroke-opacity="0.698039" points="1156.38,-723.43 1166.1,-719.2 1155.87,-716.45 1156.38,-723.43"/>
</g>
<!-- github.com/hasansino/goapp/internal/example/models -->
<g id="node25" class="node">
<title>github.com/hasansino/goapp/internal/example/models</title>
<g id="a_node25"><a xlink:href="https://pkg.go.dev/github.com/hasansino/goapp/internal/example/models" xlink:title="github.com/hasansino/goapp/internal/example/models\l15 / 365B\l" target="_graphviz">
<polygon fill="none" stroke="#072891" stroke-width="2" stroke-opacity="0.698039" points="1422,-652 1170,-652 1170,-616 1422,-616 1422,-652"/>
<text text-anchor="start" x="1178" y="-635.75" font-family="Times,serif" font-size="10.00">github.com/hasansino/goapp/internal/example/models</text>
<text text-anchor="start" x="1178" y="-624.5" font-family="Times,serif" font-size="10.00">15 / 365B</text>
</a>
</g>
</g>
<!-- github.com/hasansino/goapp/internal/example&#45;&gt;github.com/hasansino/goapp/internal/example/models -->
<g id="edge31" class="edge">
<title>github.com/hasansino/goapp/internal/example:e&#45;&gt;github.com/hasansino/goapp/internal/example/models</title>
<path fill="none" stroke="#072891" stroke-width="2" stroke-opacity="0.698039" d="M1009,-726C1009,-726 1139.24,-684.1 1223.94,-656.86"/>
<polygon fill="#072891" fill-opacity="0.698039" stroke="#072891" stroke-width="2" stroke-opacity="0.698039" points="1224.76,-660.27 1233.21,-653.88 1222.61,-653.61 1224.76,-660.27"/>
</g>
<!-- github.com/hasansino/goapp/internal/example/mocks -->
<g id="node24" class="node">
<title>github.com/hasansino/goapp/internal/example/mocks</title>
<g id="a_node24"><a xlink:href="https://pkg.go.dev/github.com/hasansino/goapp/internal/example/mocks" xlink:title="github.com/hasansino/goapp/internal/example/mocks\l236 / 8.7KB\l" target="_graphviz">
<polygon fill="none" stroke="#072391" stroke-width="2" stroke-opacity="0.698039" points="1026,-598 774,-598 774,-562 1026,-562 1026,-598"/>
<text text-anchor="start" x="782" y="-581.75" font-family="Times,serif" font-size="10.00">github.com/hasansino/goapp/internal/example/mocks</text>
<text text-anchor="start" x="782" y="-570.5" font-family="Times,serif" font-size="10.00">236 / 8.7KB</text>
</a>
</g>
</g>
<!-- github.com/hasansino/goapp/internal/example/mocks&#45;&gt;github.com/hasansino/goapp/internal/example/models -->
<g id="edge32" class="edge">
<title>github.com/hasansino/goapp/internal/example/mocks:e&#45;&gt;github.com/hasansino/goapp/internal/example/models</title>
<path fill="none" stroke="#072891" stroke-width="2" stroke-opacity="0.698039" d="M1027,-580C1094.56,-580 1169.84,-596.69 1223.37,-611.52"/>
<polygon fill="#072891" fill-opacity="0.698039" stroke="#072891" stroke-width="2" stroke-opacity="0.698039" points="1222.33,-614.86 1232.9,-614.21 1224.23,-608.12 1222.33,-614.86"/>
</g>
<!-- github.com/hasansino/goapp/internal/example/provider/grpc&#45;&gt;github.com/hasansino/goapp/internal/example -->
<g id="edge33" class="edge">
<title>github.com/hasansino/goapp/internal/example/provider/grpc:e&#45;&gt;github.com/hasansino/goapp/internal/example</title>
<path fill="none" stroke="#91072a" stroke-width="2" stroke-opacity="0.698039" d="M648,-688C699.68,-688 756.67,-695.97 803.27,-704.61"/>
<polygon fill="#91072a" fill-opacity="0.698039" stroke="#91072a" stroke-width="2" stroke-opacity="0.698039" points="802.36,-708 812.84,-706.43 803.67,-701.13 802.36,-708"/>
</g>
<!-- github.com/hasansino/goapp/internal/example/provider/grpc&#45;&gt;github.com/hasansino/goapp/internal/example/domain -->
<g id="edge34" class="edge">
<title>github.com/hasansino/goapp/internal/example/provider/grpc:e&#45;&gt;github.com/hasansino/goapp/internal/example/domain</title>
<path fill="none" stroke="#91074b" stroke-width="2" stroke-opacity="0.698039" d="M648,-688C823.36,-688 1025.35,-695.06 1156.34,-700.57"/>
<polygon fill="#91074b" fill-opacity="0.698039" stroke="#91074b" stroke-width="2" stroke-opacity="0.698039" points="1156.02,-704.06 1166.16,-700.99 1156.32,-697.07 1156.02,-704.06"/>
</g>
<!-- github.com/hasansino/goapp/internal/example/provider/http&#45;&gt;github.com/hasansino/goapp/internal/api/http -->
<g id="edge35" class="edge">
<title>github.com/hasansino/goapp/internal/example/provider/http:e&#45;&gt;github.com/hasansino/goapp/internal/api/http</title>
<path fill="none" stroke="#076b91" stroke-width="2" stroke-opacity="0.698039" d="M648,-780C699.68,-780 756.67,-787.97 803.27,-796.61"/>
<polygon fill="#076b91" fill-opacity="0.698039" stroke="#076b91" stroke-width="2" stroke-opacity="0.698039" points="802.36,-800 812.84,-798.43 803.67,-793.13 802.36,-800"/>
</g>
<!-- github.com/hasansino/goapp/internal/example/provider/http&#45;&gt;github.com/hasansino/goapp/internal/example -->
<g id="edge36" class="edge">
<title>github.com/hasansino/goapp/internal/example/provider/http:e&#45;&gt;github.com/hasansino/goapp/internal/example</title>
<path fill="none" stroke="#91072a" stroke-width="2" stroke-opacity="0.698039" d="M648,-780C652.03,-780 731.74,-762.74 800.27,-747.73"/>
<polygon fill="#91072a" fill-opacity="0.698039" stroke="#91072a" stroke-width="2" stroke-opacity="0.698039" points="800.93,-751.17 809.95,-745.61 799.44,-744.33 800.93,-751.17"/>
</g>
<!-- github.com/hasansino/goapp/internal/example/provider/http&#45;&gt;github.com/hasansino/goapp/internal/example/domain -->
<g id="edge37" class="edge">
<title>github.com/hasansino/goapp/internal/example/provider/http:e&#45;&gt;github.com/hasansino/goapp/internal/example/domain</title>
<path fill="none" stroke="#91074b" stroke-width="2" stroke-opacity="0.698039" d="M648,-780C824.41,-780 868.96,-774.94 1044,-753 1093.22,-746.83 1147.4,-737.26 1192.79,-728.44"/>
<polygon fill="#91074b" fill-opacity="0.698039" stroke="#91074b" stroke-width="2" stroke-opacity="0.698039" points="1193.24,-731.92 1202.38,-726.56 1191.89,-725.05 1193.24,-731.92"/>
</g>
<!-- github.com/hasansino/goapp/internal/example/provider/http&#45;&gt;github.com/hasansino/goapp/internal/tools -->
<g id="edge38" class="edge">
<title>github.com/hasansino/goapp/internal/example/provider/http:e&#45;&gt;github.com/hasansino/goapp/internal/tools</title>
<path fill="none" stroke="#079168" stroke-width="2" stroke-opacity="0.698039" d="M648,-780C713.95,-780 833.83,-954.68 880.09,-1026.11"/>
<polygon fill="#079168" fill-opacity="0.698039" stroke="#079168" stroke-width="2" stroke-opacity="0.698039" points="877.12,-1027.96 885.47,-1034.48 883.01,-1024.18 877.12,-1027.96"/>
</g>
<!-- github.com/hasansino/goapp/internal/example/repository/gorm&#45;&gt;github.com/hasansino/goapp/internal/example/domain -->
<g id="edge39" class="edge">
<title>github.com/hasansino/goapp/internal/example/repository/gorm:e&#45;&gt;github.com/hasansino/goapp/internal/example/domain</title>
<path fill="none" stroke="#91074b" stroke-width="2" stroke-opacity="0.698039" d="M1044,-634C1062.21,-634 1156.26,-662.7 1223.89,-684.11"/>
<polygon fill="#91074b" fill-opacity="0.698039" stroke="#91074b" stroke-width="2" stroke-opacity="0.698039" points="1222.71,-687.4 1233.3,-687.09 1224.82,-680.73 1222.71,-687.4"/>
</g>
<!-- github.com/hasansino/goapp/internal/example/repository/gorm&#45;&gt;github.com/hasansino/goapp/internal/example/models -->
<g id="edge40" class="edge">
<title>github.com/hasansino/goapp/internal/example/repository/gorm:e&#45;&gt;github.com/hasansino/goapp/internal/example/models</title>
<path fill="none" stroke="#072891" stroke-width="2" stroke-opacity="0.698039" d="M1044,-634C1080.45,-634 1119.87,-634 1156.44,-634"/>
<polygon fill="#072891" fill-opacity="0.698039" stroke="#072891" stroke-width="2" stroke-opacity="0.698039" points="1156.21,-637.5 1166.21,-634 1156.21,-630.5 1156.21,-637.5"/>
</g>
<!-- github.com/hasansino/goapp/tests -->
<g id="node32" class="node">
<title>github.com/hasansino/goapp/tests</title>
<g id="a_node32"><a xlink:href="https://pkg.go.dev/github.com/hasansino/goapp/tests" xlink:title="github.com/hasansino/goapp/tests\l0 / 0B\l" target="_graphviz">
<polygon fill="none" stroke="#910772" stroke-width="2" stroke-opacity="0.698039" points="216,-1259 36,-1259 36,-1223 216,-1223 216,-1259"/>
<text text-anchor="start" x="44" y="-1242.75" font-family="Times,serif" font-size="10.00">github.com/hasansino/goapp/tests</text>
<text text-anchor="start" x="44" y="-1231.5" font-family="Times,serif" font-size="10.00">0 / 0B</text>
</a>
</g>
</g>
</g>
</svg>
