<?xml version="1.0" encoding="UTF-8" standalone="no"?>
<!DOCTYPE svg PUBLIC "-//W3C//DTD SVG 1.1//EN"
 "http://www.w3.org/Graphics/SVG/1.1/DTD/svg11.dtd">
<!-- Generated by graphviz version 12.2.1 (20241206.2353)
 -->
<!-- Title: G Pages: 1 -->
<svg width="1340pt" height="704pt"
 viewBox="0.00 0.00 1340.00 704.00" xmlns="http://www.w3.org/2000/svg" xmlns:xlink="http://www.w3.org/1999/xlink">
<g id="graph0" class="graph" transform="scale(1 1) rotate(0) translate(4 700)">
<title>G</title>
<polygon fill="white" stroke="none" points="-4,4 -4,-700 1336,-700 1336,4 -4,4"/>
<!-- github.com/hasansino/goapp/cmd/app -->
<g id="node1" class="node">
<title>github.com/hasansino/goapp/cmd/app</title>
<g id="a_node1"><a xlink:href="https://pkg.go.dev/github.com/hasansino/goapp/cmd/app" xlink:title="github.com/hasansino/goapp/cmd/app\l338 / 10.0KB\l" target="_graphviz">
<polygon fill="none" stroke="#915007" stroke-width="2" stroke-opacity="0.698039" points="198,-327 18,-327 18,-291 198,-291 198,-327"/>
<text text-anchor="start" x="26" y="-310.75" font-family="Times,serif" font-size="10.00">github.com/hasansino/goapp/cmd/app</text>
<text text-anchor="start" x="26" y="-299.5" font-family="Times,serif" font-size="10.00">338 / 10.0KB</text>
</a>
</g>
</g>
<!-- github.com/hasansino/goapp/internal/api -->
<g id="node3" class="node">
<title>github.com/hasansino/goapp/internal/api</title>
<g id="a_node3"><a xlink:href="https://pkg.go.dev/github.com/hasansino/goapp/internal/api" xlink:title="github.com/hasansino/goapp/internal/api\l202 / 5.4KB\l" target="_graphviz">
<polygon fill="none" stroke="#917c07" stroke-width="2" stroke-opacity="0.698039" points="954,-442 738,-442 738,-406 954,-406 954,-442"/>
<text text-anchor="start" x="746" y="-425.75" font-family="Times,serif" font-size="10.00">github.com/hasansino/goapp/internal/api</text>
<text text-anchor="start" x="746" y="-414.5" font-family="Times,serif" font-size="10.00">202 / 5.4KB</text>
</a>
</g>
</g>
<!-- github.com/hasansino/goapp/cmd/app&#45;&gt;github.com/hasansino/goapp/internal/api -->
<g id="edge1" class="edge">
<title>github.com/hasansino/goapp/cmd/app:e&#45;&gt;github.com/hasansino/goapp/internal/api</title>
<path fill="none" stroke="#917c07" stroke-width="2" stroke-opacity="0.698039" d="M199,-309C271.27,-309 256.3,-387.71 324,-413 454.33,-461.69 616.09,-455.85 724.49,-443.43"/>
<polygon fill="#917c07" fill-opacity="0.698039" stroke="#917c07" stroke-width="2" stroke-opacity="0.698039" points="724.58,-446.94 734.1,-442.28 723.76,-439.99 724.58,-446.94"/>
</g>
<!-- github.com/hasansino/goapp/internal/config -->
<g id="node5" class="node">
<title>github.com/hasansino/goapp/internal/config</title>
<g id="a_node5"><a xlink:href="https://pkg.go.dev/github.com/hasansino/goapp/internal/config" xlink:title="github.com/hasansino/goapp/internal/config\l130 / 4.6KB\l" target="_graphviz">
<polygon fill="none" stroke="#760791" stroke-width="2" stroke-opacity="0.698039" points="576,-588 360,-588 360,-552 576,-552 576,-588"/>
<text text-anchor="start" x="368" y="-571.75" font-family="Times,serif" font-size="10.00">github.com/hasansino/goapp/internal/config</text>
<text text-anchor="start" x="368" y="-560.5" font-family="Times,serif" font-size="10.00">130 / 4.6KB</text>
</a>
</g>
</g>
<!-- github.com/hasansino/goapp/cmd/app&#45;&gt;github.com/hasansino/goapp/internal/config -->
<g id="edge2" class="edge">
<title>github.com/hasansino/goapp/cmd/app:e&#45;&gt;github.com/hasansino/goapp/internal/config</title>
<path fill="none" stroke="#760791" stroke-width="2" stroke-opacity="0.698039" d="M199,-309C316.91,-309 228.96,-473.21 324,-543 331.05,-548.17 338.8,-552.44 346.94,-555.96"/>
<polygon fill="#760791" fill-opacity="0.698039" stroke="#760791" stroke-width="2" stroke-opacity="0.698039" points="345.69,-559.23 356.28,-559.51 348.18,-552.68 345.69,-559.23"/>
</g>
<!-- github.com/hasansino/goapp/internal/database/pgsql -->
<g id="node6" class="node">
<title>github.com/hasansino/goapp/internal/database/pgsql</title>
<g id="a_node6"><a xlink:href="https://pkg.go.dev/github.com/hasansino/goapp/internal/database/pgsql" xlink:title="github.com/hasansino/goapp/internal/database/pgsql\l97 / 2.2KB\l" target="_graphviz">
<polygon fill="none" stroke="#130791" stroke-width="2" stroke-opacity="0.698039" points="972,-36 720,-36 720,0 972,0 972,-36"/>
<text text-anchor="start" x="728" y="-19.75" font-family="Times,serif" font-size="10.00">github.com/hasansino/goapp/internal/database/pgsql</text>
<text text-anchor="start" x="728" y="-8.5" font-family="Times,serif" font-size="10.00">97 / 2.2KB</text>
</a>
</g>
</g>
<!-- github.com/hasansino/goapp/cmd/app&#45;&gt;github.com/hasansino/goapp/internal/database/pgsql -->
<g id="edge3" class="edge">
<title>github.com/hasansino/goapp/cmd/app:e&#45;&gt;github.com/hasansino/goapp/internal/database/pgsql</title>
<path fill="none" stroke="#130791" stroke-width="2" stroke-opacity="0.698039" d="M199,-309C299.34,-309 238.86,-174.09 324,-121 433.55,-52.68 485.51,-108.86 612,-83 667.03,-71.75 728.15,-54.52 773.98,-40.62"/>
<polygon fill="#130791" fill-opacity="0.698039" stroke="#130791" stroke-width="2" stroke-opacity="0.698039" points="774.75,-44.04 783.29,-37.77 772.7,-37.35 774.75,-44.04"/>
</g>
<!-- github.com/hasansino/goapp/internal/database/pgsql/migrate -->
<g id="node7" class="node">
<title>github.com/hasansino/goapp/internal/database/pgsql/migrate</title>
<g id="a_node7"><a xlink:href="https://pkg.go.dev/github.com/hasansino/goapp/internal/database/pgsql/migrate" xlink:title="github.com/hasansino/goapp/internal/database/pgsql/migrate\l27 / 534B\l" target="_graphviz">
<polygon fill="none" stroke="#07916d" stroke-width="2" stroke-opacity="0.698039" points="612,-74 324,-74 324,-38 612,-38 612,-74"/>
<text text-anchor="start" x="332" y="-57.75" font-family="Times,serif" font-size="10.00">github.com/hasansino/goapp/internal/database/pgsql/migrate</text>
<text text-anchor="start" x="332" y="-46.5" font-family="Times,serif" font-size="10.00">27 / 534B</text>
</a>
</g>
</g>
<!-- github.com/hasansino/goapp/cmd/app&#45;&gt;github.com/hasansino/goapp/internal/database/pgsql/migrate -->
<g id="edge4" class="edge">
<title>github.com/hasansino/goapp/cmd/app:e&#45;&gt;github.com/hasansino/goapp/internal/database/pgsql/migrate</title>
<path fill="none" stroke="#07916d" stroke-width="2" stroke-opacity="0.698039" d="M199,-309C311.85,-309 233.36,-155.22 324,-88 327.42,-85.46 331.01,-83.12 334.73,-80.96"/>
<polygon fill="#07916d" fill-opacity="0.698039" stroke="#07916d" stroke-width="2" stroke-opacity="0.698039" points="336.27,-84.1 343.53,-76.39 333.04,-77.89 336.27,-84.1"/>
</g>
<!-- github.com/hasansino/goapp/internal/database/sqlite -->
<g id="node8" class="node">
<title>github.com/hasansino/goapp/internal/database/sqlite</title>
<g id="a_node8"><a xlink:href="https://pkg.go.dev/github.com/hasansino/goapp/internal/database/sqlite" xlink:title="github.com/hasansino/goapp/internal/database/sqlite\l58 / 1.4KB\l" target="_graphviz">
<polygon fill="none" stroke="#071591" stroke-width="2" stroke-opacity="0.698039" points="972,-220 720,-220 720,-184 972,-184 972,-220"/>
<text text-anchor="start" x="728" y="-203.75" font-family="Times,serif" font-size="10.00">github.com/hasansino/goapp/internal/database/sqlite</text>
<text text-anchor="start" x="728" y="-192.5" font-family="Times,serif" font-size="10.00">58 / 1.4KB</text>
</a>
</g>
</g>
<!-- github.com/hasansino/goapp/cmd/app&#45;&gt;github.com/hasansino/goapp/internal/database/sqlite -->
<g id="edge5" class="edge">
<title>github.com/hasansino/goapp/cmd/app:e&#45;&gt;github.com/hasansino/goapp/internal/database/sqlite</title>
<path fill="none" stroke="#071591" stroke-width="2" stroke-opacity="0.698039" d="M199,-309C269.05,-309 257.91,-236.23 324,-213 447.85,-169.47 598.68,-171.75 706.12,-181.9"/>
<polygon fill="#071591" fill-opacity="0.698039" stroke="#071591" stroke-width="2" stroke-opacity="0.698039" points="705.69,-185.37 715.99,-182.87 706.38,-178.4 705.69,-185.37"/>
</g>
<!-- github.com/hasansino/goapp/internal/database/sqlite/migrate -->
<g id="node9" class="node">
<title>github.com/hasansino/goapp/internal/database/sqlite/migrate</title>
<g id="a_node9"><a xlink:href="https://pkg.go.dev/github.com/hasansino/goapp/internal/database/sqlite/migrate" xlink:title="github.com/hasansino/goapp/internal/database/sqlite/migrate\l27 / 539B\l" target="_graphviz">
<polygon fill="none" stroke="#072391" stroke-width="2" stroke-opacity="0.698039" points="612,-534 324,-534 324,-498 612,-498 612,-534"/>
<text text-anchor="start" x="332" y="-517.75" font-family="Times,serif" font-size="10.00">github.com/hasansino/goapp/internal/database/sqlite/migrate</text>
<text text-anchor="start" x="332" y="-506.5" font-family="Times,serif" font-size="10.00">27 / 539B</text>
</a>
</g>
</g>
<!-- github.com/hasansino/goapp/cmd/app&#45;&gt;github.com/hasansino/goapp/internal/database/sqlite/migrate -->
<g id="edge6" class="edge">
<title>github.com/hasansino/goapp/cmd/app:e&#45;&gt;github.com/hasansino/goapp/internal/database/sqlite/migrate</title>
<path fill="none" stroke="#072391" stroke-width="2" stroke-opacity="0.698039" d="M199,-309C294.58,-309 244.33,-431.19 324,-484 328.23,-486.81 332.67,-489.37 337.27,-491.71"/>
<polygon fill="#072391" fill-opacity="0.698039" stroke="#072391" stroke-width="2" stroke-opacity="0.698039" points="335.66,-494.82 346.21,-495.82 338.59,-488.46 335.66,-494.82"/>
</g>
<!-- github.com/hasansino/goapp/internal/example -->
<g id="node10" class="node">
<title>github.com/hasansino/goapp/internal/example</title>
<g id="a_node10"><a xlink:href="https://pkg.go.dev/github.com/hasansino/goapp/internal/example" xlink:title="github.com/hasansino/goapp/internal/example\l83 / 2.4KB\l" target="_graphviz">
<polygon fill="none" stroke="#91072a" stroke-width="2" stroke-opacity="0.698039" points="954,-350 738,-350 738,-314 954,-314 954,-350"/>
<text text-anchor="start" x="746" y="-333.75" font-family="Times,serif" font-size="10.00">github.com/hasansino/goapp/internal/example</text>
<text text-anchor="start" x="746" y="-322.5" font-family="Times,serif" font-size="10.00">83 / 2.4KB</text>
</a>
</g>
</g>
<!-- github.com/hasansino/goapp/cmd/app&#45;&gt;github.com/hasansino/goapp/internal/example -->
<g id="edge7" class="edge">
<title>github.com/hasansino/goapp/cmd/app:e&#45;&gt;github.com/hasansino/goapp/internal/example</title>
<path fill="none" stroke="#91072a" stroke-width="2" stroke-opacity="0.698039" d="M199,-309C254.58,-309 268.42,-305.89 324,-305 451.98,-302.95 484.21,-297.62 612,-305 648.64,-307.12 688.36,-311.09 724.45,-315.35"/>
<polygon fill="#91072a" fill-opacity="0.698039" stroke="#91072a" stroke-width="2" stroke-opacity="0.698039" points="723.7,-318.78 734.05,-316.5 724.54,-311.83 723.7,-318.78"/>
</g>
<!-- github.com/hasansino/goapp/internal/example/provider/http -->
<g id="node14" class="node">
<title>github.com/hasansino/goapp/internal/example/provider/http</title>
<g id="a_node14"><a xlink:href="https://pkg.go.dev/github.com/hasansino/goapp/internal/example/provider/http" xlink:title="github.com/hasansino/goapp/internal/example/provider/http\l85 / 2.4KB\l" target="_graphviz">
<polygon fill="none" stroke="#915907" stroke-width="2" stroke-opacity="0.698039" points="612,-404 324,-404 324,-368 612,-368 612,-404"/>
<text text-anchor="start" x="332" y="-387.75" font-family="Times,serif" font-size="10.00">github.com/hasansino/goapp/internal/example/provider/http</text>
<text text-anchor="start" x="332" y="-376.5" font-family="Times,serif" font-size="10.00">85 / 2.4KB</text>
</a>
</g>
</g>
<!-- github.com/hasansino/goapp/cmd/app&#45;&gt;github.com/hasansino/goapp/internal/example/provider/http -->
<g id="edge8" class="edge">
<title>github.com/hasansino/goapp/cmd/app:e&#45;&gt;github.com/hasansino/goapp/internal/example/provider/http</title>
<path fill="none" stroke="#915907" stroke-width="2" stroke-opacity="0.698039" d="M199,-309C258.84,-309 266.55,-342.26 324,-359 330.13,-360.79 336.45,-362.49 342.86,-364.09"/>
<polygon fill="#915907" fill-opacity="0.698039" stroke="#915907" stroke-width="2" stroke-opacity="0.698039" points="341.77,-367.43 352.31,-366.37 343.41,-360.63 341.77,-367.43"/>
</g>
<!-- github.com/hasansino/goapp/internal/example/repository/pgsql -->
<g id="node15" class="node">
<title>github.com/hasansino/goapp/internal/example/repository/pgsql</title>
<g id="a_node15"><a xlink:href="https://pkg.go.dev/github.com/hasansino/goapp/internal/example/repository/pgsql" xlink:title="github.com/hasansino/goapp/internal/example/repository/pgsql\l92 / 2.5KB\l" target="_graphviz">
<polygon fill="none" stroke="#073a91" stroke-width="2" stroke-opacity="0.698039" points="612,-166 324,-166 324,-130 612,-130 612,-166"/>
<text text-anchor="start" x="332" y="-149.75" font-family="Times,serif" font-size="10.00">github.com/hasansino/goapp/internal/example/repository/pgsql</text>
<text text-anchor="start" x="332" y="-138.5" font-family="Times,serif" font-size="10.00">92 / 2.5KB</text>
</a>
</g>
</g>
<!-- github.com/hasansino/goapp/cmd/app&#45;&gt;github.com/hasansino/goapp/internal/example/repository/pgsql -->
<g id="edge9" class="edge">
<title>github.com/hasansino/goapp/cmd/app:e&#45;&gt;github.com/hasansino/goapp/internal/example/repository/pgsql</title>
<path fill="none" stroke="#073a91" stroke-width="2" stroke-opacity="0.698039" d="M199,-309C278.83,-309 254.35,-219.02 324,-180 329.61,-176.86 335.51,-174.02 341.59,-171.46"/>
<polygon fill="#073a91" fill-opacity="0.698039" stroke="#073a91" stroke-width="2" stroke-opacity="0.698039" points="342.56,-174.84 350.63,-167.97 340.04,-168.31 342.56,-174.84"/>
</g>
<!-- github.com/hasansino/goapp/internal/example/repository/sqlite -->
<g id="node16" class="node">
<title>github.com/hasansino/goapp/internal/example/repository/sqlite</title>
<g id="a_node16"><a xlink:href="https://pkg.go.dev/github.com/hasansino/goapp/internal/example/repository/sqlite" xlink:title="github.com/hasansino/goapp/internal/example/repository/sqlite\l92 / 2.5KB\l" target="_graphviz">
<polygon fill="none" stroke="#918207" stroke-width="2" stroke-opacity="0.698039" points="612,-258 324,-258 324,-222 612,-222 612,-258"/>
<text text-anchor="start" x="332" y="-241.75" font-family="Times,serif" font-size="10.00">github.com/hasansino/goapp/internal/example/repository/sqlite</text>
<text text-anchor="start" x="332" y="-230.5" font-family="Times,serif" font-size="10.00">92 / 2.5KB</text>
</a>
</g>
</g>
<!-- github.com/hasansino/goapp/cmd/app&#45;&gt;github.com/hasansino/goapp/internal/example/repository/sqlite -->
<g id="edge10" class="edge">
<title>github.com/hasansino/goapp/cmd/app:e&#45;&gt;github.com/hasansino/goapp/internal/example/repository/sqlite</title>
<path fill="none" stroke="#918207" stroke-width="2" stroke-opacity="0.698039" d="M199,-309C256.94,-309 267.92,-286.56 324,-272 337.29,-268.55 351.34,-265.13 365.22,-261.89"/>
<polygon fill="#918207" fill-opacity="0.698039" stroke="#918207" stroke-width="2" stroke-opacity="0.698039" points="366,-265.3 374.96,-259.64 364.43,-258.48 366,-265.3"/>
</g>
<!-- github.com/hasansino/goapp/internal/metrics -->
<g id="node17" class="node">
<title>github.com/hasansino/goapp/internal/metrics</title>
<g id="a_node17"><a xlink:href="https://pkg.go.dev/github.com/hasansino/goapp/internal/metrics" xlink:title="github.com/hasansino/goapp/internal/metrics\l90 / 2.4KB\l" target="_graphviz">
<polygon fill="none" stroke="#916207" stroke-width="2" stroke-opacity="0.698039" points="1314,-465 1098,-465 1098,-429 1314,-429 1314,-465"/>
<text text-anchor="start" x="1106" y="-448.75" font-family="Times,serif" font-size="10.00">github.com/hasansino/goapp/internal/metrics</text>
<text text-anchor="start" x="1106" y="-437.5" font-family="Times,serif" font-size="10.00">90 / 2.4KB</text>
</a>
</g>
</g>
<!-- github.com/hasansino/goapp/cmd/app&#45;&gt;github.com/hasansino/goapp/internal/metrics -->
<g id="edge11" class="edge">
<title>github.com/hasansino/goapp/cmd/app:e&#45;&gt;github.com/hasansino/goapp/internal/metrics</title>
<path fill="none" stroke="#916207" stroke-width="2" stroke-opacity="0.698039" d="M199,-309C281.75,-309 248.52,-413.07 324,-447 456.2,-506.43 875.55,-477.86 1084.4,-459.02"/>
<polygon fill="#916207" fill-opacity="0.698039" stroke="#916207" stroke-width="2" stroke-opacity="0.698039" points="1084.58,-462.52 1094.23,-458.12 1083.95,-455.55 1084.58,-462.52"/>
</g>
<!-- github.com/hasansino/goapp/internal/metrics/providers/http -->
<g id="node18" class="node">
<title>github.com/hasansino/goapp/internal/metrics/providers/http</title>
<g id="a_node18"><a xlink:href="https://pkg.go.dev/github.com/hasansino/goapp/internal/metrics/providers/http" xlink:title="github.com/hasansino/goapp/internal/metrics/providers/http\l17 / 406B\l" target="_graphviz">
<polygon fill="none" stroke="#2a0791" stroke-width="2" stroke-opacity="0.698039" points="612,-350 324,-350 324,-314 612,-314 612,-350"/>
<text text-anchor="start" x="332" y="-333.75" font-family="Times,serif" font-size="10.00">github.com/hasansino/goapp/internal/metrics/providers/http</text>
<text text-anchor="start" x="332" y="-322.5" font-family="Times,serif" font-size="10.00">17 / 406B</text>
</a>
</g>
</g>
<!-- github.com/hasansino/goapp/cmd/app&#45;&gt;github.com/hasansino/goapp/internal/metrics/providers/http -->
<g id="edge12" class="edge">
<title>github.com/hasansino/goapp/cmd/app:e&#45;&gt;github.com/hasansino/goapp/internal/metrics/providers/http</title>
<path fill="none" stroke="#2a0791" stroke-width="2" stroke-opacity="0.698039" d="M199,-309C235.13,-309 273.91,-311.1 310.43,-314.03"/>
<polygon fill="#2a0791" fill-opacity="0.698039" stroke="#2a0791" stroke-width="2" stroke-opacity="0.698039" points="309.97,-317.51 320.22,-314.85 310.55,-310.53 309.97,-317.51"/>
</g>
<!-- github.com/hasansino/goapp/cmd/cfg2env -->
<g id="node2" class="node">
<title>github.com/hasansino/goapp/cmd/cfg2env</title>
<g id="a_node2"><a xlink:href="https://pkg.go.dev/github.com/hasansino/goapp/cmd/cfg2env" xlink:title="github.com/hasansino/goapp/cmd/cfg2env\l22 / 517B\l" target="_graphviz">
<polygon fill="none" stroke="#6e9107" stroke-width="2" stroke-opacity="0.698039" points="216,-588 0,-588 0,-552 216,-552 216,-588"/>
<text text-anchor="start" x="8" y="-571.75" font-family="Times,serif" font-size="10.00">github.com/hasansino/goapp/cmd/cfg2env</text>
<text text-anchor="start" x="8" y="-560.5" font-family="Times,serif" font-size="10.00">22 / 517B</text>
</a>
</g>
</g>
<!-- github.com/hasansino/goapp/cmd/cfg2env&#45;&gt;github.com/hasansino/goapp/internal/config -->
<g id="edge13" class="edge">
<title>github.com/hasansino/goapp/cmd/cfg2env:e&#45;&gt;github.com/hasansino/goapp/internal/config</title>
<path fill="none" stroke="#760791" stroke-width="2" stroke-opacity="0.698039" d="M216,-570C258.46,-570 304.96,-570 346.27,-570"/>
<polygon fill="#760791" fill-opacity="0.698039" stroke="#760791" stroke-width="2" stroke-opacity="0.698039" points="346.18,-573.5 356.18,-570 346.18,-566.5 346.18,-573.5"/>
</g>
<!-- github.com/hasansino/goapp/internal/api&#45;&gt;github.com/hasansino/goapp/internal/metrics -->
<g id="edge14" class="edge">
<title>github.com/hasansino/goapp/internal/api:e&#45;&gt;github.com/hasansino/goapp/internal/metrics</title>
<path fill="none" stroke="#916207" stroke-width="2" stroke-opacity="0.698039" d="M955,-424C997.27,-424 1043.4,-427.3 1084.39,-431.4"/>
<polygon fill="#916207" fill-opacity="0.698039" stroke="#916207" stroke-width="2" stroke-opacity="0.698039" points="1083.9,-434.87 1094.21,-432.42 1084.62,-427.91 1083.9,-434.87"/>
</g>
<!-- github.com/hasansino/goapp/internal/api/mocks -->
<g id="node4" class="node">
<title>github.com/hasansino/goapp/internal/api/mocks</title>
<g id="a_node4"><a xlink:href="https://pkg.go.dev/github.com/hasansino/goapp/internal/api/mocks" xlink:title="github.com/hasansino/goapp/internal/api/mocks\l44 / 1.5KB\l" target="_graphviz">
<polygon fill="none" stroke="#2c0791" stroke-width="2" stroke-opacity="0.698039" points="216,-642 0,-642 0,-606 216,-606 216,-642"/>
<text text-anchor="start" x="8" y="-625.75" font-family="Times,serif" font-size="10.00">github.com/hasansino/goapp/internal/api/mocks</text>
<text text-anchor="start" x="8" y="-614.5" font-family="Times,serif" font-size="10.00">44 / 1.5KB</text>
</a>
</g>
</g>
<!-- github.com/hasansino/goapp/internal/utils -->
<g id="node19" class="node">
<title>github.com/hasansino/goapp/internal/utils</title>
<g id="a_node19"><a xlink:href="https://pkg.go.dev/github.com/hasansino/goapp/internal/utils" xlink:title="github.com/hasansino/goapp/internal/utils\l46 / 1.1KB\l" target="_graphviz">
<polygon fill="none" stroke="#918b07" stroke-width="2" stroke-opacity="0.698039" points="954,-561 738,-561 738,-525 954,-525 954,-561"/>
<text text-anchor="start" x="746" y="-544.75" font-family="Times,serif" font-size="10.00">github.com/hasansino/goapp/internal/utils</text>
<text text-anchor="start" x="746" y="-533.5" font-family="Times,serif" font-size="10.00">46 / 1.1KB</text>
</a>
</g>
</g>
<!-- github.com/hasansino/goapp/internal/config&#45;&gt;github.com/hasansino/goapp/internal/utils -->
<g id="edge15" class="edge">
<title>github.com/hasansino/goapp/internal/config:e&#45;&gt;github.com/hasansino/goapp/internal/utils</title>
<path fill="none" stroke="#918b07" stroke-width="2" stroke-opacity="0.698039" d="M577,-570C625.3,-570 678.25,-565.6 724.24,-560.36"/>
<polygon fill="#918b07" fill-opacity="0.698039" stroke="#918b07" stroke-width="2" stroke-opacity="0.698039" points="724.49,-563.86 734.01,-559.21 723.67,-556.9 724.49,-563.86"/>
</g>
<!-- github.com/hasansino/goapp/internal/example/domain -->
<g id="node11" class="node">
<title>github.com/hasansino/goapp/internal/example/domain</title>
<g id="a_node11"><a xlink:href="https://pkg.go.dev/github.com/hasansino/goapp/internal/example/domain" xlink:title="github.com/hasansino/goapp/internal/example/domain\l12 / 272B\l" target="_graphviz">
<polygon fill="none" stroke="#91074b" stroke-width="2" stroke-opacity="0.698039" points="1332,-327 1080,-327 1080,-291 1332,-291 1332,-327"/>
<text text-anchor="start" x="1088" y="-310.75" font-family="Times,serif" font-size="10.00">github.com/hasansino/goapp/internal/example/domain</text>
<text text-anchor="start" x="1088" y="-299.5" font-family="Times,serif" font-size="10.00">12 / 272B</text>
</a>
</g>
</g>
<!-- github.com/hasansino/goapp/internal/example&#45;&gt;github.com/hasansino/goapp/internal/example/domain -->
<g id="edge16" class="edge">
<title>github.com/hasansino/goapp/internal/example:e&#45;&gt;github.com/hasansino/goapp/internal/example/domain</title>
<path fill="none" stroke="#91074b" stroke-width="2" stroke-opacity="0.698039" d="M955,-332C991.26,-332 1030.35,-329.57 1066.61,-326.29"/>
<polygon fill="#91074b" fill-opacity="0.698039" stroke="#91074b" stroke-width="2" stroke-opacity="0.698039" points="1066.67,-329.8 1076.29,-325.38 1066.01,-322.83 1066.67,-329.8"/>
</g>
<!-- github.com/hasansino/goapp/internal/example/models -->
<g id="node13" class="node">
<title>github.com/hasansino/goapp/internal/example/models</title>
<g id="a_node13"><a xlink:href="https://pkg.go.dev/github.com/hasansino/goapp/internal/example/models" xlink:title="github.com/hasansino/goapp/internal/example/models\l15 / 365B\l" target="_graphviz">
<polygon fill="none" stroke="#072891" stroke-width="2" stroke-opacity="0.698039" points="1332,-197 1080,-197 1080,-161 1332,-161 1332,-197"/>
<text text-anchor="start" x="1088" y="-180.75" font-family="Times,serif" font-size="10.00">github.com/hasansino/goapp/internal/example/models</text>
<text text-anchor="start" x="1088" y="-169.5" font-family="Times,serif" font-size="10.00">15 / 365B</text>
</a>
</g>
</g>
<!-- github.com/hasansino/goapp/internal/example&#45;&gt;github.com/hasansino/goapp/internal/example/models -->
<g id="edge17" class="edge">
<title>github.com/hasansino/goapp/internal/example:e&#45;&gt;github.com/hasansino/goapp/internal/example/models</title>
<path fill="none" stroke="#072891" stroke-width="2" stroke-opacity="0.698039" d="M955,-332C1002.8,-332 1115.11,-249.58 1171.48,-205.73"/>
<polygon fill="#072891" fill-opacity="0.698039" stroke="#072891" stroke-width="2" stroke-opacity="0.698039" points="1173.55,-208.55 1179.27,-199.63 1169.24,-203.04 1173.55,-208.55"/>
</g>
<!-- github.com/hasansino/goapp/internal/example/mocks -->
<g id="node12" class="node">
<title>github.com/hasansino/goapp/internal/example/mocks</title>
<g id="a_node12"><a xlink:href="https://pkg.go.dev/github.com/hasansino/goapp/internal/example/mocks" xlink:title="github.com/hasansino/goapp/internal/example/mocks\l110 / 4.0KB\l" target="_graphviz">
<polygon fill="none" stroke="#072391" stroke-width="2" stroke-opacity="0.698039" points="972,-128 720,-128 720,-92 972,-92 972,-128"/>
<text text-anchor="start" x="728" y="-111.75" font-family="Times,serif" font-size="10.00">github.com/hasansino/goapp/internal/example/mocks</text>
<text text-anchor="start" x="728" y="-100.5" font-family="Times,serif" font-size="10.00">110 / 4.0KB</text>
</a>
</g>
</g>
<!-- github.com/hasansino/goapp/internal/example/mocks&#45;&gt;github.com/hasansino/goapp/internal/example/models -->
<g id="edge18" class="edge">
<title>github.com/hasansino/goapp/internal/example/mocks:e&#45;&gt;github.com/hasansino/goapp/internal/example/models</title>
<path fill="none" stroke="#072891" stroke-width="2" stroke-opacity="0.698039" d="M972,-110C1037.06,-110 1108.29,-135.04 1154.65,-154.95"/>
<polygon fill="#072891" fill-opacity="0.698039" stroke="#072891" stroke-width="2" stroke-opacity="0.698039" points="1153.12,-158.1 1163.69,-158.93 1155.94,-151.7 1153.12,-158.1"/>
</g>
<!-- github.com/hasansino/goapp/internal/example/provider/http&#45;&gt;github.com/hasansino/goapp/internal/api -->
<g id="edge19" class="edge">
<title>github.com/hasansino/goapp/internal/example/provider/http:e&#45;&gt;github.com/hasansino/goapp/internal/api</title>
<path fill="none" stroke="#917c07" stroke-width="2" stroke-opacity="0.698039" d="M612,-386C659.65,-386 712.07,-393.84 755.1,-402.39"/>
<polygon fill="#917c07" fill-opacity="0.698039" stroke="#917c07" stroke-width="2" stroke-opacity="0.698039" points="754.38,-405.82 764.88,-404.39 755.79,-398.96 754.38,-405.82"/>
</g>
<!-- github.com/hasansino/goapp/internal/example/provider/http&#45;&gt;github.com/hasansino/goapp/internal/example -->
<g id="edge20" class="edge">
<title>github.com/hasansino/goapp/internal/example/provider/http:e&#45;&gt;github.com/hasansino/goapp/internal/example</title>
<path fill="none" stroke="#91072a" stroke-width="2" stroke-opacity="0.698039" d="M612,-386C626.9,-386 698.34,-369.02 758.24,-354.11"/>
<polygon fill="#91072a" fill-opacity="0.698039" stroke="#91072a" stroke-width="2" stroke-opacity="0.698039" points="759.03,-357.52 767.88,-351.7 757.33,-350.73 759.03,-357.52"/>
</g>
<!-- github.com/hasansino/goapp/internal/example/provider/http&#45;&gt;github.com/hasansino/goapp/internal/example/domain -->
<g id="edge21" class="edge">
<title>github.com/hasansino/goapp/internal/example/provider/http:e&#45;&gt;github.com/hasansino/goapp/internal/example/domain</title>
<path fill="none" stroke="#91074b" stroke-width="2" stroke-opacity="0.698039" d="M612,-386C772.45,-386 813.19,-381.89 972,-359 1020.26,-352.04 1073.48,-340.89 1116.85,-330.89"/>
<polygon fill="#91074b" fill-opacity="0.698039" stroke="#91074b" stroke-width="2" stroke-opacity="0.698039" points="1117.5,-334.33 1126.45,-328.65 1115.91,-327.51 1117.5,-334.33"/>
</g>
<!-- github.com/hasansino/goapp/internal/example/provider/http&#45;&gt;github.com/hasansino/goapp/internal/utils -->
<g id="edge22" class="edge">
<title>github.com/hasansino/goapp/internal/example/provider/http:e&#45;&gt;github.com/hasansino/goapp/internal/utils</title>
<path fill="none" stroke="#918b07" stroke-width="2" stroke-opacity="0.698039" d="M612,-386C623.56,-386 745.72,-472.06 808.37,-516.75"/>
<polygon fill="#918b07" fill-opacity="0.698039" stroke="#918b07" stroke-width="2" stroke-opacity="0.698039" points="805.98,-519.34 816.16,-522.3 810.05,-513.64 805.98,-519.34"/>
</g>
<!-- github.com/hasansino/goapp/internal/example/repository/pgsql&#45;&gt;github.com/hasansino/goapp/internal/database/pgsql -->
<g id="edge23" class="edge">
<title>github.com/hasansino/goapp/internal/example/repository/pgsql:e&#45;&gt;github.com/hasansino/goapp/internal/database/pgsql</title>
<path fill="none" stroke="#130791" stroke-width="2" stroke-opacity="0.698039" d="M612,-148C676.82,-148 662.93,-80.72 720,-50 725.77,-46.89 731.85,-44.08 738.1,-41.53"/>
<polygon fill="#130791" fill-opacity="0.698039" stroke="#130791" stroke-width="2" stroke-opacity="0.698039" points="739.32,-44.81 747.45,-38.02 736.86,-38.26 739.32,-44.81"/>
</g>
<!-- github.com/hasansino/goapp/internal/example/repository/pgsql&#45;&gt;github.com/hasansino/goapp/internal/example/domain -->
<g id="edge24" class="edge">
<title>github.com/hasansino/goapp/internal/example/repository/pgsql:e&#45;&gt;github.com/hasansino/goapp/internal/example/domain</title>
<path fill="none" stroke="#91074b" stroke-width="2" stroke-opacity="0.698039" d="M612,-148C772.45,-148 818.64,-127.83 972,-175 1048.48,-198.52 1127.04,-250.65 1170.58,-282.51"/>
<polygon fill="#91074b" fill-opacity="0.698039" stroke="#91074b" stroke-width="2" stroke-opacity="0.698039" points="1168.32,-285.2 1178.44,-288.34 1172.49,-279.57 1168.32,-285.2"/>
</g>
<!-- github.com/hasansino/goapp/internal/example/repository/pgsql&#45;&gt;github.com/hasansino/goapp/internal/example/models -->
<g id="edge25" class="edge">
<title>github.com/hasansino/goapp/internal/example/repository/pgsql:e&#45;&gt;github.com/hasansino/goapp/internal/example/models</title>
<path fill="none" stroke="#072891" stroke-width="2" stroke-opacity="0.698039" d="M612,-148C668.02,-148 666.02,-97.99 720,-83 827.92,-53.03 862.13,-61.25 972,-83 1040.5,-96.56 1114.15,-130.53 1159.91,-154.18"/>
<polygon fill="#072891" fill-opacity="0.698039" stroke="#072891" stroke-width="2" stroke-opacity="0.698039" points="1158.04,-157.16 1168.52,-158.7 1161.29,-150.96 1158.04,-157.16"/>
</g>
<!-- github.com/hasansino/goapp/internal/example/repository/sqlite&#45;&gt;github.com/hasansino/goapp/internal/database/sqlite -->
<g id="edge26" class="edge">
<title>github.com/hasansino/goapp/internal/example/repository/sqlite:e&#45;&gt;github.com/hasansino/goapp/internal/database/sqlite</title>
<path fill="none" stroke="#071591" stroke-width="2" stroke-opacity="0.698039" d="M612,-240C659.65,-240 712.07,-232.16 755.1,-223.61"/>
<polygon fill="#071591" fill-opacity="0.698039" stroke="#071591" stroke-width="2" stroke-opacity="0.698039" points="755.79,-227.04 764.88,-221.61 754.38,-220.18 755.79,-227.04"/>
</g>
<!-- github.com/hasansino/goapp/internal/example/repository/sqlite&#45;&gt;github.com/hasansino/goapp/internal/example/domain -->
<g id="edge27" class="edge">
<title>github.com/hasansino/goapp/internal/example/repository/sqlite:e&#45;&gt;github.com/hasansino/goapp/internal/example/domain</title>
<path fill="none" stroke="#91074b" stroke-width="2" stroke-opacity="0.698039" d="M612,-240C656.24,-240 905.28,-270.7 1066.24,-291.14"/>
<polygon fill="#91074b" fill-opacity="0.698039" stroke="#91074b" stroke-width="2" stroke-opacity="0.698039" points="1065.75,-294.61 1076.11,-292.4 1066.63,-287.66 1065.75,-294.61"/>
</g>
<!-- github.com/hasansino/goapp/internal/example/repository/sqlite&#45;&gt;github.com/hasansino/goapp/internal/example/models -->
<g id="edge28" class="edge">
<title>github.com/hasansino/goapp/internal/example/repository/sqlite:e&#45;&gt;github.com/hasansino/goapp/internal/example/models</title>
<path fill="none" stroke="#072891" stroke-width="2" stroke-opacity="0.698039" d="M612,-240C772.07,-240 813.1,-248.32 972,-229 1021.82,-222.94 1076.75,-211.4 1120.75,-200.93"/>
<polygon fill="#072891" fill-opacity="0.698039" stroke="#072891" stroke-width="2" stroke-opacity="0.698039" points="1121.31,-204.39 1130.21,-198.65 1119.67,-197.59 1121.31,-204.39"/>
</g>
<!-- github.com/hasansino/goapp/tests -->
<g id="node20" class="node">
<title>github.com/hasansino/goapp/tests</title>
<g id="a_node20"><a xlink:href="https://pkg.go.dev/github.com/hasansino/goapp/tests" xlink:title="github.com/hasansino/goapp/tests\l0 / 0B\l" target="_graphviz">
<polygon fill="none" stroke="#910772" stroke-width="2" stroke-opacity="0.698039" points="198,-696 18,-696 18,-660 198,-660 198,-696"/>
<text text-anchor="start" x="26" y="-679.75" font-family="Times,serif" font-size="10.00">github.com/hasansino/goapp/tests</text>
<text text-anchor="start" x="26" y="-668.5" font-family="Times,serif" font-size="10.00">0 / 0B</text>
</a>
</g>
</g>
</g>
</svg>
