<?xml version="1.0" encoding="UTF-8" standalone="no"?>
<!DOCTYPE svg PUBLIC "-//W3C//DTD SVG 1.1//EN"
 "http://www.w3.org/Graphics/SVG/1.1/DTD/svg11.dtd">
<!-- Generated by graphviz version 12.2.1 (20241206.2353)
 -->
<!-- Title: G Pages: 1 -->
<svg width="1772pt" height="1011pt"
 viewBox="0.00 0.00 1772.00 1011.07" xmlns="http://www.w3.org/2000/svg" xmlns:xlink="http://www.w3.org/1999/xlink">
<g id="graph0" class="graph" transform="scale(1 1) rotate(0) translate(4 1007.07)">
<title>G</title>
<polygon fill="white" stroke="none" points="-4,4 -4,-1007.07 1768,-1007.07 1768,4 -4,4"/>
<!-- github.com/hasansino/goapp/cmd/app -->
<g id="node1" class="node">
<title>github.com/hasansino/goapp/cmd/app</title>
<g id="a_node1"><a xlink:href="https://pkg.go.dev/github.com/hasansino/goapp/cmd/app" xlink:title="github.com/hasansino/goapp/cmd/app\l535 / 16.8KB\l" target="_graphviz">
<polygon fill="none" stroke="#915007" stroke-width="2" stroke-opacity="0.698039" points="216,-462.07 36,-462.07 36,-426.07 216,-426.07 216,-462.07"/>
<text text-anchor="start" x="44" y="-445.82" font-family="Times,serif" font-size="10.00">github.com/hasansino/goapp/cmd/app</text>
<text text-anchor="start" x="44" y="-434.57" font-family="Times,serif" font-size="10.00">535 / 16.8KB</text>
</a>
</g>
</g>
<!-- github.com/hasansino/goapp/internal/api/grpc -->
<g id="node3" class="node">
<title>github.com/hasansino/goapp/internal/api/grpc</title>
<g id="a_node3"><a xlink:href="https://pkg.go.dev/github.com/hasansino/goapp/internal/api/grpc" xlink:title="github.com/hasansino/goapp/internal/api/grpc\l127 / 3.6KB\l" target="_graphviz">
<polygon fill="none" stroke="#729107" stroke-width="2" stroke-opacity="0.698039" points="1404,-726.07 1188,-726.07 1188,-690.07 1404,-690.07 1404,-726.07"/>
<text text-anchor="start" x="1196" y="-709.82" font-family="Times,serif" font-size="10.00">github.com/hasansino/goapp/internal/api/grpc</text>
<text text-anchor="start" x="1196" y="-698.57" font-family="Times,serif" font-size="10.00">127 / 3.6KB</text>
</a>
</g>
</g>
<!-- github.com/hasansino/goapp/cmd/app&#45;&gt;github.com/hasansino/goapp/internal/api/grpc -->
<g id="edge1" class="edge">
<title>github.com/hasansino/goapp/cmd/app:e&#45;&gt;github.com/hasansino/goapp/internal/api/grpc</title>
<path fill="none" stroke="#729107" stroke-width="2" stroke-opacity="0.698039" d="M217,-444.07C341.17,-444.07 253.07,-620.97 360,-684.07 494.29,-763.32 953.3,-737.17 1174.25,-719.16"/>
<polygon fill="#729107" fill-opacity="0.698039" stroke="#729107" stroke-width="2" stroke-opacity="0.698039" points="1174.47,-722.66 1184.15,-718.34 1173.89,-715.68 1174.47,-722.66"/>
</g>
<!-- github.com/hasansino/goapp/internal/api/http -->
<g id="node5" class="node">
<title>github.com/hasansino/goapp/internal/api/http</title>
<g id="a_node5"><a xlink:href="https://pkg.go.dev/github.com/hasansino/goapp/internal/api/http" xlink:title="github.com/hasansino/goapp/internal/api/http\l205 / 5.2KB\l" target="_graphviz">
<polygon fill="none" stroke="#076b91" stroke-width="2" stroke-opacity="0.698039" points="1008,-688.07 792,-688.07 792,-652.07 1008,-652.07 1008,-688.07"/>
<text text-anchor="start" x="800" y="-671.82" font-family="Times,serif" font-size="10.00">github.com/hasansino/goapp/internal/api/http</text>
<text text-anchor="start" x="800" y="-660.57" font-family="Times,serif" font-size="10.00">205 / 5.2KB</text>
</a>
</g>
</g>
<!-- github.com/hasansino/goapp/cmd/app&#45;&gt;github.com/hasansino/goapp/internal/api/http -->
<g id="edge2" class="edge">
<title>github.com/hasansino/goapp/cmd/app:e&#45;&gt;github.com/hasansino/goapp/internal/api/http</title>
<path fill="none" stroke="#076b91" stroke-width="2" stroke-opacity="0.698039" d="M217,-444.07C330.29,-444.07 260.66,-600.61 360,-655.07 429.28,-693.05 641.55,-687.47 778.12,-679.26"/>
<polygon fill="#076b91" fill-opacity="0.698039" stroke="#076b91" stroke-width="2" stroke-opacity="0.698039" points="778.3,-682.75 788.07,-678.64 777.87,-675.76 778.3,-682.75"/>
</g>
<!-- github.com/hasansino/goapp/internal/cache -->
<g id="node8" class="node">
<title>github.com/hasansino/goapp/internal/cache</title>
<g id="a_node8"><a xlink:href="https://pkg.go.dev/github.com/hasansino/goapp/internal/cache" xlink:title="github.com/hasansino/goapp/internal/cache\l28 / 0.7KB\l" target="_graphviz">
<polygon fill="none" stroke="#079156" stroke-width="2" stroke-opacity="0.698039" points="612,-354.07 396,-354.07 396,-318.07 612,-318.07 612,-354.07"/>
<text text-anchor="start" x="404" y="-337.82" font-family="Times,serif" font-size="10.00">github.com/hasansino/goapp/internal/cache</text>
<text text-anchor="start" x="404" y="-326.57" font-family="Times,serif" font-size="10.00">28 / 0.7KB</text>
</a>
</g>
</g>
<!-- github.com/hasansino/goapp/cmd/app&#45;&gt;github.com/hasansino/goapp/internal/cache -->
<g id="edge3" class="edge">
<title>github.com/hasansino/goapp/cmd/app:e&#45;&gt;github.com/hasansino/goapp/internal/cache</title>
<path fill="none" stroke="#079156" stroke-width="2" stroke-opacity="0.698039" d="M217,-444.07C290.04,-444.07 291.41,-388.19 360,-363.07 367.4,-360.36 375.11,-357.91 382.96,-355.7"/>
<polygon fill="#079156" fill-opacity="0.698039" stroke="#079156" stroke-width="2" stroke-opacity="0.698039" points="383.67,-359.13 392.44,-353.19 381.88,-352.37 383.67,-359.13"/>
</g>
<!-- github.com/hasansino/goapp/internal/cache/memcached -->
<g id="node9" class="node">
<title>github.com/hasansino/goapp/internal/cache/memcached</title>
<g id="a_node9"><a xlink:href="https://pkg.go.dev/github.com/hasansino/goapp/internal/cache/memcached" xlink:title="github.com/hasansino/goapp/internal/cache/memcached\l48 / 1.3KB\l" target="_graphviz">
<polygon fill="none" stroke="#079111" stroke-width="2" stroke-opacity="0.698039" points="630,-300.07 378,-300.07 378,-264.07 630,-264.07 630,-300.07"/>
<text text-anchor="start" x="386" y="-283.82" font-family="Times,serif" font-size="10.00">github.com/hasansino/goapp/internal/cache/memcached</text>
<text text-anchor="start" x="386" y="-272.57" font-family="Times,serif" font-size="10.00">48 / 1.3KB</text>
</a>
</g>
</g>
<!-- github.com/hasansino/goapp/cmd/app&#45;&gt;github.com/hasansino/goapp/internal/cache/memcached -->
<g id="edge4" class="edge">
<title>github.com/hasansino/goapp/cmd/app:e&#45;&gt;github.com/hasansino/goapp/internal/cache/memcached</title>
<path fill="none" stroke="#079111" stroke-width="2" stroke-opacity="0.698039" d="M217,-444.07C304.4,-444.07 282.14,-348.78 360,-309.07 362.1,-308 364.24,-306.97 366.41,-305.98"/>
<polygon fill="#079111" fill-opacity="0.698039" stroke="#079111" stroke-width="2" stroke-opacity="0.698039" points="367.6,-309.28 375.5,-302.22 364.92,-302.81 367.6,-309.28"/>
</g>
<!-- github.com/hasansino/goapp/internal/cache/miniredis -->
<g id="node10" class="node">
<title>github.com/hasansino/goapp/internal/cache/miniredis</title>
<g id="a_node10"><a xlink:href="https://pkg.go.dev/github.com/hasansino/goapp/internal/cache/miniredis" xlink:title="github.com/hasansino/goapp/internal/cache/miniredis\l34 / 0.7KB\l" target="_graphviz">
<polygon fill="none" stroke="#912007" stroke-width="2" stroke-opacity="0.698039" points="630,-246.07 378,-246.07 378,-210.07 630,-210.07 630,-246.07"/>
<text text-anchor="start" x="386" y="-229.82" font-family="Times,serif" font-size="10.00">github.com/hasansino/goapp/internal/cache/miniredis</text>
<text text-anchor="start" x="386" y="-218.57" font-family="Times,serif" font-size="10.00">34 / 0.7KB</text>
</a>
</g>
</g>
<!-- github.com/hasansino/goapp/cmd/app&#45;&gt;github.com/hasansino/goapp/internal/cache/miniredis -->
<g id="edge5" class="edge">
<title>github.com/hasansino/goapp/cmd/app:e&#45;&gt;github.com/hasansino/goapp/internal/cache/miniredis</title>
<path fill="none" stroke="#912007" stroke-width="2" stroke-opacity="0.698039" d="M217,-444.07C322.33,-444.07 270.47,-310.56 360,-255.07 361.88,-253.9 363.8,-252.79 365.76,-251.71"/>
<polygon fill="#912007" fill-opacity="0.698039" stroke="#912007" stroke-width="2" stroke-opacity="0.698039" points="367.13,-254.94 374.57,-247.4 364.05,-248.65 367.13,-254.94"/>
</g>
<!-- github.com/hasansino/goapp/internal/cache/redis -->
<g id="node11" class="node">
<title>github.com/hasansino/goapp/internal/cache/redis</title>
<g id="a_node11"><a xlink:href="https://pkg.go.dev/github.com/hasansino/goapp/internal/cache/redis" xlink:title="github.com/hasansino/goapp/internal/cache/redis\l134 / 3.4KB\l" target="_graphviz">
<polygon fill="none" stroke="#550791" stroke-width="2" stroke-opacity="0.698039" points="630,-192.07 378,-192.07 378,-156.07 630,-156.07 630,-192.07"/>
<text text-anchor="start" x="386" y="-175.82" font-family="Times,serif" font-size="10.00">github.com/hasansino/goapp/internal/cache/redis</text>
<text text-anchor="start" x="386" y="-164.57" font-family="Times,serif" font-size="10.00">134 / 3.4KB</text>
</a>
</g>
</g>
<!-- github.com/hasansino/goapp/cmd/app&#45;&gt;github.com/hasansino/goapp/internal/cache/redis -->
<g id="edge6" class="edge">
<title>github.com/hasansino/goapp/cmd/app:e&#45;&gt;github.com/hasansino/goapp/internal/cache/redis</title>
<path fill="none" stroke="#550791" stroke-width="2" stroke-opacity="0.698039" d="M217,-444.07C342.31,-444.07 257.49,-273.14 360,-201.07 361.93,-199.71 363.91,-198.42 365.94,-197.18"/>
<polygon fill="#550791" fill-opacity="0.698039" stroke="#550791" stroke-width="2" stroke-opacity="0.698039" points="367.33,-200.41 374.47,-192.58 364.01,-194.25 367.33,-200.41"/>
</g>
<!-- github.com/hasansino/goapp/internal/config -->
<g id="node12" class="node">
<title>github.com/hasansino/goapp/internal/config</title>
<g id="a_node12"><a xlink:href="https://pkg.go.dev/github.com/hasansino/goapp/internal/config" xlink:title="github.com/hasansino/goapp/internal/config\l212 / 8.6KB\l" target="_graphviz">
<polygon fill="none" stroke="#760791" stroke-width="2" stroke-opacity="0.698039" points="612,-818.07 396,-818.07 396,-782.07 612,-782.07 612,-818.07"/>
<text text-anchor="start" x="404" y="-801.82" font-family="Times,serif" font-size="10.00">github.com/hasansino/goapp/internal/config</text>
<text text-anchor="start" x="404" y="-790.57" font-family="Times,serif" font-size="10.00">212 / 8.6KB</text>
</a>
</g>
</g>
<!-- github.com/hasansino/goapp/cmd/app&#45;&gt;github.com/hasansino/goapp/internal/config -->
<g id="edge7" class="edge">
<title>github.com/hasansino/goapp/cmd/app:e&#45;&gt;github.com/hasansino/goapp/internal/config</title>
<path fill="none" stroke="#760791" stroke-width="2" stroke-opacity="0.698039" d="M217,-444.07C374.4,-444.07 238.37,-668.16 360,-768.07 367.01,-773.83 374.85,-778.61 383.15,-782.57"/>
<polygon fill="#760791" fill-opacity="0.698039" stroke="#760791" stroke-width="2" stroke-opacity="0.698039" points="381.78,-785.79 392.35,-786.45 384.5,-779.34 381.78,-785.79"/>
</g>
<!-- github.com/hasansino/goapp/internal/database/pgsql -->
<g id="node13" class="node">
<title>github.com/hasansino/goapp/internal/database/pgsql</title>
<g id="a_node13"><a xlink:href="https://pkg.go.dev/github.com/hasansino/goapp/internal/database/pgsql" xlink:title="github.com/hasansino/goapp/internal/database/pgsql\l105 / 2.3KB\l" target="_graphviz">
<polygon fill="none" stroke="#130791" stroke-width="2" stroke-opacity="0.698039" points="630,-138.07 378,-138.07 378,-102.07 630,-102.07 630,-138.07"/>
<text text-anchor="start" x="386" y="-121.82" font-family="Times,serif" font-size="10.00">github.com/hasansino/goapp/internal/database/pgsql</text>
<text text-anchor="start" x="386" y="-110.57" font-family="Times,serif" font-size="10.00">105 / 2.3KB</text>
</a>
</g>
</g>
<!-- github.com/hasansino/goapp/cmd/app&#45;&gt;github.com/hasansino/goapp/internal/database/pgsql -->
<g id="edge8" class="edge">
<title>github.com/hasansino/goapp/cmd/app:e&#45;&gt;github.com/hasansino/goapp/internal/database/pgsql</title>
<path fill="none" stroke="#130791" stroke-width="2" stroke-opacity="0.698039" d="M217,-444.07C363.5,-444.07 243.76,-236.24 360,-147.07 361.91,-145.61 363.87,-144.21 365.89,-142.89"/>
<polygon fill="#130791" fill-opacity="0.698039" stroke="#130791" stroke-width="2" stroke-opacity="0.698039" points="367.55,-145.97 374.46,-137.95 364.05,-139.91 367.55,-145.97"/>
</g>
<!-- github.com/hasansino/goapp/internal/database/pgsql/migrate -->
<g id="node14" class="node">
<title>github.com/hasansino/goapp/internal/database/pgsql/migrate</title>
<g id="a_node14"><a xlink:href="https://pkg.go.dev/github.com/hasansino/goapp/internal/database/pgsql/migrate" xlink:title="github.com/hasansino/goapp/internal/database/pgsql/migrate\l28 / 561B\l" target="_graphviz">
<polygon fill="none" stroke="#07916d" stroke-width="2" stroke-opacity="0.698039" points="648,-84.07 360,-84.07 360,-48.07 648,-48.07 648,-84.07"/>
<text text-anchor="start" x="368" y="-67.82" font-family="Times,serif" font-size="10.00">github.com/hasansino/goapp/internal/database/pgsql/migrate</text>
<text text-anchor="start" x="368" y="-56.57" font-family="Times,serif" font-size="10.00">28 / 561B</text>
</a>
</g>
</g>
<!-- github.com/hasansino/goapp/cmd/app&#45;&gt;github.com/hasansino/goapp/internal/database/pgsql/migrate -->
<g id="edge9" class="edge">
<title>github.com/hasansino/goapp/cmd/app:e&#45;&gt;github.com/hasansino/goapp/internal/database/pgsql/migrate</title>
<path fill="none" stroke="#07916d" stroke-width="2" stroke-opacity="0.698039" d="M217,-444.07C385.45,-444.07 229.58,-199.68 360,-93.07 360.34,-92.79 360.68,-92.52 361.02,-92.25"/>
<polygon fill="#07916d" fill-opacity="0.698039" stroke="#07916d" stroke-width="2" stroke-opacity="0.698039" points="362.74,-95.31 368.99,-86.75 358.77,-89.55 362.74,-95.31"/>
</g>
<!-- github.com/hasansino/goapp/internal/database/sqlite -->
<g id="node15" class="node">
<title>github.com/hasansino/goapp/internal/database/sqlite</title>
<g id="a_node15"><a xlink:href="https://pkg.go.dev/github.com/hasansino/goapp/internal/database/sqlite" xlink:title="github.com/hasansino/goapp/internal/database/sqlite\l102 / 2.4KB\l" target="_graphviz">
<polygon fill="none" stroke="#071591" stroke-width="2" stroke-opacity="0.698039" points="1026,-217.07 774,-217.07 774,-181.07 1026,-181.07 1026,-217.07"/>
<text text-anchor="start" x="782" y="-200.82" font-family="Times,serif" font-size="10.00">github.com/hasansino/goapp/internal/database/sqlite</text>
<text text-anchor="start" x="782" y="-189.57" font-family="Times,serif" font-size="10.00">102 / 2.4KB</text>
</a>
</g>
</g>
<!-- github.com/hasansino/goapp/cmd/app&#45;&gt;github.com/hasansino/goapp/internal/database/sqlite -->
<g id="edge10" class="edge">
<title>github.com/hasansino/goapp/cmd/app:e&#45;&gt;github.com/hasansino/goapp/internal/database/sqlite</title>
<path fill="none" stroke="#071591" stroke-width="2" stroke-opacity="0.698039" d="M217,-444.07C407.89,-444.07 204.16,-149.31 360,-39.07 525.79,78.21 778.09,-100.8 866.79,-171.98"/>
<polygon fill="#071591" fill-opacity="0.698039" stroke="#071591" stroke-width="2" stroke-opacity="0.698039" points="864.47,-174.6 874.44,-178.19 868.88,-169.17 864.47,-174.6"/>
</g>
<!-- github.com/hasansino/goapp/internal/database/sqlite/migrate -->
<g id="node16" class="node">
<title>github.com/hasansino/goapp/internal/database/sqlite/migrate</title>
<g id="a_node16"><a xlink:href="https://pkg.go.dev/github.com/hasansino/goapp/internal/database/sqlite/migrate" xlink:title="github.com/hasansino/goapp/internal/database/sqlite/migrate\l29 / 0.7KB\l" target="_graphviz">
<polygon fill="none" stroke="#072391" stroke-width="2" stroke-opacity="0.698039" points="648,-462.07 360,-462.07 360,-426.07 648,-426.07 648,-462.07"/>
<text text-anchor="start" x="368" y="-445.82" font-family="Times,serif" font-size="10.00">github.com/hasansino/goapp/internal/database/sqlite/migrate</text>
<text text-anchor="start" x="368" y="-434.57" font-family="Times,serif" font-size="10.00">29 / 0.7KB</text>
</a>
</g>
</g>
<!-- github.com/hasansino/goapp/cmd/app&#45;&gt;github.com/hasansino/goapp/internal/database/sqlite/migrate -->
<g id="edge11" class="edge">
<title>github.com/hasansino/goapp/cmd/app:e&#45;&gt;github.com/hasansino/goapp/internal/database/sqlite/migrate</title>
<path fill="none" stroke="#072391" stroke-width="2" stroke-opacity="0.698039" d="M217,-444.07C258.96,-444.07 304.38,-444.07 346.41,-444.07"/>
<polygon fill="#072391" fill-opacity="0.698039" stroke="#072391" stroke-width="2" stroke-opacity="0.698039" points="346.31,-447.57 356.31,-444.07 346.31,-440.57 346.31,-447.57"/>
</g>
<!-- github.com/hasansino/goapp/internal/example -->
<g id="node17" class="node">
<title>github.com/hasansino/goapp/internal/example</title>
<g id="a_node17"><a xlink:href="https://pkg.go.dev/github.com/hasansino/goapp/internal/example" xlink:title="github.com/hasansino/goapp/internal/example\l130 / 3.8KB\l" target="_graphviz">
<polygon fill="none" stroke="#91072a" stroke-width="2" stroke-opacity="0.698039" points="1008,-596.07 792,-596.07 792,-560.07 1008,-560.07 1008,-596.07"/>
<text text-anchor="start" x="800" y="-579.82" font-family="Times,serif" font-size="10.00">github.com/hasansino/goapp/internal/example</text>
<text text-anchor="start" x="800" y="-568.57" font-family="Times,serif" font-size="10.00">130 / 3.8KB</text>
</a>
</g>
</g>
<!-- github.com/hasansino/goapp/cmd/app&#45;&gt;github.com/hasansino/goapp/internal/example -->
<g id="edge12" class="edge">
<title>github.com/hasansino/goapp/cmd/app:e&#45;&gt;github.com/hasansino/goapp/internal/example</title>
<path fill="none" stroke="#91072a" stroke-width="2" stroke-opacity="0.698039" d="M217,-444.07C299.68,-444.07 282.64,-533.87 360,-563.07 433.66,-590.87 643.2,-588.62 778.28,-583.8"/>
<polygon fill="#91072a" fill-opacity="0.698039" stroke="#91072a" stroke-width="2" stroke-opacity="0.698039" points="778.22,-587.3 788.08,-583.44 777.96,-580.31 778.22,-587.3"/>
</g>
<!-- github.com/hasansino/goapp/internal/example/provider/grpc -->
<g id="node21" class="node">
<title>github.com/hasansino/goapp/internal/example/provider/grpc</title>
<g id="a_node21"><a xlink:href="https://pkg.go.dev/github.com/hasansino/goapp/internal/example/provider/grpc" xlink:title="github.com/hasansino/goapp/internal/example/provider/grpc\l835 / 30.1KB\l" target="_graphviz">
<polygon fill="none" stroke="#300791" stroke-width="2" stroke-opacity="0.698039" points="648,-554.07 360,-554.07 360,-518.07 648,-518.07 648,-554.07"/>
<text text-anchor="start" x="368" y="-537.82" font-family="Times,serif" font-size="10.00">github.com/hasansino/goapp/internal/example/provider/grpc</text>
<text text-anchor="start" x="368" y="-526.57" font-family="Times,serif" font-size="10.00">835 / 30.1KB</text>
</a>
</g>
</g>
<!-- github.com/hasansino/goapp/cmd/app&#45;&gt;github.com/hasansino/goapp/internal/example/provider/grpc -->
<g id="edge13" class="edge">
<title>github.com/hasansino/goapp/cmd/app:e&#45;&gt;github.com/hasansino/goapp/internal/example/provider/grpc</title>
<path fill="none" stroke="#300791" stroke-width="2" stroke-opacity="0.698039" d="M217,-444.07C285.92,-444.07 294.33,-483.13 360,-504.07 371.24,-507.66 383.11,-510.99 395,-514.05"/>
<polygon fill="#300791" fill-opacity="0.698039" stroke="#300791" stroke-width="2" stroke-opacity="0.698039" points="393.89,-517.38 404.44,-516.41 395.58,-510.59 393.89,-517.38"/>
</g>
<!-- github.com/hasansino/goapp/internal/example/provider/http -->
<g id="node22" class="node">
<title>github.com/hasansino/goapp/internal/example/provider/http</title>
<g id="a_node22"><a xlink:href="https://pkg.go.dev/github.com/hasansino/goapp/internal/example/provider/http" xlink:title="github.com/hasansino/goapp/internal/example/provider/http\l123 / 3.7KB\l" target="_graphviz">
<polygon fill="none" stroke="#915907" stroke-width="2" stroke-opacity="0.698039" points="648,-646.07 360,-646.07 360,-610.07 648,-610.07 648,-646.07"/>
<text text-anchor="start" x="368" y="-629.82" font-family="Times,serif" font-size="10.00">github.com/hasansino/goapp/internal/example/provider/http</text>
<text text-anchor="start" x="368" y="-618.57" font-family="Times,serif" font-size="10.00">123 / 3.7KB</text>
</a>
</g>
</g>
<!-- github.com/hasansino/goapp/cmd/app&#45;&gt;github.com/hasansino/goapp/internal/example/provider/http -->
<g id="edge14" class="edge">
<title>github.com/hasansino/goapp/cmd/app:e&#45;&gt;github.com/hasansino/goapp/internal/example/provider/http</title>
<path fill="none" stroke="#915907" stroke-width="2" stroke-opacity="0.698039" d="M217,-444.07C309.75,-444.07 279.42,-550.14 360,-596.07 365.52,-599.22 371.33,-602.06 377.31,-604.61"/>
<polygon fill="#915907" fill-opacity="0.698039" stroke="#915907" stroke-width="2" stroke-opacity="0.698039" points="375.6,-607.7 386.19,-608.09 378.15,-601.19 375.6,-607.7"/>
</g>
<!-- github.com/hasansino/goapp/internal/example/repository/gorm -->
<g id="node23" class="node">
<title>github.com/hasansino/goapp/internal/example/repository/gorm</title>
<g id="a_node23"><a xlink:href="https://pkg.go.dev/github.com/hasansino/goapp/internal/example/repository/gorm" xlink:title="github.com/hasansino/goapp/internal/example/repository/gorm\l114 / 3.4KB\l" target="_graphviz">
<polygon fill="none" stroke="#078c91" stroke-width="2" stroke-opacity="0.698039" points="1044,-504.07 756,-504.07 756,-468.07 1044,-468.07 1044,-504.07"/>
<text text-anchor="start" x="764" y="-487.82" font-family="Times,serif" font-size="10.00">github.com/hasansino/goapp/internal/example/repository/gorm</text>
<text text-anchor="start" x="764" y="-476.57" font-family="Times,serif" font-size="10.00">114 / 3.4KB</text>
</a>
</g>
</g>
<!-- github.com/hasansino/goapp/cmd/app&#45;&gt;github.com/hasansino/goapp/internal/example/repository/gorm -->
<g id="edge15" class="edge">
<title>github.com/hasansino/goapp/cmd/app:e&#45;&gt;github.com/hasansino/goapp/internal/example/repository/gorm</title>
<path fill="none" stroke="#078c91" stroke-width="2" stroke-opacity="0.698039" d="M217,-444.07C281.68,-444.07 295.69,-464.15 360,-471.07 488.12,-484.86 634.3,-488.16 742.08,-488.26"/>
<polygon fill="#078c91" fill-opacity="0.698039" stroke="#078c91" stroke-width="2" stroke-opacity="0.698039" points="742,-491.76 752,-488.26 742,-484.76 742,-491.76"/>
</g>
<!-- github.com/hasansino/goapp/internal/metrics -->
<g id="node24" class="node">
<title>github.com/hasansino/goapp/internal/metrics</title>
<g id="a_node24"><a xlink:href="https://pkg.go.dev/github.com/hasansino/goapp/internal/metrics" xlink:title="github.com/hasansino/goapp/internal/metrics\l93 / 2.5KB\l" target="_graphviz">
<polygon fill="none" stroke="#916207" stroke-width="2" stroke-opacity="0.698039" points="1764,-726.07 1548,-726.07 1548,-690.07 1764,-690.07 1764,-726.07"/>
<text text-anchor="start" x="1556" y="-709.82" font-family="Times,serif" font-size="10.00">github.com/hasansino/goapp/internal/metrics</text>
<text text-anchor="start" x="1556" y="-698.57" font-family="Times,serif" font-size="10.00">93 / 2.5KB</text>
</a>
</g>
</g>
<!-- github.com/hasansino/goapp/cmd/app&#45;&gt;github.com/hasansino/goapp/internal/metrics -->
<g id="edge16" class="edge">
<title>github.com/hasansino/goapp/cmd/app:e&#45;&gt;github.com/hasansino/goapp/internal/metrics</title>
<path fill="none" stroke="#916207" stroke-width="2" stroke-opacity="0.698039" d="M217,-444.07C356.73,-444.07 242.32,-648.72 360,-724.07 461.07,-788.78 1320.28,-743.32 1440,-735.07 1470.76,-732.95 1503.86,-729.42 1534.65,-725.6"/>
<polygon fill="#916207" fill-opacity="0.698039" stroke="#916207" stroke-width="2" stroke-opacity="0.698039" points="1534.75,-729.12 1544.23,-724.39 1533.87,-722.17 1534.75,-729.12"/>
</g>
<!-- github.com/hasansino/goapp/internal/metrics/providers/http -->
<g id="node25" class="node">
<title>github.com/hasansino/goapp/internal/metrics/providers/http</title>
<g id="a_node25"><a xlink:href="https://pkg.go.dev/github.com/hasansino/goapp/internal/metrics/providers/http" xlink:title="github.com/hasansino/goapp/internal/metrics/providers/http\l17 / 406B\l" target="_graphviz">
<polygon fill="none" stroke="#2a0791" stroke-width="2" stroke-opacity="0.698039" points="648,-408.07 360,-408.07 360,-372.07 648,-372.07 648,-408.07"/>
<text text-anchor="start" x="368" y="-391.82" font-family="Times,serif" font-size="10.00">github.com/hasansino/goapp/internal/metrics/providers/http</text>
<text text-anchor="start" x="368" y="-380.57" font-family="Times,serif" font-size="10.00">17 / 406B</text>
</a>
</g>
</g>
<!-- github.com/hasansino/goapp/cmd/app&#45;&gt;github.com/hasansino/goapp/internal/metrics/providers/http -->
<g id="edge17" class="edge">
<title>github.com/hasansino/goapp/cmd/app:e&#45;&gt;github.com/hasansino/goapp/internal/metrics/providers/http</title>
<path fill="none" stroke="#2a0791" stroke-width="2" stroke-opacity="0.698039" d="M217,-444.07C217,-444.07 309.95,-426.52 389.87,-411.43"/>
<polygon fill="#2a0791" fill-opacity="0.698039" stroke="#2a0791" stroke-width="2" stroke-opacity="0.698039" points="390.42,-414.89 399.59,-409.59 389.12,-408.01 390.42,-414.89"/>
</g>
<!-- github.com/hasansino/goapp/cmd/cfg2env -->
<g id="node2" class="node">
<title>github.com/hasansino/goapp/cmd/cfg2env</title>
<g id="a_node2"><a xlink:href="https://pkg.go.dev/github.com/hasansino/goapp/cmd/cfg2env" xlink:title="github.com/hasansino/goapp/cmd/cfg2env\l24 / 617B\l" target="_graphviz">
<polygon fill="none" stroke="#6e9107" stroke-width="2" stroke-opacity="0.698039" points="234,-841.07 18,-841.07 18,-805.07 234,-805.07 234,-841.07"/>
<text text-anchor="start" x="26" y="-824.82" font-family="Times,serif" font-size="10.00">github.com/hasansino/goapp/cmd/cfg2env</text>
<text text-anchor="start" x="26" y="-813.57" font-family="Times,serif" font-size="10.00">24 / 617B</text>
</a>
</g>
</g>
<!-- github.com/hasansino/goapp/cmd/cfg2env&#45;&gt;github.com/hasansino/goapp/internal/config -->
<g id="edge18" class="edge">
<title>github.com/hasansino/goapp/cmd/cfg2env:e&#45;&gt;github.com/hasansino/goapp/internal/config</title>
<path fill="none" stroke="#760791" stroke-width="2" stroke-opacity="0.698039" d="M235,-823.07C283.34,-823.07 336.41,-819.31 382.48,-814.83"/>
<polygon fill="#760791" fill-opacity="0.698039" stroke="#760791" stroke-width="2" stroke-opacity="0.698039" points="382.66,-818.33 392.26,-813.85 381.96,-811.36 382.66,-818.33"/>
</g>
<!-- github.com/hasansino/goapp/internal/utils -->
<g id="node26" class="node">
<title>github.com/hasansino/goapp/internal/utils</title>
<g id="a_node26"><a xlink:href="https://pkg.go.dev/github.com/hasansino/goapp/internal/utils" xlink:title="github.com/hasansino/goapp/internal/utils\l49 / 1.2KB\l" target="_graphviz">
<polygon fill="none" stroke="#918b07" stroke-width="2" stroke-opacity="0.698039" points="1008,-818.07 792,-818.07 792,-782.07 1008,-782.07 1008,-818.07"/>
<text text-anchor="start" x="800" y="-801.82" font-family="Times,serif" font-size="10.00">github.com/hasansino/goapp/internal/utils</text>
<text text-anchor="start" x="800" y="-790.57" font-family="Times,serif" font-size="10.00">49 / 1.2KB</text>
</a>
</g>
</g>
<!-- github.com/hasansino/goapp/cmd/cfg2env&#45;&gt;github.com/hasansino/goapp/internal/utils -->
<g id="edge19" class="edge">
<title>github.com/hasansino/goapp/cmd/cfg2env:e&#45;&gt;github.com/hasansino/goapp/internal/utils</title>
<path fill="none" stroke="#918b07" stroke-width="2" stroke-opacity="0.698039" d="M235,-823.07C290.58,-823.07 304.42,-826.18 360,-827.07 487.98,-829.12 520.18,-833.93 648,-827.07 690.54,-824.79 736.97,-820.35 778.2,-815.71"/>
<polygon fill="#918b07" fill-opacity="0.698039" stroke="#918b07" stroke-width="2" stroke-opacity="0.698039" points="778.56,-819.2 788.09,-814.58 777.76,-812.24 778.56,-819.2"/>
</g>
<!-- github.com/hasansino/goapp/internal/api/grpc&#45;&gt;github.com/hasansino/goapp/internal/metrics -->
<g id="edge20" class="edge">
<title>github.com/hasansino/goapp/internal/api/grpc:e&#45;&gt;github.com/hasansino/goapp/internal/metrics</title>
<path fill="none" stroke="#916207" stroke-width="2" stroke-opacity="0.698039" d="M1405,-708.07C1447.09,-708.07 1493.18,-708.07 1534.18,-708.07"/>
<polygon fill="#916207" fill-opacity="0.698039" stroke="#916207" stroke-width="2" stroke-opacity="0.698039" points="1533.99,-711.57 1543.99,-708.07 1533.99,-704.57 1533.99,-711.57"/>
</g>
<!-- github.com/hasansino/goapp/internal/api/grpc/mocks -->
<g id="node4" class="node">
<title>github.com/hasansino/goapp/internal/api/grpc/mocks</title>
<g id="a_node4"><a xlink:href="https://pkg.go.dev/github.com/hasansino/goapp/internal/api/grpc/mocks" xlink:title="github.com/hasansino/goapp/internal/api/grpc/mocks\l44 / 1.5KB\l" target="_graphviz">
<polygon fill="none" stroke="#320791" stroke-width="2" stroke-opacity="0.698039" points="252,-895.07 0,-895.07 0,-859.07 252,-859.07 252,-895.07"/>
<text text-anchor="start" x="8" y="-878.82" font-family="Times,serif" font-size="10.00">github.com/hasansino/goapp/internal/api/grpc/mocks</text>
<text text-anchor="start" x="8" y="-867.57" font-family="Times,serif" font-size="10.00">44 / 1.5KB</text>
</a>
</g>
</g>
<!-- github.com/hasansino/goapp/internal/api/http/middleware -->
<g id="node6" class="node">
<title>github.com/hasansino/goapp/internal/api/http/middleware</title>
<g id="a_node6"><a xlink:href="https://pkg.go.dev/github.com/hasansino/goapp/internal/api/http/middleware" xlink:title="github.com/hasansino/goapp/internal/api/http/middleware\l68 / 1.9KB\l" target="_graphviz">
<polygon fill="none" stroke="#910757" stroke-width="2" stroke-opacity="0.698039" points="1440,-672.07 1152,-672.07 1152,-636.07 1440,-636.07 1440,-672.07"/>
<text text-anchor="start" x="1160" y="-655.82" font-family="Times,serif" font-size="10.00">github.com/hasansino/goapp/internal/api/http/middleware</text>
<text text-anchor="start" x="1160" y="-644.57" font-family="Times,serif" font-size="10.00">68 / 1.9KB</text>
</a>
</g>
</g>
<!-- github.com/hasansino/goapp/internal/api/http&#45;&gt;github.com/hasansino/goapp/internal/api/http/middleware -->
<g id="edge21" class="edge">
<title>github.com/hasansino/goapp/internal/api/http:e&#45;&gt;github.com/hasansino/goapp/internal/api/http/middleware</title>
<path fill="none" stroke="#910757" stroke-width="2" stroke-opacity="0.698039" d="M1009,-670.07C1050.91,-670.07 1096.23,-668.34 1138.16,-666.01"/>
<polygon fill="#910757" fill-opacity="0.698039" stroke="#910757" stroke-width="2" stroke-opacity="0.698039" points="1138.25,-669.51 1148.04,-665.44 1137.85,-662.52 1138.25,-669.51"/>
</g>
<!-- github.com/hasansino/goapp/internal/api/http/middleware&#45;&gt;github.com/hasansino/goapp/internal/metrics -->
<g id="edge22" class="edge">
<title>github.com/hasansino/goapp/internal/api/http/middleware:e&#45;&gt;github.com/hasansino/goapp/internal/metrics</title>
<path fill="none" stroke="#916207" stroke-width="2" stroke-opacity="0.698039" d="M1440,-654.07C1493.94,-654.07 1553.27,-670.26 1595.91,-684.91"/>
<polygon fill="#916207" fill-opacity="0.698039" stroke="#916207" stroke-width="2" stroke-opacity="0.698039" points="1594.58,-688.15 1605.18,-688.18 1596.91,-681.55 1594.58,-688.15"/>
</g>
<!-- github.com/hasansino/goapp/internal/api/http/mocks -->
<g id="node7" class="node">
<title>github.com/hasansino/goapp/internal/api/http/mocks</title>
<g id="a_node7"><a xlink:href="https://pkg.go.dev/github.com/hasansino/goapp/internal/api/http/mocks" xlink:title="github.com/hasansino/goapp/internal/api/http/mocks\l44 / 1.5KB\l" target="_graphviz">
<polygon fill="none" stroke="#359107" stroke-width="2" stroke-opacity="0.698039" points="252,-949.07 0,-949.07 0,-913.07 252,-913.07 252,-949.07"/>
<text text-anchor="start" x="8" y="-932.82" font-family="Times,serif" font-size="10.00">github.com/hasansino/goapp/internal/api/http/mocks</text>
<text text-anchor="start" x="8" y="-921.57" font-family="Times,serif" font-size="10.00">44 / 1.5KB</text>
</a>
</g>
</g>
<!-- github.com/hasansino/goapp/internal/config&#45;&gt;github.com/hasansino/goapp/internal/utils -->
<g id="edge23" class="edge">
<title>github.com/hasansino/goapp/internal/config:e&#45;&gt;github.com/hasansino/goapp/internal/utils</title>
<path fill="none" stroke="#918b07" stroke-width="2" stroke-opacity="0.698039" d="M613,-800.07C667.24,-800.07 727.27,-800.07 778.27,-800.07"/>
<polygon fill="#918b07" fill-opacity="0.698039" stroke="#918b07" stroke-width="2" stroke-opacity="0.698039" points="778,-803.57 788,-800.07 778,-796.57 778,-803.57"/>
</g>
<!-- github.com/hasansino/goapp/internal/database/sqlite/migrate&#45;&gt;github.com/hasansino/goapp/internal/database/sqlite -->
<g id="edge24" class="edge">
<title>github.com/hasansino/goapp/internal/database/sqlite/migrate:e&#45;&gt;github.com/hasansino/goapp/internal/database/sqlite</title>
<path fill="none" stroke="#071591" stroke-width="2" stroke-opacity="0.698039" d="M648,-444.07C769.57,-444.07 854.17,-295.08 885.53,-229.47"/>
<polygon fill="#071591" fill-opacity="0.698039" stroke="#071591" stroke-width="2" stroke-opacity="0.698039" points="888.6,-231.18 889.65,-220.63 882.26,-228.22 888.6,-231.18"/>
</g>
<!-- github.com/hasansino/goapp/internal/example/domain -->
<g id="node18" class="node">
<title>github.com/hasansino/goapp/internal/example/domain</title>
<g id="a_node18"><a xlink:href="https://pkg.go.dev/github.com/hasansino/goapp/internal/example/domain" xlink:title="github.com/hasansino/goapp/internal/example/domain\l15 / 361B\l" target="_graphviz">
<polygon fill="none" stroke="#91074b" stroke-width="2" stroke-opacity="0.698039" points="1422,-577.07 1170,-577.07 1170,-541.07 1422,-541.07 1422,-577.07"/>
<text text-anchor="start" x="1178" y="-560.82" font-family="Times,serif" font-size="10.00">github.com/hasansino/goapp/internal/example/domain</text>
<text text-anchor="start" x="1178" y="-549.57" font-family="Times,serif" font-size="10.00">15 / 361B</text>
</a>
</g>
</g>
<!-- github.com/hasansino/goapp/internal/example&#45;&gt;github.com/hasansino/goapp/internal/example/domain -->
<g id="edge25" class="edge">
<title>github.com/hasansino/goapp/internal/example:e&#45;&gt;github.com/hasansino/goapp/internal/example/domain</title>
<path fill="none" stroke="#91074b" stroke-width="2" stroke-opacity="0.698039" d="M1009,-578.07C1057.09,-578.07 1109.63,-575.36 1156.4,-571.99"/>
<polygon fill="#91074b" fill-opacity="0.698039" stroke="#91074b" stroke-width="2" stroke-opacity="0.698039" points="1156.38,-575.5 1166.1,-571.27 1155.87,-568.52 1156.38,-575.5"/>
</g>
<!-- github.com/hasansino/goapp/internal/example/models -->
<g id="node20" class="node">
<title>github.com/hasansino/goapp/internal/example/models</title>
<g id="a_node20"><a xlink:href="https://pkg.go.dev/github.com/hasansino/goapp/internal/example/models" xlink:title="github.com/hasansino/goapp/internal/example/models\l15 / 365B\l" target="_graphviz">
<polygon fill="none" stroke="#072891" stroke-width="2" stroke-opacity="0.698039" points="1422,-504.07 1170,-504.07 1170,-468.07 1422,-468.07 1422,-504.07"/>
<text text-anchor="start" x="1178" y="-487.82" font-family="Times,serif" font-size="10.00">github.com/hasansino/goapp/internal/example/models</text>
<text text-anchor="start" x="1178" y="-476.57" font-family="Times,serif" font-size="10.00">15 / 365B</text>
</a>
</g>
</g>
<!-- github.com/hasansino/goapp/internal/example&#45;&gt;github.com/hasansino/goapp/internal/example/models -->
<g id="edge26" class="edge">
<title>github.com/hasansino/goapp/internal/example:e&#45;&gt;github.com/hasansino/goapp/internal/example/models</title>
<path fill="none" stroke="#072891" stroke-width="2" stroke-opacity="0.698039" d="M1009,-578.07C1009,-578.07 1139.24,-536.18 1223.94,-508.93"/>
<polygon fill="#072891" fill-opacity="0.698039" stroke="#072891" stroke-width="2" stroke-opacity="0.698039" points="1224.76,-512.34 1233.21,-505.95 1222.61,-505.68 1224.76,-512.34"/>
</g>
<!-- github.com/hasansino/goapp/internal/example/mocks -->
<g id="node19" class="node">
<title>github.com/hasansino/goapp/internal/example/mocks</title>
<g id="a_node19"><a xlink:href="https://pkg.go.dev/github.com/hasansino/goapp/internal/example/mocks" xlink:title="github.com/hasansino/goapp/internal/example/mocks\l179 / 6.5KB\l" target="_graphviz">
<polygon fill="none" stroke="#072391" stroke-width="2" stroke-opacity="0.698039" points="1026,-450.07 774,-450.07 774,-414.07 1026,-414.07 1026,-450.07"/>
<text text-anchor="start" x="782" y="-433.82" font-family="Times,serif" font-size="10.00">github.com/hasansino/goapp/internal/example/mocks</text>
<text text-anchor="start" x="782" y="-422.57" font-family="Times,serif" font-size="10.00">179 / 6.5KB</text>
</a>
</g>
</g>
<!-- github.com/hasansino/goapp/internal/example/mocks&#45;&gt;github.com/hasansino/goapp/internal/example/models -->
<g id="edge27" class="edge">
<title>github.com/hasansino/goapp/internal/example/mocks:e&#45;&gt;github.com/hasansino/goapp/internal/example/models</title>
<path fill="none" stroke="#072891" stroke-width="2" stroke-opacity="0.698039" d="M1027,-432.07C1094.56,-432.07 1169.84,-448.76 1223.37,-463.59"/>
<polygon fill="#072891" fill-opacity="0.698039" stroke="#072891" stroke-width="2" stroke-opacity="0.698039" points="1222.33,-466.93 1232.9,-466.28 1224.23,-460.19 1222.33,-466.93"/>
</g>
<!-- github.com/hasansino/goapp/internal/example/provider/grpc&#45;&gt;github.com/hasansino/goapp/internal/example -->
<g id="edge28" class="edge">
<title>github.com/hasansino/goapp/internal/example/provider/grpc:e&#45;&gt;github.com/hasansino/goapp/internal/example</title>
<path fill="none" stroke="#91072a" stroke-width="2" stroke-opacity="0.698039" d="M648,-536.07C675.92,-536.07 737.47,-546.31 792.62,-556.68"/>
<polygon fill="#91072a" fill-opacity="0.698039" stroke="#91072a" stroke-width="2" stroke-opacity="0.698039" points="791.92,-560.11 802.4,-558.53 793.23,-553.23 791.92,-560.11"/>
</g>
<!-- github.com/hasansino/goapp/internal/example/provider/grpc&#45;&gt;github.com/hasansino/goapp/internal/example/domain -->
<g id="edge29" class="edge">
<title>github.com/hasansino/goapp/internal/example/provider/grpc:e&#45;&gt;github.com/hasansino/goapp/internal/example/domain</title>
<path fill="none" stroke="#91074b" stroke-width="2" stroke-opacity="0.698039" d="M648,-536.07C823.4,-536.07 1025.38,-544.62 1156.35,-551.29"/>
<polygon fill="#91074b" fill-opacity="0.698039" stroke="#91074b" stroke-width="2" stroke-opacity="0.698039" points="1156.01,-554.78 1166.18,-551.8 1156.37,-547.79 1156.01,-554.78"/>
</g>
<!-- github.com/hasansino/goapp/internal/example/provider/http&#45;&gt;github.com/hasansino/goapp/internal/api/http -->
<g id="edge30" class="edge">
<title>github.com/hasansino/goapp/internal/example/provider/http:e&#45;&gt;github.com/hasansino/goapp/internal/api/http</title>
<path fill="none" stroke="#076b91" stroke-width="2" stroke-opacity="0.698039" d="M648,-628.07C675.92,-628.07 737.47,-638.31 792.62,-648.68"/>
<polygon fill="#076b91" fill-opacity="0.698039" stroke="#076b91" stroke-width="2" stroke-opacity="0.698039" points="791.92,-652.11 802.4,-650.53 793.23,-645.23 791.92,-652.11"/>
</g>
<!-- github.com/hasansino/goapp/internal/example/provider/http&#45;&gt;github.com/hasansino/goapp/internal/example -->
<g id="edge31" class="edge">
<title>github.com/hasansino/goapp/internal/example/provider/http:e&#45;&gt;github.com/hasansino/goapp/internal/example</title>
<path fill="none" stroke="#91072a" stroke-width="2" stroke-opacity="0.698039" d="M648,-628.07C663.49,-628.07 736.59,-613.23 799.93,-599.72"/>
<polygon fill="#91072a" fill-opacity="0.698039" stroke="#91072a" stroke-width="2" stroke-opacity="0.698039" points="800.44,-603.19 809.49,-597.68 798.98,-596.35 800.44,-603.19"/>
</g>
<!-- github.com/hasansino/goapp/internal/example/provider/http&#45;&gt;github.com/hasansino/goapp/internal/example/domain -->
<g id="edge32" class="edge">
<title>github.com/hasansino/goapp/internal/example/provider/http:e&#45;&gt;github.com/hasansino/goapp/internal/example/domain</title>
<path fill="none" stroke="#91074b" stroke-width="2" stroke-opacity="0.698039" d="M648,-628.07C824.3,-628.07 868.96,-626.11 1044,-605.07 1093.65,-599.1 1148.32,-589.45 1193.93,-580.53"/>
<polygon fill="#91074b" fill-opacity="0.698039" stroke="#91074b" stroke-width="2" stroke-opacity="0.698039" points="1194.44,-584 1203.57,-578.62 1193.08,-577.13 1194.44,-584"/>
</g>
<!-- github.com/hasansino/goapp/internal/example/provider/http&#45;&gt;github.com/hasansino/goapp/internal/utils -->
<g id="edge33" class="edge">
<title>github.com/hasansino/goapp/internal/example/provider/http:e&#45;&gt;github.com/hasansino/goapp/internal/utils</title>
<path fill="none" stroke="#918b07" stroke-width="2" stroke-opacity="0.698039" d="M648,-628.07C660.73,-628.07 796.61,-725.6 862.96,-773.77"/>
<polygon fill="#918b07" fill-opacity="0.698039" stroke="#918b07" stroke-width="2" stroke-opacity="0.698039" points="860.76,-776.51 870.91,-779.56 864.88,-770.84 860.76,-776.51"/>
</g>
<!-- github.com/hasansino/goapp/internal/example/repository/gorm&#45;&gt;github.com/hasansino/goapp/internal/example/domain -->
<g id="edge34" class="edge">
<title>github.com/hasansino/goapp/internal/example/repository/gorm:e&#45;&gt;github.com/hasansino/goapp/internal/example/domain</title>
<path fill="none" stroke="#91074b" stroke-width="2" stroke-opacity="0.698039" d="M1044,-486.07C1062.21,-486.07 1156.26,-514.77 1223.89,-536.18"/>
<polygon fill="#91074b" fill-opacity="0.698039" stroke="#91074b" stroke-width="2" stroke-opacity="0.698039" points="1222.71,-539.47 1233.3,-539.17 1224.82,-532.8 1222.71,-539.47"/>
</g>
<!-- github.com/hasansino/goapp/internal/example/repository/gorm&#45;&gt;github.com/hasansino/goapp/internal/example/models -->
<g id="edge35" class="edge">
<title>github.com/hasansino/goapp/internal/example/repository/gorm:e&#45;&gt;github.com/hasansino/goapp/internal/example/models</title>
<path fill="none" stroke="#072891" stroke-width="2" stroke-opacity="0.698039" d="M1044,-486.07C1080.45,-486.07 1119.87,-486.07 1156.44,-486.07"/>
<polygon fill="#072891" fill-opacity="0.698039" stroke="#072891" stroke-width="2" stroke-opacity="0.698039" points="1156.21,-489.57 1166.21,-486.07 1156.21,-482.57 1156.21,-489.57"/>
</g>
<!-- github.com/hasansino/goapp/tests -->
<g id="node27" class="node">
<title>github.com/hasansino/goapp/tests</title>
<g id="a_node27"><a xlink:href="https://pkg.go.dev/github.com/hasansino/goapp/tests" xlink:title="github.com/hasansino/goapp/tests\l0 / 0B\l" target="_graphviz">
<polygon fill="none" stroke="#910772" stroke-width="2" stroke-opacity="0.698039" points="216,-1003.07 36,-1003.07 36,-967.07 216,-967.07 216,-1003.07"/>
<text text-anchor="start" x="44" y="-986.82" font-family="Times,serif" font-size="10.00">github.com/hasansino/goapp/tests</text>
<text text-anchor="start" x="44" y="-975.57" font-family="Times,serif" font-size="10.00">0 / 0B</text>
</a>
</g>
</g>
</g>
</svg>
