<?xml version="1.0" encoding="UTF-8" standalone="no"?>
<!DOCTYPE svg PUBLIC "-//W3C//DTD SVG 1.1//EN"
 "http://www.w3.org/Graphics/SVG/1.1/DTD/svg11.dtd">
<!-- Generated by graphviz version 12.2.1 (20241206.2353)
 -->
<!-- Title: G Pages: 1 -->
<svg width="1664pt" height="666pt"
 viewBox="0.00 0.00 1664.00 666.00" xmlns="http://www.w3.org/2000/svg" xmlns:xlink="http://www.w3.org/1999/xlink">
<g id="graph0" class="graph" transform="scale(1 1) rotate(0) translate(4 662)">
<title>G</title>
<polygon fill="white" stroke="none" points="-4,4 -4,-662 1660,-662 1660,4 -4,4"/>
<!-- github.com/hasansino/goapp/cmd/app -->
<g id="node1" class="node">
<title>github.com/hasansino/goapp/cmd/app</title>
<g id="a_node1"><a xlink:href="https://pkg.go.dev/github.com/hasansino/goapp/cmd/app" xlink:title="github.com/hasansino/goapp/cmd/app\l345 / 10.3KB\l" target="_graphviz">
<polygon fill="none" stroke="#915007" stroke-width="2" stroke-opacity="0.698039" points="198,-297 18,-297 18,-261 198,-261 198,-297"/>
<text text-anchor="start" x="26" y="-280.75" font-family="Times,serif" font-size="10.00">github.com/hasansino/goapp/cmd/app</text>
<text text-anchor="start" x="26" y="-269.5" font-family="Times,serif" font-size="10.00">345 / 10.3KB</text>
</a>
</g>
</g>
<!-- github.com/hasansino/goapp/internal/api -->
<g id="node3" class="node">
<title>github.com/hasansino/goapp/internal/api</title>
<g id="a_node3"><a xlink:href="https://pkg.go.dev/github.com/hasansino/goapp/internal/api" xlink:title="github.com/hasansino/goapp/internal/api\l194 / 5.2KB\l" target="_graphviz">
<polygon fill="none" stroke="#917c07" stroke-width="2" stroke-opacity="0.698039" points="954,-458 738,-458 738,-422 954,-422 954,-458"/>
<text text-anchor="start" x="746" y="-441.75" font-family="Times,serif" font-size="10.00">github.com/hasansino/goapp/internal/api</text>
<text text-anchor="start" x="746" y="-430.5" font-family="Times,serif" font-size="10.00">194 / 5.2KB</text>
</a>
</g>
</g>
<!-- github.com/hasansino/goapp/cmd/app&#45;&gt;github.com/hasansino/goapp/internal/api -->
<g id="edge1" class="edge">
<title>github.com/hasansino/goapp/cmd/app:e&#45;&gt;github.com/hasansino/goapp/internal/api</title>
<path fill="none" stroke="#917c07" stroke-width="2" stroke-opacity="0.698039" d="M199,-279C285.78,-279 245.81,-391.36 324,-429 392,-461.73 592.61,-456.47 724.13,-448.84"/>
<polygon fill="#917c07" fill-opacity="0.698039" stroke="#917c07" stroke-width="2" stroke-opacity="0.698039" points="724.23,-452.34 734.01,-448.25 723.82,-445.35 724.23,-452.34"/>
</g>
<!-- github.com/hasansino/goapp/internal/config -->
<g id="node6" class="node">
<title>github.com/hasansino/goapp/internal/config</title>
<g id="a_node6"><a xlink:href="https://pkg.go.dev/github.com/hasansino/goapp/internal/config" xlink:title="github.com/hasansino/goapp/internal/config\l154 / 5.2KB\l" target="_graphviz">
<polygon fill="none" stroke="#760791" stroke-width="2" stroke-opacity="0.698039" points="576,-550 360,-550 360,-514 576,-514 576,-550"/>
<text text-anchor="start" x="368" y="-533.75" font-family="Times,serif" font-size="10.00">github.com/hasansino/goapp/internal/config</text>
<text text-anchor="start" x="368" y="-522.5" font-family="Times,serif" font-size="10.00">154 / 5.2KB</text>
</a>
</g>
</g>
<!-- github.com/hasansino/goapp/cmd/app&#45;&gt;github.com/hasansino/goapp/internal/config -->
<g id="edge2" class="edge">
<title>github.com/hasansino/goapp/cmd/app:e&#45;&gt;github.com/hasansino/goapp/internal/config</title>
<path fill="none" stroke="#760791" stroke-width="2" stroke-opacity="0.698039" d="M199,-279C311.85,-279 233.36,-432.78 324,-500 331.15,-505.3 339.02,-509.76 347.28,-513.49"/>
<polygon fill="#760791" fill-opacity="0.698039" stroke="#760791" stroke-width="2" stroke-opacity="0.698039" points="345.79,-516.66 356.37,-517.17 348.42,-510.17 345.79,-516.66"/>
</g>
<!-- github.com/hasansino/goapp/internal/database/pgsql -->
<g id="node7" class="node">
<title>github.com/hasansino/goapp/internal/database/pgsql</title>
<g id="a_node7"><a xlink:href="https://pkg.go.dev/github.com/hasansino/goapp/internal/database/pgsql" xlink:title="github.com/hasansino/goapp/internal/database/pgsql\l98 / 2.3KB\l" target="_graphviz">
<polygon fill="none" stroke="#130791" stroke-width="2" stroke-opacity="0.698039" points="972,-300 720,-300 720,-264 972,-264 972,-300"/>
<text text-anchor="start" x="728" y="-283.75" font-family="Times,serif" font-size="10.00">github.com/hasansino/goapp/internal/database/pgsql</text>
<text text-anchor="start" x="728" y="-272.5" font-family="Times,serif" font-size="10.00">98 / 2.3KB</text>
</a>
</g>
</g>
<!-- github.com/hasansino/goapp/cmd/app&#45;&gt;github.com/hasansino/goapp/internal/database/pgsql -->
<g id="edge3" class="edge">
<title>github.com/hasansino/goapp/cmd/app:e&#45;&gt;github.com/hasansino/goapp/internal/database/pgsql</title>
<path fill="none" stroke="#130791" stroke-width="2" stroke-opacity="0.698039" d="M199,-279C254.58,-279 268.42,-282.11 324,-283 451.98,-285.05 484,-283.27 612,-283 642.58,-282.93 675.41,-282.82 706.5,-282.69"/>
<polygon fill="#130791" fill-opacity="0.698039" stroke="#130791" stroke-width="2" stroke-opacity="0.698039" points="706.23,-286.19 716.21,-282.65 706.2,-279.19 706.23,-286.19"/>
</g>
<!-- github.com/hasansino/goapp/internal/database/pgsql/migrate -->
<g id="node8" class="node">
<title>github.com/hasansino/goapp/internal/database/pgsql/migrate</title>
<g id="a_node8"><a xlink:href="https://pkg.go.dev/github.com/hasansino/goapp/internal/database/pgsql/migrate" xlink:title="github.com/hasansino/goapp/internal/database/pgsql/migrate\l28 / 557B\l" target="_graphviz">
<polygon fill="none" stroke="#07916d" stroke-width="2" stroke-opacity="0.698039" points="612,-274 324,-274 324,-238 612,-238 612,-274"/>
<text text-anchor="start" x="332" y="-257.75" font-family="Times,serif" font-size="10.00">github.com/hasansino/goapp/internal/database/pgsql/migrate</text>
<text text-anchor="start" x="332" y="-246.5" font-family="Times,serif" font-size="10.00">28 / 557B</text>
</a>
</g>
</g>
<!-- github.com/hasansino/goapp/cmd/app&#45;&gt;github.com/hasansino/goapp/internal/database/pgsql/migrate -->
<g id="edge4" class="edge">
<title>github.com/hasansino/goapp/cmd/app:e&#45;&gt;github.com/hasansino/goapp/internal/database/pgsql/migrate</title>
<path fill="none" stroke="#07916d" stroke-width="2" stroke-opacity="0.698039" d="M199,-279C235.13,-279 273.91,-276.9 310.43,-273.97"/>
<polygon fill="#07916d" fill-opacity="0.698039" stroke="#07916d" stroke-width="2" stroke-opacity="0.698039" points="310.55,-277.47 320.22,-273.15 309.97,-270.49 310.55,-277.47"/>
</g>
<!-- github.com/hasansino/goapp/internal/database/sqlite -->
<g id="node9" class="node">
<title>github.com/hasansino/goapp/internal/database/sqlite</title>
<g id="a_node9"><a xlink:href="https://pkg.go.dev/github.com/hasansino/goapp/internal/database/sqlite" xlink:title="github.com/hasansino/goapp/internal/database/sqlite\l88 / 2.1KB\l" target="_graphviz">
<polygon fill="none" stroke="#071591" stroke-width="2" stroke-opacity="0.698039" points="972,-40 720,-40 720,-4 972,-4 972,-40"/>
<text text-anchor="start" x="728" y="-23.75" font-family="Times,serif" font-size="10.00">github.com/hasansino/goapp/internal/database/sqlite</text>
<text text-anchor="start" x="728" y="-12.5" font-family="Times,serif" font-size="10.00">88 / 2.1KB</text>
</a>
</g>
</g>
<!-- github.com/hasansino/goapp/cmd/app&#45;&gt;github.com/hasansino/goapp/internal/database/sqlite -->
<g id="edge5" class="edge">
<title>github.com/hasansino/goapp/cmd/app:e&#45;&gt;github.com/hasansino/goapp/internal/database/sqlite</title>
<path fill="none" stroke="#071591" stroke-width="2" stroke-opacity="0.698039" d="M199,-279C302.32,-279 236.45,-137.87 324,-83 332.12,-77.91 554.98,-53.12 706.56,-36.75"/>
<polygon fill="#071591" fill-opacity="0.698039" stroke="#071591" stroke-width="2" stroke-opacity="0.698039" points="706.6,-40.27 716.16,-35.72 705.85,-33.31 706.6,-40.27"/>
</g>
<!-- github.com/hasansino/goapp/internal/database/sqlite/migrate -->
<g id="node10" class="node">
<title>github.com/hasansino/goapp/internal/database/sqlite/migrate</title>
<g id="a_node10"><a xlink:href="https://pkg.go.dev/github.com/hasansino/goapp/internal/database/sqlite/migrate" xlink:title="github.com/hasansino/goapp/internal/database/sqlite/migrate\l29 / 0.7KB\l" target="_graphviz">
<polygon fill="none" stroke="#072391" stroke-width="2" stroke-opacity="0.698039" points="612,-36 324,-36 324,0 612,0 612,-36"/>
<text text-anchor="start" x="332" y="-19.75" font-family="Times,serif" font-size="10.00">github.com/hasansino/goapp/internal/database/sqlite/migrate</text>
<text text-anchor="start" x="332" y="-8.5" font-family="Times,serif" font-size="10.00">29 / 0.7KB</text>
</a>
</g>
</g>
<!-- github.com/hasansino/goapp/cmd/app&#45;&gt;github.com/hasansino/goapp/internal/database/sqlite/migrate -->
<g id="edge6" class="edge">
<title>github.com/hasansino/goapp/cmd/app:e&#45;&gt;github.com/hasansino/goapp/internal/database/sqlite/migrate</title>
<path fill="none" stroke="#072391" stroke-width="2" stroke-opacity="0.698039" d="M199,-279C314.95,-279 231.39,-119.77 324,-50 327.4,-47.44 330.97,-45.07 334.67,-42.89"/>
<polygon fill="#072391" fill-opacity="0.698039" stroke="#072391" stroke-width="2" stroke-opacity="0.698039" points="336.22,-46.03 343.45,-38.28 332.97,-39.83 336.22,-46.03"/>
</g>
<!-- github.com/hasansino/goapp/internal/example -->
<g id="node11" class="node">
<title>github.com/hasansino/goapp/internal/example</title>
<g id="a_node11"><a xlink:href="https://pkg.go.dev/github.com/hasansino/goapp/internal/example" xlink:title="github.com/hasansino/goapp/internal/example\l83 / 2.4KB\l" target="_graphviz">
<polygon fill="none" stroke="#91072a" stroke-width="2" stroke-opacity="0.698039" points="954,-354 738,-354 738,-318 954,-318 954,-354"/>
<text text-anchor="start" x="746" y="-337.75" font-family="Times,serif" font-size="10.00">github.com/hasansino/goapp/internal/example</text>
<text text-anchor="start" x="746" y="-326.5" font-family="Times,serif" font-size="10.00">83 / 2.4KB</text>
</a>
</g>
</g>
<!-- github.com/hasansino/goapp/cmd/app&#45;&gt;github.com/hasansino/goapp/internal/example -->
<g id="edge7" class="edge">
<title>github.com/hasansino/goapp/cmd/app:e&#45;&gt;github.com/hasansino/goapp/internal/example</title>
<path fill="none" stroke="#91072a" stroke-width="2" stroke-opacity="0.698039" d="M199,-279C258.84,-279 265.24,-240.32 324,-229 449.69,-204.79 490.45,-188.88 612,-229 668.72,-247.72 665.58,-284.36 720,-309 722.77,-310.26 725.61,-311.45 728.49,-312.6"/>
<polygon fill="#91072a" fill-opacity="0.698039" stroke="#91072a" stroke-width="2" stroke-opacity="0.698039" points="727.13,-315.83 737.72,-315.96 729.52,-309.25 727.13,-315.83"/>
</g>
<!-- github.com/hasansino/goapp/internal/example/provider/http -->
<g id="node15" class="node">
<title>github.com/hasansino/goapp/internal/example/provider/http</title>
<g id="a_node15"><a xlink:href="https://pkg.go.dev/github.com/hasansino/goapp/internal/example/provider/http" xlink:title="github.com/hasansino/goapp/internal/example/provider/http\l85 / 2.4KB\l" target="_graphviz">
<polygon fill="none" stroke="#915907" stroke-width="2" stroke-opacity="0.698039" points="612,-420 324,-420 324,-384 612,-384 612,-420"/>
<text text-anchor="start" x="332" y="-403.75" font-family="Times,serif" font-size="10.00">github.com/hasansino/goapp/internal/example/provider/http</text>
<text text-anchor="start" x="332" y="-392.5" font-family="Times,serif" font-size="10.00">85 / 2.4KB</text>
</a>
</g>
</g>
<!-- github.com/hasansino/goapp/cmd/app&#45;&gt;github.com/hasansino/goapp/internal/example/provider/http -->
<g id="edge8" class="edge">
<title>github.com/hasansino/goapp/cmd/app:e&#45;&gt;github.com/hasansino/goapp/internal/example/provider/http</title>
<path fill="none" stroke="#915907" stroke-width="2" stroke-opacity="0.698039" d="M199,-279C269.05,-279 260.06,-346.39 324,-375 326.82,-376.26 329.7,-377.47 332.62,-378.61"/>
<polygon fill="#915907" fill-opacity="0.698039" stroke="#915907" stroke-width="2" stroke-opacity="0.698039" points="331.42,-381.9 342.02,-381.99 333.79,-375.31 331.42,-381.9"/>
</g>
<!-- github.com/hasansino/goapp/internal/example/repository/pgsql -->
<g id="node16" class="node">
<title>github.com/hasansino/goapp/internal/example/repository/pgsql</title>
<g id="a_node16"><a xlink:href="https://pkg.go.dev/github.com/hasansino/goapp/internal/example/repository/pgsql" xlink:title="github.com/hasansino/goapp/internal/example/repository/pgsql\l92 / 2.5KB\l" target="_graphviz">
<polygon fill="none" stroke="#073a91" stroke-width="2" stroke-opacity="0.698039" points="612,-182 324,-182 324,-146 612,-146 612,-182"/>
<text text-anchor="start" x="332" y="-165.75" font-family="Times,serif" font-size="10.00">github.com/hasansino/goapp/internal/example/repository/pgsql</text>
<text text-anchor="start" x="332" y="-154.5" font-family="Times,serif" font-size="10.00">92 / 2.5KB</text>
</a>
</g>
</g>
<!-- github.com/hasansino/goapp/cmd/app&#45;&gt;github.com/hasansino/goapp/internal/example/repository/pgsql -->
<g id="edge9" class="edge">
<title>github.com/hasansino/goapp/cmd/app:e&#45;&gt;github.com/hasansino/goapp/internal/example/repository/pgsql</title>
<path fill="none" stroke="#073a91" stroke-width="2" stroke-opacity="0.698039" d="M199,-279C265.69,-279 262.66,-222.16 324,-196 332.11,-192.54 340.65,-189.43 349.35,-186.64"/>
<polygon fill="#073a91" fill-opacity="0.698039" stroke="#073a91" stroke-width="2" stroke-opacity="0.698039" points="350.26,-190.02 358.83,-183.78 348.24,-183.32 350.26,-190.02"/>
</g>
<!-- github.com/hasansino/goapp/internal/example/repository/sqlite -->
<g id="node17" class="node">
<title>github.com/hasansino/goapp/internal/example/repository/sqlite</title>
<g id="a_node17"><a xlink:href="https://pkg.go.dev/github.com/hasansino/goapp/internal/example/repository/sqlite" xlink:title="github.com/hasansino/goapp/internal/example/repository/sqlite\l92 / 2.5KB\l" target="_graphviz">
<polygon fill="none" stroke="#918207" stroke-width="2" stroke-opacity="0.698039" points="612,-128 324,-128 324,-92 612,-92 612,-128"/>
<text text-anchor="start" x="332" y="-111.75" font-family="Times,serif" font-size="10.00">github.com/hasansino/goapp/internal/example/repository/sqlite</text>
<text text-anchor="start" x="332" y="-100.5" font-family="Times,serif" font-size="10.00">92 / 2.5KB</text>
</a>
</g>
</g>
<!-- github.com/hasansino/goapp/cmd/app&#45;&gt;github.com/hasansino/goapp/internal/example/repository/sqlite -->
<g id="edge10" class="edge">
<title>github.com/hasansino/goapp/cmd/app:e&#45;&gt;github.com/hasansino/goapp/internal/example/repository/sqlite</title>
<path fill="none" stroke="#918207" stroke-width="2" stroke-opacity="0.698039" d="M199,-279C283.08,-279 250.94,-178.62 324,-137 325.56,-136.11 327.15,-135.25 328.76,-134.41"/>
<polygon fill="#918207" fill-opacity="0.698039" stroke="#918207" stroke-width="2" stroke-opacity="0.698039" points="330.18,-137.61 337.77,-130.22 327.23,-131.26 330.18,-137.61"/>
</g>
<!-- github.com/hasansino/goapp/internal/metrics -->
<g id="node18" class="node">
<title>github.com/hasansino/goapp/internal/metrics</title>
<g id="a_node18"><a xlink:href="https://pkg.go.dev/github.com/hasansino/goapp/internal/metrics" xlink:title="github.com/hasansino/goapp/internal/metrics\l93 / 2.5KB\l" target="_graphviz">
<polygon fill="none" stroke="#916207" stroke-width="2" stroke-opacity="0.698039" points="1656,-481 1440,-481 1440,-445 1656,-445 1656,-481"/>
<text text-anchor="start" x="1448" y="-464.75" font-family="Times,serif" font-size="10.00">github.com/hasansino/goapp/internal/metrics</text>
<text text-anchor="start" x="1448" y="-453.5" font-family="Times,serif" font-size="10.00">93 / 2.5KB</text>
</a>
</g>
</g>
<!-- github.com/hasansino/goapp/cmd/app&#45;&gt;github.com/hasansino/goapp/internal/metrics -->
<g id="edge11" class="edge">
<title>github.com/hasansino/goapp/cmd/app:e&#45;&gt;github.com/hasansino/goapp/internal/metrics</title>
<path fill="none" stroke="#916207" stroke-width="2" stroke-opacity="0.698039" d="M199,-279C295.31,-279 239.11,-410.52 324,-456 419.29,-507.05 1137,-481.31 1426.49,-468.64"/>
<polygon fill="#916207" fill-opacity="0.698039" stroke="#916207" stroke-width="2" stroke-opacity="0.698039" points="1426.25,-472.16 1436.09,-468.22 1425.94,-465.16 1426.25,-472.16"/>
</g>
<!-- github.com/hasansino/goapp/internal/metrics/providers/http -->
<g id="node19" class="node">
<title>github.com/hasansino/goapp/internal/metrics/providers/http</title>
<g id="a_node19"><a xlink:href="https://pkg.go.dev/github.com/hasansino/goapp/internal/metrics/providers/http" xlink:title="github.com/hasansino/goapp/internal/metrics/providers/http\l17 / 406B\l" target="_graphviz">
<polygon fill="none" stroke="#2a0791" stroke-width="2" stroke-opacity="0.698039" points="612,-366 324,-366 324,-330 612,-330 612,-366"/>
<text text-anchor="start" x="332" y="-349.75" font-family="Times,serif" font-size="10.00">github.com/hasansino/goapp/internal/metrics/providers/http</text>
<text text-anchor="start" x="332" y="-338.5" font-family="Times,serif" font-size="10.00">17 / 406B</text>
</a>
</g>
</g>
<!-- github.com/hasansino/goapp/cmd/app&#45;&gt;github.com/hasansino/goapp/internal/metrics/providers/http -->
<g id="edge12" class="edge">
<title>github.com/hasansino/goapp/cmd/app:e&#45;&gt;github.com/hasansino/goapp/internal/metrics/providers/http</title>
<path fill="none" stroke="#2a0791" stroke-width="2" stroke-opacity="0.698039" d="M199,-279C256.94,-279 267.92,-301.44 324,-316 337.29,-319.45 351.34,-322.87 365.22,-326.11"/>
<polygon fill="#2a0791" fill-opacity="0.698039" stroke="#2a0791" stroke-width="2" stroke-opacity="0.698039" points="364.43,-329.52 374.96,-328.36 366,-322.7 364.43,-329.52"/>
</g>
<!-- github.com/hasansino/goapp/cmd/cfg2env -->
<g id="node2" class="node">
<title>github.com/hasansino/goapp/cmd/cfg2env</title>
<g id="a_node2"><a xlink:href="https://pkg.go.dev/github.com/hasansino/goapp/cmd/cfg2env" xlink:title="github.com/hasansino/goapp/cmd/cfg2env\l22 / 510B\l" target="_graphviz">
<polygon fill="none" stroke="#6e9107" stroke-width="2" stroke-opacity="0.698039" points="216,-550 0,-550 0,-514 216,-514 216,-550"/>
<text text-anchor="start" x="8" y="-533.75" font-family="Times,serif" font-size="10.00">github.com/hasansino/goapp/cmd/cfg2env</text>
<text text-anchor="start" x="8" y="-522.5" font-family="Times,serif" font-size="10.00">22 / 510B</text>
</a>
</g>
</g>
<!-- github.com/hasansino/goapp/cmd/cfg2env&#45;&gt;github.com/hasansino/goapp/internal/config -->
<g id="edge13" class="edge">
<title>github.com/hasansino/goapp/cmd/cfg2env:e&#45;&gt;github.com/hasansino/goapp/internal/config</title>
<path fill="none" stroke="#760791" stroke-width="2" stroke-opacity="0.698039" d="M216,-532C258.46,-532 304.96,-532 346.27,-532"/>
<polygon fill="#760791" fill-opacity="0.698039" stroke="#760791" stroke-width="2" stroke-opacity="0.698039" points="346.18,-535.5 356.18,-532 346.18,-528.5 346.18,-535.5"/>
</g>
<!-- github.com/hasansino/goapp/internal/api/middleware -->
<g id="node4" class="node">
<title>github.com/hasansino/goapp/internal/api/middleware</title>
<g id="a_node4"><a xlink:href="https://pkg.go.dev/github.com/hasansino/goapp/internal/api/middleware" xlink:title="github.com/hasansino/goapp/internal/api/middleware\l68 / 1.9KB\l" target="_graphviz">
<polygon fill="none" stroke="#629107" stroke-width="2" stroke-opacity="0.698039" points="1332,-458 1080,-458 1080,-422 1332,-422 1332,-458"/>
<text text-anchor="start" x="1088" y="-441.75" font-family="Times,serif" font-size="10.00">github.com/hasansino/goapp/internal/api/middleware</text>
<text text-anchor="start" x="1088" y="-430.5" font-family="Times,serif" font-size="10.00">68 / 1.9KB</text>
</a>
</g>
</g>
<!-- github.com/hasansino/goapp/internal/api&#45;&gt;github.com/hasansino/goapp/internal/api/middleware -->
<g id="edge14" class="edge">
<title>github.com/hasansino/goapp/internal/api:e&#45;&gt;github.com/hasansino/goapp/internal/api/middleware</title>
<path fill="none" stroke="#629107" stroke-width="2" stroke-opacity="0.698039" d="M955,-440C991.11,-440 1030.15,-440 1066.4,-440"/>
<polygon fill="#629107" fill-opacity="0.698039" stroke="#629107" stroke-width="2" stroke-opacity="0.698039" points="1066.07,-443.5 1076.07,-440 1066.07,-436.5 1066.07,-443.5"/>
</g>
<!-- github.com/hasansino/goapp/internal/api/middleware&#45;&gt;github.com/hasansino/goapp/internal/metrics -->
<g id="edge15" class="edge">
<title>github.com/hasansino/goapp/internal/api/middleware:e&#45;&gt;github.com/hasansino/goapp/internal/metrics</title>
<path fill="none" stroke="#916207" stroke-width="2" stroke-opacity="0.698039" d="M1332,-440C1362.77,-440 1395.87,-442.36 1426.66,-445.56"/>
<polygon fill="#916207" fill-opacity="0.698039" stroke="#916207" stroke-width="2" stroke-opacity="0.698039" points="1425.91,-449 1436.23,-446.6 1426.67,-442.04 1425.91,-449"/>
</g>
<!-- github.com/hasansino/goapp/internal/api/mocks -->
<g id="node5" class="node">
<title>github.com/hasansino/goapp/internal/api/mocks</title>
<g id="a_node5"><a xlink:href="https://pkg.go.dev/github.com/hasansino/goapp/internal/api/mocks" xlink:title="github.com/hasansino/goapp/internal/api/mocks\l44 / 1.5KB\l" target="_graphviz">
<polygon fill="none" stroke="#2c0791" stroke-width="2" stroke-opacity="0.698039" points="216,-604 0,-604 0,-568 216,-568 216,-604"/>
<text text-anchor="start" x="8" y="-587.75" font-family="Times,serif" font-size="10.00">github.com/hasansino/goapp/internal/api/mocks</text>
<text text-anchor="start" x="8" y="-576.5" font-family="Times,serif" font-size="10.00">44 / 1.5KB</text>
</a>
</g>
</g>
<!-- github.com/hasansino/goapp/internal/utils -->
<g id="node20" class="node">
<title>github.com/hasansino/goapp/internal/utils</title>
<g id="a_node20"><a xlink:href="https://pkg.go.dev/github.com/hasansino/goapp/internal/utils" xlink:title="github.com/hasansino/goapp/internal/utils\l49 / 1.2KB\l" target="_graphviz">
<polygon fill="none" stroke="#918b07" stroke-width="2" stroke-opacity="0.698039" points="954,-550 738,-550 738,-514 954,-514 954,-550"/>
<text text-anchor="start" x="746" y="-533.75" font-family="Times,serif" font-size="10.00">github.com/hasansino/goapp/internal/utils</text>
<text text-anchor="start" x="746" y="-522.5" font-family="Times,serif" font-size="10.00">49 / 1.2KB</text>
</a>
</g>
</g>
<!-- github.com/hasansino/goapp/internal/config&#45;&gt;github.com/hasansino/goapp/internal/utils -->
<g id="edge16" class="edge">
<title>github.com/hasansino/goapp/internal/config:e&#45;&gt;github.com/hasansino/goapp/internal/utils</title>
<path fill="none" stroke="#918b07" stroke-width="2" stroke-opacity="0.698039" d="M577,-532C625.16,-532 678.2,-532 724.29,-532"/>
<polygon fill="#918b07" fill-opacity="0.698039" stroke="#918b07" stroke-width="2" stroke-opacity="0.698039" points="724.07,-535.5 734.07,-532 724.07,-528.5 724.07,-535.5"/>
</g>
<!-- github.com/hasansino/goapp/internal/database/sqlite/migrate&#45;&gt;github.com/hasansino/goapp/internal/database/sqlite -->
<g id="edge17" class="edge">
<title>github.com/hasansino/goapp/internal/database/sqlite/migrate:e&#45;&gt;github.com/hasansino/goapp/internal/database/sqlite</title>
<path fill="none" stroke="#071591" stroke-width="2" stroke-opacity="0.698039" d="M612,-18C642.58,-18 675.41,-18.35 706.51,-18.84"/>
<polygon fill="#071591" fill-opacity="0.698039" stroke="#071591" stroke-width="2" stroke-opacity="0.698039" points="706.16,-22.33 716.22,-19 706.28,-15.34 706.16,-22.33"/>
</g>
<!-- github.com/hasansino/goapp/internal/example/domain -->
<g id="node12" class="node">
<title>github.com/hasansino/goapp/internal/example/domain</title>
<g id="a_node12"><a xlink:href="https://pkg.go.dev/github.com/hasansino/goapp/internal/example/domain" xlink:title="github.com/hasansino/goapp/internal/example/domain\l12 / 272B\l" target="_graphviz">
<polygon fill="none" stroke="#91074b" stroke-width="2" stroke-opacity="0.698039" points="1332,-304 1080,-304 1080,-268 1332,-268 1332,-304"/>
<text text-anchor="start" x="1088" y="-287.75" font-family="Times,serif" font-size="10.00">github.com/hasansino/goapp/internal/example/domain</text>
<text text-anchor="start" x="1088" y="-276.5" font-family="Times,serif" font-size="10.00">12 / 272B</text>
</a>
</g>
</g>
<!-- github.com/hasansino/goapp/internal/example&#45;&gt;github.com/hasansino/goapp/internal/example/domain -->
<g id="edge18" class="edge">
<title>github.com/hasansino/goapp/internal/example:e&#45;&gt;github.com/hasansino/goapp/internal/example/domain</title>
<path fill="none" stroke="#91074b" stroke-width="2" stroke-opacity="0.698039" d="M955,-336C1015.57,-336 1082.81,-321.71 1132.3,-308.41"/>
<polygon fill="#91074b" fill-opacity="0.698039" stroke="#91074b" stroke-width="2" stroke-opacity="0.698039" points="1133.17,-311.81 1141.88,-305.78 1131.31,-305.06 1133.17,-311.81"/>
</g>
<!-- github.com/hasansino/goapp/internal/example/models -->
<g id="node14" class="node">
<title>github.com/hasansino/goapp/internal/example/models</title>
<g id="a_node14"><a xlink:href="https://pkg.go.dev/github.com/hasansino/goapp/internal/example/models" xlink:title="github.com/hasansino/goapp/internal/example/models\l15 / 365B\l" target="_graphviz">
<polygon fill="none" stroke="#072891" stroke-width="2" stroke-opacity="0.698039" points="1332,-174 1080,-174 1080,-138 1332,-138 1332,-174"/>
<text text-anchor="start" x="1088" y="-157.75" font-family="Times,serif" font-size="10.00">github.com/hasansino/goapp/internal/example/models</text>
<text text-anchor="start" x="1088" y="-146.5" font-family="Times,serif" font-size="10.00">15 / 365B</text>
</a>
</g>
</g>
<!-- github.com/hasansino/goapp/internal/example&#45;&gt;github.com/hasansino/goapp/internal/example/models -->
<g id="edge19" class="edge">
<title>github.com/hasansino/goapp/internal/example:e&#45;&gt;github.com/hasansino/goapp/internal/example/models</title>
<path fill="none" stroke="#072891" stroke-width="2" stroke-opacity="0.698039" d="M955,-336C980.85,-336 1110.22,-233.36 1172.02,-183.09"/>
<polygon fill="#072891" fill-opacity="0.698039" stroke="#072891" stroke-width="2" stroke-opacity="0.698039" points="1174.15,-185.87 1179.69,-176.84 1169.73,-180.44 1174.15,-185.87"/>
</g>
<!-- github.com/hasansino/goapp/internal/example/mocks -->
<g id="node13" class="node">
<title>github.com/hasansino/goapp/internal/example/mocks</title>
<g id="a_node13"><a xlink:href="https://pkg.go.dev/github.com/hasansino/goapp/internal/example/mocks" xlink:title="github.com/hasansino/goapp/internal/example/mocks\l110 / 4.0KB\l" target="_graphviz">
<polygon fill="none" stroke="#072391" stroke-width="2" stroke-opacity="0.698039" points="972,-132 720,-132 720,-96 972,-96 972,-132"/>
<text text-anchor="start" x="728" y="-115.75" font-family="Times,serif" font-size="10.00">github.com/hasansino/goapp/internal/example/mocks</text>
<text text-anchor="start" x="728" y="-104.5" font-family="Times,serif" font-size="10.00">110 / 4.0KB</text>
</a>
</g>
</g>
<!-- github.com/hasansino/goapp/internal/example/mocks&#45;&gt;github.com/hasansino/goapp/internal/example/models -->
<g id="edge20" class="edge">
<title>github.com/hasansino/goapp/internal/example/mocks:e&#45;&gt;github.com/hasansino/goapp/internal/example/models</title>
<path fill="none" stroke="#072891" stroke-width="2" stroke-opacity="0.698039" d="M972,-114C1023.08,-114 1079.48,-123.9 1123.99,-134.08"/>
<polygon fill="#072891" fill-opacity="0.698039" stroke="#072891" stroke-width="2" stroke-opacity="0.698039" points="1123.03,-137.45 1133.56,-136.33 1124.63,-130.64 1123.03,-137.45"/>
</g>
<!-- github.com/hasansino/goapp/internal/example/provider/http&#45;&gt;github.com/hasansino/goapp/internal/api -->
<g id="edge21" class="edge">
<title>github.com/hasansino/goapp/internal/example/provider/http:e&#45;&gt;github.com/hasansino/goapp/internal/api</title>
<path fill="none" stroke="#917c07" stroke-width="2" stroke-opacity="0.698039" d="M612,-402C659.65,-402 712.07,-409.84 755.1,-418.39"/>
<polygon fill="#917c07" fill-opacity="0.698039" stroke="#917c07" stroke-width="2" stroke-opacity="0.698039" points="754.38,-421.82 764.88,-420.39 755.79,-414.96 754.38,-421.82"/>
</g>
<!-- github.com/hasansino/goapp/internal/example/provider/http&#45;&gt;github.com/hasansino/goapp/internal/example -->
<g id="edge22" class="edge">
<title>github.com/hasansino/goapp/internal/example/provider/http:e&#45;&gt;github.com/hasansino/goapp/internal/example</title>
<path fill="none" stroke="#91072a" stroke-width="2" stroke-opacity="0.698039" d="M612,-402C628.31,-402 710.44,-377.76 772.61,-358.66"/>
<polygon fill="#91072a" fill-opacity="0.698039" stroke="#91072a" stroke-width="2" stroke-opacity="0.698039" points="773.34,-362.09 781.86,-355.8 771.27,-355.41 773.34,-362.09"/>
</g>
<!-- github.com/hasansino/goapp/internal/example/provider/http&#45;&gt;github.com/hasansino/goapp/internal/example/domain -->
<g id="edge23" class="edge">
<title>github.com/hasansino/goapp/internal/example/provider/http:e&#45;&gt;github.com/hasansino/goapp/internal/example/domain</title>
<path fill="none" stroke="#91074b" stroke-width="2" stroke-opacity="0.698039" d="M612,-402C772.94,-402 814.72,-397.11 972,-363 1032.39,-349.91 1099.14,-326.93 1145.66,-309.48"/>
<polygon fill="#91074b" fill-opacity="0.698039" stroke="#91074b" stroke-width="2" stroke-opacity="0.698039" points="1146.69,-312.83 1154.8,-306.01 1144.21,-306.29 1146.69,-312.83"/>
</g>
<!-- github.com/hasansino/goapp/internal/example/provider/http&#45;&gt;github.com/hasansino/goapp/internal/utils -->
<g id="edge24" class="edge">
<title>github.com/hasansino/goapp/internal/example/provider/http:e&#45;&gt;github.com/hasansino/goapp/internal/utils</title>
<path fill="none" stroke="#918b07" stroke-width="2" stroke-opacity="0.698039" d="M612,-402C668.02,-402 671.12,-439.62 720,-467 744.74,-480.86 772.7,-495.49 795.9,-507.36"/>
<polygon fill="#918b07" fill-opacity="0.698039" stroke="#918b07" stroke-width="2" stroke-opacity="0.698039" points="794.01,-510.33 804.51,-511.75 797.19,-504.09 794.01,-510.33"/>
</g>
<!-- github.com/hasansino/goapp/internal/example/repository/pgsql&#45;&gt;github.com/hasansino/goapp/internal/database/pgsql -->
<g id="edge25" class="edge">
<title>github.com/hasansino/goapp/internal/example/repository/pgsql:e&#45;&gt;github.com/hasansino/goapp/internal/database/pgsql</title>
<path fill="none" stroke="#130791" stroke-width="2" stroke-opacity="0.698039" d="M612,-164C673.36,-164 665.06,-222.67 720,-250 726.55,-253.26 733.47,-256.21 740.55,-258.87"/>
<polygon fill="#130791" fill-opacity="0.698039" stroke="#130791" stroke-width="2" stroke-opacity="0.698039" points="739.13,-262.08 749.73,-262.09 741.45,-255.48 739.13,-262.08"/>
</g>
<!-- github.com/hasansino/goapp/internal/example/repository/pgsql&#45;&gt;github.com/hasansino/goapp/internal/example/domain -->
<g id="edge26" class="edge">
<title>github.com/hasansino/goapp/internal/example/repository/pgsql:e&#45;&gt;github.com/hasansino/goapp/internal/example/domain</title>
<path fill="none" stroke="#91074b" stroke-width="2" stroke-opacity="0.698039" d="M612,-164C661.15,-164 955.09,-229.14 1109.84,-264.22"/>
<polygon fill="#91074b" fill-opacity="0.698039" stroke="#91074b" stroke-width="2" stroke-opacity="0.698039" points="1108.62,-267.53 1119.15,-266.33 1110.17,-260.71 1108.62,-267.53"/>
</g>
<!-- github.com/hasansino/goapp/internal/example/repository/pgsql&#45;&gt;github.com/hasansino/goapp/internal/example/models -->
<g id="edge27" class="edge">
<title>github.com/hasansino/goapp/internal/example/repository/pgsql:e&#45;&gt;github.com/hasansino/goapp/internal/example/models</title>
<path fill="none" stroke="#072891" stroke-width="2" stroke-opacity="0.698039" d="M612,-164C767.59,-164 946.13,-161.21 1066.3,-158.93"/>
<polygon fill="#072891" fill-opacity="0.698039" stroke="#072891" stroke-width="2" stroke-opacity="0.698039" points="1066.25,-162.43 1076.18,-158.74 1066.11,-155.43 1066.25,-162.43"/>
</g>
<!-- github.com/hasansino/goapp/internal/example/repository/sqlite&#45;&gt;github.com/hasansino/goapp/internal/database/sqlite -->
<g id="edge28" class="edge">
<title>github.com/hasansino/goapp/internal/example/repository/sqlite:e&#45;&gt;github.com/hasansino/goapp/internal/database/sqlite</title>
<path fill="none" stroke="#071591" stroke-width="2" stroke-opacity="0.698039" d="M612,-110C666.07,-110 669.48,-73.27 720,-54 728.88,-50.61 738.24,-47.47 747.69,-44.58"/>
<polygon fill="#071591" fill-opacity="0.698039" stroke="#071591" stroke-width="2" stroke-opacity="0.698039" points="748.62,-47.96 757.23,-41.79 746.65,-41.24 748.62,-47.96"/>
</g>
<!-- github.com/hasansino/goapp/internal/example/repository/sqlite&#45;&gt;github.com/hasansino/goapp/internal/example/domain -->
<g id="edge29" class="edge">
<title>github.com/hasansino/goapp/internal/example/repository/sqlite:e&#45;&gt;github.com/hasansino/goapp/internal/example/domain</title>
<path fill="none" stroke="#91074b" stroke-width="2" stroke-opacity="0.698039" d="M612,-110C661.94,-110 671.19,-130.46 720,-141 830.65,-164.89 863.52,-145.64 972,-178 1040.78,-198.52 1115.2,-235.94 1160.96,-260.89"/>
<polygon fill="#91074b" fill-opacity="0.698039" stroke="#91074b" stroke-width="2" stroke-opacity="0.698039" points="1159.14,-263.88 1169.59,-265.64 1162.52,-257.75 1159.14,-263.88"/>
</g>
<!-- github.com/hasansino/goapp/internal/example/repository/sqlite&#45;&gt;github.com/hasansino/goapp/internal/example/models -->
<g id="edge30" class="edge">
<title>github.com/hasansino/goapp/internal/example/repository/sqlite:e&#45;&gt;github.com/hasansino/goapp/internal/example/models</title>
<path fill="none" stroke="#072891" stroke-width="2" stroke-opacity="0.698039" d="M612,-110C661.08,-110 671.19,-92.14 720,-87 831.38,-75.27 861.16,-70.93 972,-87 1031.85,-95.68 1097.74,-116.27 1144.13,-132.72"/>
<polygon fill="#072891" fill-opacity="0.698039" stroke="#072891" stroke-width="2" stroke-opacity="0.698039" points="1142.94,-136.01 1153.53,-136.1 1145.31,-129.42 1142.94,-136.01"/>
</g>
<!-- github.com/hasansino/goapp/tests -->
<g id="node21" class="node">
<title>github.com/hasansino/goapp/tests</title>
<g id="a_node21"><a xlink:href="https://pkg.go.dev/github.com/hasansino/goapp/tests" xlink:title="github.com/hasansino/goapp/tests\l0 / 0B\l" target="_graphviz">
<polygon fill="none" stroke="#910772" stroke-width="2" stroke-opacity="0.698039" points="198,-658 18,-658 18,-622 198,-622 198,-658"/>
<text text-anchor="start" x="26" y="-641.75" font-family="Times,serif" font-size="10.00">github.com/hasansino/goapp/tests</text>
<text text-anchor="start" x="26" y="-630.5" font-family="Times,serif" font-size="10.00">0 / 0B</text>
</a>
</g>
</g>
</g>
</svg>
