<?xml version="1.0" encoding="UTF-8" standalone="no"?>
<!DOCTYPE svg PUBLIC "-//W3C//DTD SVG 1.1//EN"
 "http://www.w3.org/Graphics/SVG/1.1/DTD/svg11.dtd">
<!-- Generated by graphviz version 12.2.1 (20241206.2353)
 -->
<!-- Title: G Pages: 1 -->
<svg width="1700pt" height="851pt"
 viewBox="0.00 0.00 1700.00 851.00" xmlns="http://www.w3.org/2000/svg" xmlns:xlink="http://www.w3.org/1999/xlink">
<g id="graph0" class="graph" transform="scale(1 1) rotate(0) translate(4 847)">
<title>G</title>
<polygon fill="white" stroke="none" points="-4,4 -4,-847 1696,-847 1696,4 -4,4"/>
<!-- github.com/hasansino/goapp/cmd/app -->
<g id="node1" class="node">
<title>github.com/hasansino/goapp/cmd/app</title>
<g id="a_node1"><a xlink:href="https://pkg.go.dev/github.com/hasansino/goapp/cmd/app" xlink:title="github.com/hasansino/goapp/cmd/app\l493 / 15.0KB\l" target="_graphviz">
<polygon fill="none" stroke="#915007" stroke-width="2" stroke-opacity="0.698039" points="198,-374 18,-374 18,-338 198,-338 198,-374"/>
<text text-anchor="start" x="26" y="-357.75" font-family="Times,serif" font-size="10.00">github.com/hasansino/goapp/cmd/app</text>
<text text-anchor="start" x="26" y="-346.5" font-family="Times,serif" font-size="10.00">493 / 15.0KB</text>
</a>
</g>
</g>
<!-- github.com/hasansino/goapp/internal/api -->
<g id="node3" class="node">
<title>github.com/hasansino/goapp/internal/api</title>
<g id="a_node3"><a xlink:href="https://pkg.go.dev/github.com/hasansino/goapp/internal/api" xlink:title="github.com/hasansino/goapp/internal/api\l198 / 5.0KB\l" target="_graphviz">
<polygon fill="none" stroke="#917c07" stroke-width="2" stroke-opacity="0.698039" points="972,-458 756,-458 756,-422 972,-422 972,-458"/>
<text text-anchor="start" x="764" y="-441.75" font-family="Times,serif" font-size="10.00">github.com/hasansino/goapp/internal/api</text>
<text text-anchor="start" x="764" y="-430.5" font-family="Times,serif" font-size="10.00">198 / 5.0KB</text>
</a>
</g>
</g>
<!-- github.com/hasansino/goapp/cmd/app&#45;&gt;github.com/hasansino/goapp/internal/api -->
<g id="edge1" class="edge">
<title>github.com/hasansino/goapp/cmd/app:e&#45;&gt;github.com/hasansino/goapp/internal/api</title>
<path fill="none" stroke="#917c07" stroke-width="2" stroke-opacity="0.698039" d="M199,-356C263.34,-356 262.07,-411.56 324,-429 463.42,-468.26 631.23,-464.07 742.17,-454.62"/>
<polygon fill="#917c07" fill-opacity="0.698039" stroke="#917c07" stroke-width="2" stroke-opacity="0.698039" points="742.41,-458.12 752.06,-453.75 741.79,-451.14 742.41,-458.12"/>
</g>
<!-- github.com/hasansino/goapp/internal/cache -->
<g id="node6" class="node">
<title>github.com/hasansino/goapp/internal/cache</title>
<g id="a_node6"><a xlink:href="https://pkg.go.dev/github.com/hasansino/goapp/internal/cache" xlink:title="github.com/hasansino/goapp/internal/cache\l28 / 0.7KB\l" target="_graphviz">
<polygon fill="none" stroke="#079156" stroke-width="2" stroke-opacity="0.698039" points="576,-144 360,-144 360,-108 576,-108 576,-144"/>
<text text-anchor="start" x="368" y="-127.75" font-family="Times,serif" font-size="10.00">github.com/hasansino/goapp/internal/cache</text>
<text text-anchor="start" x="368" y="-116.5" font-family="Times,serif" font-size="10.00">28 / 0.7KB</text>
</a>
</g>
</g>
<!-- github.com/hasansino/goapp/cmd/app&#45;&gt;github.com/hasansino/goapp/internal/cache -->
<g id="edge2" class="edge">
<title>github.com/hasansino/goapp/cmd/app:e&#45;&gt;github.com/hasansino/goapp/internal/cache</title>
<path fill="none" stroke="#079156" stroke-width="2" stroke-opacity="0.698039" d="M199,-356C304.96,-356 236.72,-213.07 324,-153 331.13,-148.09 338.92,-144.01 347.05,-140.63"/>
<polygon fill="#079156" fill-opacity="0.698039" stroke="#079156" stroke-width="2" stroke-opacity="0.698039" points="348.17,-143.95 356.34,-137.21 345.75,-137.38 348.17,-143.95"/>
</g>
<!-- github.com/hasansino/goapp/internal/cache/memcached -->
<g id="node7" class="node">
<title>github.com/hasansino/goapp/internal/cache/memcached</title>
<g id="a_node7"><a xlink:href="https://pkg.go.dev/github.com/hasansino/goapp/internal/cache/memcached" xlink:title="github.com/hasansino/goapp/internal/cache/memcached\l48 / 1.3KB\l" target="_graphviz">
<polygon fill="none" stroke="#079111" stroke-width="2" stroke-opacity="0.698039" points="594,-90 342,-90 342,-54 594,-54 594,-90"/>
<text text-anchor="start" x="350" y="-73.75" font-family="Times,serif" font-size="10.00">github.com/hasansino/goapp/internal/cache/memcached</text>
<text text-anchor="start" x="350" y="-62.5" font-family="Times,serif" font-size="10.00">48 / 1.3KB</text>
</a>
</g>
</g>
<!-- github.com/hasansino/goapp/cmd/app&#45;&gt;github.com/hasansino/goapp/internal/cache/memcached -->
<g id="edge3" class="edge">
<title>github.com/hasansino/goapp/cmd/app:e&#45;&gt;github.com/hasansino/goapp/internal/cache/memcached</title>
<path fill="none" stroke="#079111" stroke-width="2" stroke-opacity="0.698039" d="M199,-356C326.02,-356 223.07,-176.11 324,-99 325.91,-97.54 327.88,-96.15 329.9,-94.83"/>
<polygon fill="#079111" fill-opacity="0.698039" stroke="#079111" stroke-width="2" stroke-opacity="0.698039" points="331.55,-97.91 338.48,-89.9 328.07,-91.84 331.55,-97.91"/>
</g>
<!-- github.com/hasansino/goapp/internal/cache/miniredis -->
<g id="node8" class="node">
<title>github.com/hasansino/goapp/internal/cache/miniredis</title>
<g id="a_node8"><a xlink:href="https://pkg.go.dev/github.com/hasansino/goapp/internal/cache/miniredis" xlink:title="github.com/hasansino/goapp/internal/cache/miniredis\l34 / 0.7KB\l" target="_graphviz">
<polygon fill="none" stroke="#912007" stroke-width="2" stroke-opacity="0.698039" points="594,-36 342,-36 342,0 594,0 594,-36"/>
<text text-anchor="start" x="350" y="-19.75" font-family="Times,serif" font-size="10.00">github.com/hasansino/goapp/internal/cache/miniredis</text>
<text text-anchor="start" x="350" y="-8.5" font-family="Times,serif" font-size="10.00">34 / 0.7KB</text>
</a>
</g>
</g>
<!-- github.com/hasansino/goapp/cmd/app&#45;&gt;github.com/hasansino/goapp/internal/cache/miniredis -->
<g id="edge4" class="edge">
<title>github.com/hasansino/goapp/cmd/app:e&#45;&gt;github.com/hasansino/goapp/internal/cache/miniredis</title>
<path fill="none" stroke="#912007" stroke-width="2" stroke-opacity="0.698039" d="M199,-356C347.97,-356 208.88,-139.55 324,-45 325.98,-43.38 328.02,-41.84 330.12,-40.38"/>
<polygon fill="#912007" fill-opacity="0.698039" stroke="#912007" stroke-width="2" stroke-opacity="0.698039" points="331.74,-43.49 338.5,-35.33 328.13,-37.5 331.74,-43.49"/>
</g>
<!-- github.com/hasansino/goapp/internal/cache/redis -->
<g id="node9" class="node">
<title>github.com/hasansino/goapp/internal/cache/redis</title>
<g id="a_node9"><a xlink:href="https://pkg.go.dev/github.com/hasansino/goapp/internal/cache/redis" xlink:title="github.com/hasansino/goapp/internal/cache/redis\l134 / 3.4KB\l" target="_graphviz">
<polygon fill="none" stroke="#550791" stroke-width="2" stroke-opacity="0.698039" points="594,-658 342,-658 342,-622 594,-622 594,-658"/>
<text text-anchor="start" x="350" y="-641.75" font-family="Times,serif" font-size="10.00">github.com/hasansino/goapp/internal/cache/redis</text>
<text text-anchor="start" x="350" y="-630.5" font-family="Times,serif" font-size="10.00">134 / 3.4KB</text>
</a>
</g>
</g>
<!-- github.com/hasansino/goapp/cmd/app&#45;&gt;github.com/hasansino/goapp/internal/cache/redis -->
<g id="edge5" class="edge">
<title>github.com/hasansino/goapp/cmd/app:e&#45;&gt;github.com/hasansino/goapp/internal/cache/redis</title>
<path fill="none" stroke="#550791" stroke-width="2" stroke-opacity="0.698039" d="M199,-356C326.02,-356 223.07,-535.89 324,-613 325.91,-614.46 327.88,-615.85 329.9,-617.17"/>
<polygon fill="#550791" fill-opacity="0.698039" stroke="#550791" stroke-width="2" stroke-opacity="0.698039" points="328.07,-620.16 338.48,-622.1 331.55,-614.09 328.07,-620.16"/>
</g>
<!-- github.com/hasansino/goapp/internal/config -->
<g id="node10" class="node">
<title>github.com/hasansino/goapp/internal/config</title>
<g id="a_node10"><a xlink:href="https://pkg.go.dev/github.com/hasansino/goapp/internal/config" xlink:title="github.com/hasansino/goapp/internal/config\l203 / 8.2KB\l" target="_graphviz">
<polygon fill="none" stroke="#760791" stroke-width="2" stroke-opacity="0.698039" points="576,-712 360,-712 360,-676 576,-676 576,-712"/>
<text text-anchor="start" x="368" y="-695.75" font-family="Times,serif" font-size="10.00">github.com/hasansino/goapp/internal/config</text>
<text text-anchor="start" x="368" y="-684.5" font-family="Times,serif" font-size="10.00">203 / 8.2KB</text>
</a>
</g>
</g>
<!-- github.com/hasansino/goapp/cmd/app&#45;&gt;github.com/hasansino/goapp/internal/config -->
<g id="edge6" class="edge">
<title>github.com/hasansino/goapp/cmd/app:e&#45;&gt;github.com/hasansino/goapp/internal/config</title>
<path fill="none" stroke="#760791" stroke-width="2" stroke-opacity="0.698039" d="M199,-356C347.97,-356 208.88,-572.45 324,-667 330.97,-672.72 338.77,-677.37 347.04,-681.14"/>
<polygon fill="#760791" fill-opacity="0.698039" stroke="#760791" stroke-width="2" stroke-opacity="0.698039" points="345.61,-684.34 356.19,-684.78 348.19,-677.83 345.61,-684.34"/>
</g>
<!-- github.com/hasansino/goapp/internal/database/pgsql -->
<g id="node11" class="node">
<title>github.com/hasansino/goapp/internal/database/pgsql</title>
<g id="a_node11"><a xlink:href="https://pkg.go.dev/github.com/hasansino/goapp/internal/database/pgsql" xlink:title="github.com/hasansino/goapp/internal/database/pgsql\l105 / 2.3KB\l" target="_graphviz">
<polygon fill="none" stroke="#130791" stroke-width="2" stroke-opacity="0.698039" points="594,-604 342,-604 342,-568 594,-568 594,-604"/>
<text text-anchor="start" x="350" y="-587.75" font-family="Times,serif" font-size="10.00">github.com/hasansino/goapp/internal/database/pgsql</text>
<text text-anchor="start" x="350" y="-576.5" font-family="Times,serif" font-size="10.00">105 / 2.3KB</text>
</a>
</g>
</g>
<!-- github.com/hasansino/goapp/cmd/app&#45;&gt;github.com/hasansino/goapp/internal/database/pgsql -->
<g id="edge7" class="edge">
<title>github.com/hasansino/goapp/cmd/app:e&#45;&gt;github.com/hasansino/goapp/internal/database/pgsql</title>
<path fill="none" stroke="#130791" stroke-width="2" stroke-opacity="0.698039" d="M199,-356C304.96,-356 236.72,-498.93 324,-559 325.94,-560.34 327.94,-561.61 329.97,-562.83"/>
<polygon fill="#130791" fill-opacity="0.698039" stroke="#130791" stroke-width="2" stroke-opacity="0.698039" points="328.08,-565.79 338.55,-567.38 331.36,-559.6 328.08,-565.79"/>
</g>
<!-- github.com/hasansino/goapp/internal/database/pgsql/migrate -->
<g id="node12" class="node">
<title>github.com/hasansino/goapp/internal/database/pgsql/migrate</title>
<g id="a_node12"><a xlink:href="https://pkg.go.dev/github.com/hasansino/goapp/internal/database/pgsql/migrate" xlink:title="github.com/hasansino/goapp/internal/database/pgsql/migrate\l28 / 561B\l" target="_graphviz">
<polygon fill="none" stroke="#07916d" stroke-width="2" stroke-opacity="0.698039" points="612,-550 324,-550 324,-514 612,-514 612,-550"/>
<text text-anchor="start" x="332" y="-533.75" font-family="Times,serif" font-size="10.00">github.com/hasansino/goapp/internal/database/pgsql/migrate</text>
<text text-anchor="start" x="332" y="-522.5" font-family="Times,serif" font-size="10.00">28 / 561B</text>
</a>
</g>
</g>
<!-- github.com/hasansino/goapp/cmd/app&#45;&gt;github.com/hasansino/goapp/internal/database/pgsql/migrate -->
<g id="edge8" class="edge">
<title>github.com/hasansino/goapp/cmd/app:e&#45;&gt;github.com/hasansino/goapp/internal/database/pgsql/migrate</title>
<path fill="none" stroke="#07916d" stroke-width="2" stroke-opacity="0.698039" d="M199,-356C283.75,-356 251.22,-456.57 324,-500 329.12,-503.06 334.51,-505.82 340.06,-508.33"/>
<polygon fill="#07916d" fill-opacity="0.698039" stroke="#07916d" stroke-width="2" stroke-opacity="0.698039" points="338.3,-511.38 348.88,-511.95 340.96,-504.91 338.3,-511.38"/>
</g>
<!-- github.com/hasansino/goapp/internal/database/sqlite -->
<g id="node13" class="node">
<title>github.com/hasansino/goapp/internal/database/sqlite</title>
<g id="a_node13"><a xlink:href="https://pkg.go.dev/github.com/hasansino/goapp/internal/database/sqlite" xlink:title="github.com/hasansino/goapp/internal/database/sqlite\l102 / 2.4KB\l" target="_graphviz">
<polygon fill="none" stroke="#071591" stroke-width="2" stroke-opacity="0.698039" points="990,-312 738,-312 738,-276 990,-276 990,-312"/>
<text text-anchor="start" x="746" y="-295.75" font-family="Times,serif" font-size="10.00">github.com/hasansino/goapp/internal/database/sqlite</text>
<text text-anchor="start" x="746" y="-284.5" font-family="Times,serif" font-size="10.00">102 / 2.4KB</text>
</a>
</g>
</g>
<!-- github.com/hasansino/goapp/cmd/app&#45;&gt;github.com/hasansino/goapp/internal/database/sqlite -->
<g id="edge9" class="edge">
<title>github.com/hasansino/goapp/cmd/app:e&#45;&gt;github.com/hasansino/goapp/internal/database/sqlite</title>
<path fill="none" stroke="#071591" stroke-width="2" stroke-opacity="0.698039" d="M199,-356C249.99,-356 545.18,-326.65 724.37,-308.33"/>
<polygon fill="#071591" fill-opacity="0.698039" stroke="#071591" stroke-width="2" stroke-opacity="0.698039" points="724.46,-311.84 734.06,-307.34 723.75,-304.88 724.46,-311.84"/>
</g>
<!-- github.com/hasansino/goapp/internal/database/sqlite/migrate -->
<g id="node14" class="node">
<title>github.com/hasansino/goapp/internal/database/sqlite/migrate</title>
<g id="a_node14"><a xlink:href="https://pkg.go.dev/github.com/hasansino/goapp/internal/database/sqlite/migrate" xlink:title="github.com/hasansino/goapp/internal/database/sqlite/migrate\l29 / 0.7KB\l" target="_graphviz">
<polygon fill="none" stroke="#072391" stroke-width="2" stroke-opacity="0.698039" points="612,-290 324,-290 324,-254 612,-254 612,-290"/>
<text text-anchor="start" x="332" y="-273.75" font-family="Times,serif" font-size="10.00">github.com/hasansino/goapp/internal/database/sqlite/migrate</text>
<text text-anchor="start" x="332" y="-262.5" font-family="Times,serif" font-size="10.00">29 / 0.7KB</text>
</a>
</g>
</g>
<!-- github.com/hasansino/goapp/cmd/app&#45;&gt;github.com/hasansino/goapp/internal/database/sqlite/migrate -->
<g id="edge10" class="edge">
<title>github.com/hasansino/goapp/cmd/app:e&#45;&gt;github.com/hasansino/goapp/internal/database/sqlite/migrate</title>
<path fill="none" stroke="#072391" stroke-width="2" stroke-opacity="0.698039" d="M199,-356C259.17,-356 266.65,-322.19 324,-304 335.25,-300.43 347.12,-297.11 359.01,-294.05"/>
<polygon fill="#072391" fill-opacity="0.698039" stroke="#072391" stroke-width="2" stroke-opacity="0.698039" points="359.59,-297.51 368.45,-291.7 357.9,-290.72 359.59,-297.51"/>
</g>
<!-- github.com/hasansino/goapp/internal/example -->
<g id="node15" class="node">
<title>github.com/hasansino/goapp/internal/example</title>
<g id="a_node15"><a xlink:href="https://pkg.go.dev/github.com/hasansino/goapp/internal/example" xlink:title="github.com/hasansino/goapp/internal/example\l119 / 3.5KB\l" target="_graphviz">
<polygon fill="none" stroke="#91072a" stroke-width="2" stroke-opacity="0.698039" points="972,-366 756,-366 756,-330 972,-330 972,-366"/>
<text text-anchor="start" x="764" y="-349.75" font-family="Times,serif" font-size="10.00">github.com/hasansino/goapp/internal/example</text>
<text text-anchor="start" x="764" y="-338.5" font-family="Times,serif" font-size="10.00">119 / 3.5KB</text>
</a>
</g>
</g>
<!-- github.com/hasansino/goapp/cmd/app&#45;&gt;github.com/hasansino/goapp/internal/example -->
<g id="edge11" class="edge">
<title>github.com/hasansino/goapp/cmd/app:e&#45;&gt;github.com/hasansino/goapp/internal/example</title>
<path fill="none" stroke="#91072a" stroke-width="2" stroke-opacity="0.698039" d="M199,-356C388.81,-356 609.12,-352.69 742.19,-350.33"/>
<polygon fill="#91072a" fill-opacity="0.698039" stroke="#91072a" stroke-width="2" stroke-opacity="0.698039" points="742.22,-353.83 752.16,-350.15 742.1,-346.83 742.22,-353.83"/>
</g>
<!-- github.com/hasansino/goapp/internal/example/provider/http -->
<g id="node19" class="node">
<title>github.com/hasansino/goapp/internal/example/provider/http</title>
<g id="a_node19"><a xlink:href="https://pkg.go.dev/github.com/hasansino/goapp/internal/example/provider/http" xlink:title="github.com/hasansino/goapp/internal/example/provider/http\l123 / 3.6KB\l" target="_graphviz">
<polygon fill="none" stroke="#915907" stroke-width="2" stroke-opacity="0.698039" points="612,-420 324,-420 324,-384 612,-384 612,-420"/>
<text text-anchor="start" x="332" y="-403.75" font-family="Times,serif" font-size="10.00">github.com/hasansino/goapp/internal/example/provider/http</text>
<text text-anchor="start" x="332" y="-392.5" font-family="Times,serif" font-size="10.00">123 / 3.6KB</text>
</a>
</g>
</g>
<!-- github.com/hasansino/goapp/cmd/app&#45;&gt;github.com/hasansino/goapp/internal/example/provider/http -->
<g id="edge12" class="edge">
<title>github.com/hasansino/goapp/cmd/app:e&#45;&gt;github.com/hasansino/goapp/internal/example/provider/http</title>
<path fill="none" stroke="#915907" stroke-width="2" stroke-opacity="0.698039" d="M199,-356C230.58,-356 302.34,-368.56 363.67,-380.56"/>
<polygon fill="#915907" fill-opacity="0.698039" stroke="#915907" stroke-width="2" stroke-opacity="0.698039" points="362.72,-383.94 373.21,-382.44 364.07,-377.07 362.72,-383.94"/>
</g>
<!-- github.com/hasansino/goapp/internal/example/repository/gorm -->
<g id="node20" class="node">
<title>github.com/hasansino/goapp/internal/example/repository/gorm</title>
<g id="a_node20"><a xlink:href="https://pkg.go.dev/github.com/hasansino/goapp/internal/example/repository/gorm" xlink:title="github.com/hasansino/goapp/internal/example/repository/gorm\l116 / 3.4KB\l" target="_graphviz">
<polygon fill="none" stroke="#078c91" stroke-width="2" stroke-opacity="0.698039" points="1008,-258 720,-258 720,-222 1008,-222 1008,-258"/>
<text text-anchor="start" x="728" y="-241.75" font-family="Times,serif" font-size="10.00">github.com/hasansino/goapp/internal/example/repository/gorm</text>
<text text-anchor="start" x="728" y="-230.5" font-family="Times,serif" font-size="10.00">116 / 3.4KB</text>
</a>
</g>
</g>
<!-- github.com/hasansino/goapp/cmd/app&#45;&gt;github.com/hasansino/goapp/internal/example/repository/gorm -->
<g id="edge13" class="edge">
<title>github.com/hasansino/goapp/cmd/app:e&#45;&gt;github.com/hasansino/goapp/internal/example/repository/gorm</title>
<path fill="none" stroke="#078c91" stroke-width="2" stroke-opacity="0.698039" d="M199,-356C273.3,-356 254.67,-271.71 324,-245 391.2,-219.11 572.42,-222.55 706.27,-229.4"/>
<polygon fill="#078c91" fill-opacity="0.698039" stroke="#078c91" stroke-width="2" stroke-opacity="0.698039" points="705.88,-232.88 716.05,-229.91 706.25,-225.89 705.88,-232.88"/>
</g>
<!-- github.com/hasansino/goapp/internal/metrics -->
<g id="node21" class="node">
<title>github.com/hasansino/goapp/internal/metrics</title>
<g id="a_node21"><a xlink:href="https://pkg.go.dev/github.com/hasansino/goapp/internal/metrics" xlink:title="github.com/hasansino/goapp/internal/metrics\l93 / 2.5KB\l" target="_graphviz">
<polygon fill="none" stroke="#916207" stroke-width="2" stroke-opacity="0.698039" points="1692,-481 1476,-481 1476,-445 1692,-445 1692,-481"/>
<text text-anchor="start" x="1484" y="-464.75" font-family="Times,serif" font-size="10.00">github.com/hasansino/goapp/internal/metrics</text>
<text text-anchor="start" x="1484" y="-453.5" font-family="Times,serif" font-size="10.00">93 / 2.5KB</text>
</a>
</g>
</g>
<!-- github.com/hasansino/goapp/cmd/app&#45;&gt;github.com/hasansino/goapp/internal/metrics -->
<g id="edge14" class="edge">
<title>github.com/hasansino/goapp/cmd/app:e&#45;&gt;github.com/hasansino/goapp/internal/metrics</title>
<path fill="none" stroke="#916207" stroke-width="2" stroke-opacity="0.698039" d="M199,-356C270.99,-356 256.49,-434 324,-459 371.83,-476.72 1151.39,-469.01 1368,-467 1398.46,-466.72 1431.34,-466.21 1462.01,-465.65"/>
<polygon fill="#916207" fill-opacity="0.698039" stroke="#916207" stroke-width="2" stroke-opacity="0.698039" points="1462.05,-469.15 1471.98,-465.46 1461.92,-462.15 1462.05,-469.15"/>
</g>
<!-- github.com/hasansino/goapp/internal/metrics/providers/http -->
<g id="node22" class="node">
<title>github.com/hasansino/goapp/internal/metrics/providers/http</title>
<g id="a_node22"><a xlink:href="https://pkg.go.dev/github.com/hasansino/goapp/internal/metrics/providers/http" xlink:title="github.com/hasansino/goapp/internal/metrics/providers/http\l17 / 406B\l" target="_graphviz">
<polygon fill="none" stroke="#2a0791" stroke-width="2" stroke-opacity="0.698039" points="612,-198 324,-198 324,-162 612,-162 612,-198"/>
<text text-anchor="start" x="332" y="-181.75" font-family="Times,serif" font-size="10.00">github.com/hasansino/goapp/internal/metrics/providers/http</text>
<text text-anchor="start" x="332" y="-170.5" font-family="Times,serif" font-size="10.00">17 / 406B</text>
</a>
</g>
</g>
<!-- github.com/hasansino/goapp/cmd/app&#45;&gt;github.com/hasansino/goapp/internal/metrics/providers/http -->
<g id="edge15" class="edge">
<title>github.com/hasansino/goapp/cmd/app:e&#45;&gt;github.com/hasansino/goapp/internal/metrics/providers/http</title>
<path fill="none" stroke="#2a0791" stroke-width="2" stroke-opacity="0.698039" d="M199,-356C283.75,-356 251.22,-255.43 324,-212 329.12,-208.94 334.51,-206.18 340.06,-203.67"/>
<polygon fill="#2a0791" fill-opacity="0.698039" stroke="#2a0791" stroke-width="2" stroke-opacity="0.698039" points="340.96,-207.09 348.88,-200.05 338.3,-200.62 340.96,-207.09"/>
</g>
<!-- github.com/hasansino/goapp/cmd/cfg2env -->
<g id="node2" class="node">
<title>github.com/hasansino/goapp/cmd/cfg2env</title>
<g id="a_node2"><a xlink:href="https://pkg.go.dev/github.com/hasansino/goapp/cmd/cfg2env" xlink:title="github.com/hasansino/goapp/cmd/cfg2env\l24 / 617B\l" target="_graphviz">
<polygon fill="none" stroke="#6e9107" stroke-width="2" stroke-opacity="0.698039" points="216,-735 0,-735 0,-699 216,-699 216,-735"/>
<text text-anchor="start" x="8" y="-718.75" font-family="Times,serif" font-size="10.00">github.com/hasansino/goapp/cmd/cfg2env</text>
<text text-anchor="start" x="8" y="-707.5" font-family="Times,serif" font-size="10.00">24 / 617B</text>
</a>
</g>
</g>
<!-- github.com/hasansino/goapp/cmd/cfg2env&#45;&gt;github.com/hasansino/goapp/internal/config -->
<g id="edge16" class="edge">
<title>github.com/hasansino/goapp/cmd/cfg2env:e&#45;&gt;github.com/hasansino/goapp/internal/config</title>
<path fill="none" stroke="#760791" stroke-width="2" stroke-opacity="0.698039" d="M216,-717C258.54,-717 304.96,-713.68 346.19,-709.57"/>
<polygon fill="#760791" fill-opacity="0.698039" stroke="#760791" stroke-width="2" stroke-opacity="0.698039" points="346.5,-713.06 356.08,-708.55 345.78,-706.09 346.5,-713.06"/>
</g>
<!-- github.com/hasansino/goapp/internal/utils -->
<g id="node23" class="node">
<title>github.com/hasansino/goapp/internal/utils</title>
<g id="a_node23"><a xlink:href="https://pkg.go.dev/github.com/hasansino/goapp/internal/utils" xlink:title="github.com/hasansino/goapp/internal/utils\l49 / 1.2KB\l" target="_graphviz">
<polygon fill="none" stroke="#918b07" stroke-width="2" stroke-opacity="0.698039" points="972,-712 756,-712 756,-676 972,-676 972,-712"/>
<text text-anchor="start" x="764" y="-695.75" font-family="Times,serif" font-size="10.00">github.com/hasansino/goapp/internal/utils</text>
<text text-anchor="start" x="764" y="-684.5" font-family="Times,serif" font-size="10.00">49 / 1.2KB</text>
</a>
</g>
</g>
<!-- github.com/hasansino/goapp/cmd/cfg2env&#45;&gt;github.com/hasansino/goapp/internal/utils -->
<g id="edge17" class="edge">
<title>github.com/hasansino/goapp/cmd/cfg2env:e&#45;&gt;github.com/hasansino/goapp/internal/utils</title>
<path fill="none" stroke="#918b07" stroke-width="2" stroke-opacity="0.698039" d="M216,-717C264.03,-717 275.98,-720.11 324,-721 451.98,-723.37 484.18,-727.85 612,-721 654.54,-718.72 700.97,-714.28 742.2,-709.64"/>
<polygon fill="#918b07" fill-opacity="0.698039" stroke="#918b07" stroke-width="2" stroke-opacity="0.698039" points="742.56,-713.13 752.09,-708.51 741.76,-706.17 742.56,-713.13"/>
</g>
<!-- github.com/hasansino/goapp/internal/api/middleware -->
<g id="node4" class="node">
<title>github.com/hasansino/goapp/internal/api/middleware</title>
<g id="a_node4"><a xlink:href="https://pkg.go.dev/github.com/hasansino/goapp/internal/api/middleware" xlink:title="github.com/hasansino/goapp/internal/api/middleware\l68 / 1.9KB\l" target="_graphviz">
<polygon fill="none" stroke="#629107" stroke-width="2" stroke-opacity="0.698039" points="1368,-458 1116,-458 1116,-422 1368,-422 1368,-458"/>
<text text-anchor="start" x="1124" y="-441.75" font-family="Times,serif" font-size="10.00">github.com/hasansino/goapp/internal/api/middleware</text>
<text text-anchor="start" x="1124" y="-430.5" font-family="Times,serif" font-size="10.00">68 / 1.9KB</text>
</a>
</g>
</g>
<!-- github.com/hasansino/goapp/internal/api&#45;&gt;github.com/hasansino/goapp/internal/api/middleware -->
<g id="edge18" class="edge">
<title>github.com/hasansino/goapp/internal/api:e&#45;&gt;github.com/hasansino/goapp/internal/api/middleware</title>
<path fill="none" stroke="#629107" stroke-width="2" stroke-opacity="0.698039" d="M973,-440C1015.06,-440 1060.83,-440 1102.45,-440"/>
<polygon fill="#629107" fill-opacity="0.698039" stroke="#629107" stroke-width="2" stroke-opacity="0.698039" points="1102.2,-443.5 1112.2,-440 1102.2,-436.5 1102.2,-443.5"/>
</g>
<!-- github.com/hasansino/goapp/internal/api/middleware&#45;&gt;github.com/hasansino/goapp/internal/metrics -->
<g id="edge19" class="edge">
<title>github.com/hasansino/goapp/internal/api/middleware:e&#45;&gt;github.com/hasansino/goapp/internal/metrics</title>
<path fill="none" stroke="#916207" stroke-width="2" stroke-opacity="0.698039" d="M1368,-440C1398.77,-440 1431.87,-442.36 1462.66,-445.56"/>
<polygon fill="#916207" fill-opacity="0.698039" stroke="#916207" stroke-width="2" stroke-opacity="0.698039" points="1461.91,-449 1472.23,-446.6 1462.67,-442.04 1461.91,-449"/>
</g>
<!-- github.com/hasansino/goapp/internal/api/mocks -->
<g id="node5" class="node">
<title>github.com/hasansino/goapp/internal/api/mocks</title>
<g id="a_node5"><a xlink:href="https://pkg.go.dev/github.com/hasansino/goapp/internal/api/mocks" xlink:title="github.com/hasansino/goapp/internal/api/mocks\l44 / 1.5KB\l" target="_graphviz">
<polygon fill="none" stroke="#2c0791" stroke-width="2" stroke-opacity="0.698039" points="216,-789 0,-789 0,-753 216,-753 216,-789"/>
<text text-anchor="start" x="8" y="-772.75" font-family="Times,serif" font-size="10.00">github.com/hasansino/goapp/internal/api/mocks</text>
<text text-anchor="start" x="8" y="-761.5" font-family="Times,serif" font-size="10.00">44 / 1.5KB</text>
</a>
</g>
</g>
<!-- github.com/hasansino/goapp/internal/config&#45;&gt;github.com/hasansino/goapp/internal/utils -->
<g id="edge20" class="edge">
<title>github.com/hasansino/goapp/internal/config:e&#45;&gt;github.com/hasansino/goapp/internal/utils</title>
<path fill="none" stroke="#918b07" stroke-width="2" stroke-opacity="0.698039" d="M577,-694C631.24,-694 691.27,-694 742.27,-694"/>
<polygon fill="#918b07" fill-opacity="0.698039" stroke="#918b07" stroke-width="2" stroke-opacity="0.698039" points="742,-697.5 752,-694 742,-690.5 742,-697.5"/>
</g>
<!-- github.com/hasansino/goapp/internal/database/sqlite/migrate&#45;&gt;github.com/hasansino/goapp/internal/database/sqlite -->
<g id="edge21" class="edge">
<title>github.com/hasansino/goapp/internal/database/sqlite/migrate:e&#45;&gt;github.com/hasansino/goapp/internal/database/sqlite</title>
<path fill="none" stroke="#071591" stroke-width="2" stroke-opacity="0.698039" d="M612,-272C648.49,-272 687.85,-274.34 724.33,-277.49"/>
<polygon fill="#071591" fill-opacity="0.698039" stroke="#071591" stroke-width="2" stroke-opacity="0.698039" points="723.82,-280.95 734.09,-278.36 724.45,-273.98 723.82,-280.95"/>
</g>
<!-- github.com/hasansino/goapp/internal/example/domain -->
<g id="node16" class="node">
<title>github.com/hasansino/goapp/internal/example/domain</title>
<g id="a_node16"><a xlink:href="https://pkg.go.dev/github.com/hasansino/goapp/internal/example/domain" xlink:title="github.com/hasansino/goapp/internal/example/domain\l15 / 361B\l" target="_graphviz">
<polygon fill="none" stroke="#91074b" stroke-width="2" stroke-opacity="0.698039" points="1368,-366 1116,-366 1116,-330 1368,-330 1368,-366"/>
<text text-anchor="start" x="1124" y="-349.75" font-family="Times,serif" font-size="10.00">github.com/hasansino/goapp/internal/example/domain</text>
<text text-anchor="start" x="1124" y="-338.5" font-family="Times,serif" font-size="10.00">15 / 361B</text>
</a>
</g>
</g>
<!-- github.com/hasansino/goapp/internal/example&#45;&gt;github.com/hasansino/goapp/internal/example/domain -->
<g id="edge22" class="edge">
<title>github.com/hasansino/goapp/internal/example:e&#45;&gt;github.com/hasansino/goapp/internal/example/domain</title>
<path fill="none" stroke="#91074b" stroke-width="2" stroke-opacity="0.698039" d="M973,-348C1015.06,-348 1060.83,-348 1102.45,-348"/>
<polygon fill="#91074b" fill-opacity="0.698039" stroke="#91074b" stroke-width="2" stroke-opacity="0.698039" points="1102.2,-351.5 1112.2,-348 1102.2,-344.5 1102.2,-351.5"/>
</g>
<!-- github.com/hasansino/goapp/internal/example/models -->
<g id="node18" class="node">
<title>github.com/hasansino/goapp/internal/example/models</title>
<g id="a_node18"><a xlink:href="https://pkg.go.dev/github.com/hasansino/goapp/internal/example/models" xlink:title="github.com/hasansino/goapp/internal/example/models\l15 / 365B\l" target="_graphviz">
<polygon fill="none" stroke="#072891" stroke-width="2" stroke-opacity="0.698039" points="1368,-258 1116,-258 1116,-222 1368,-222 1368,-258"/>
<text text-anchor="start" x="1124" y="-241.75" font-family="Times,serif" font-size="10.00">github.com/hasansino/goapp/internal/example/models</text>
<text text-anchor="start" x="1124" y="-230.5" font-family="Times,serif" font-size="10.00">15 / 365B</text>
</a>
</g>
</g>
<!-- github.com/hasansino/goapp/internal/example&#45;&gt;github.com/hasansino/goapp/internal/example/models -->
<g id="edge23" class="edge">
<title>github.com/hasansino/goapp/internal/example:e&#45;&gt;github.com/hasansino/goapp/internal/example/models</title>
<path fill="none" stroke="#072891" stroke-width="2" stroke-opacity="0.698039" d="M973,-348C1060.68,-348 1153.56,-297.66 1203.67,-265.71"/>
<polygon fill="#072891" fill-opacity="0.698039" stroke="#072891" stroke-width="2" stroke-opacity="0.698039" points="1205.27,-268.85 1211.74,-260.46 1201.45,-262.98 1205.27,-268.85"/>
</g>
<!-- github.com/hasansino/goapp/internal/example/mocks -->
<g id="node17" class="node">
<title>github.com/hasansino/goapp/internal/example/mocks</title>
<g id="a_node17"><a xlink:href="https://pkg.go.dev/github.com/hasansino/goapp/internal/example/mocks" xlink:title="github.com/hasansino/goapp/internal/example/mocks\l179 / 6.5KB\l" target="_graphviz">
<polygon fill="none" stroke="#072391" stroke-width="2" stroke-opacity="0.698039" points="990,-204 738,-204 738,-168 990,-168 990,-204"/>
<text text-anchor="start" x="746" y="-187.75" font-family="Times,serif" font-size="10.00">github.com/hasansino/goapp/internal/example/mocks</text>
<text text-anchor="start" x="746" y="-176.5" font-family="Times,serif" font-size="10.00">179 / 6.5KB</text>
</a>
</g>
</g>
<!-- github.com/hasansino/goapp/internal/example/mocks&#45;&gt;github.com/hasansino/goapp/internal/example/models -->
<g id="edge24" class="edge">
<title>github.com/hasansino/goapp/internal/example/mocks:e&#45;&gt;github.com/hasansino/goapp/internal/example/models</title>
<path fill="none" stroke="#072891" stroke-width="2" stroke-opacity="0.698039" d="M991,-186C1054.04,-186 1124.05,-202.61 1173.9,-217.4"/>
<polygon fill="#072891" fill-opacity="0.698039" stroke="#072891" stroke-width="2" stroke-opacity="0.698039" points="1172.65,-220.68 1183.23,-220.23 1174.68,-213.98 1172.65,-220.68"/>
</g>
<!-- github.com/hasansino/goapp/internal/example/provider/http&#45;&gt;github.com/hasansino/goapp/internal/api -->
<g id="edge25" class="edge">
<title>github.com/hasansino/goapp/internal/example/provider/http:e&#45;&gt;github.com/hasansino/goapp/internal/api</title>
<path fill="none" stroke="#917c07" stroke-width="2" stroke-opacity="0.698039" d="M612,-402C663.68,-402 720.67,-409.97 767.27,-418.61"/>
<polygon fill="#917c07" fill-opacity="0.698039" stroke="#917c07" stroke-width="2" stroke-opacity="0.698039" points="766.36,-422 776.84,-420.43 767.67,-415.13 766.36,-422"/>
</g>
<!-- github.com/hasansino/goapp/internal/example/provider/http&#45;&gt;github.com/hasansino/goapp/internal/example -->
<g id="edge26" class="edge">
<title>github.com/hasansino/goapp/internal/example/provider/http:e&#45;&gt;github.com/hasansino/goapp/internal/example</title>
<path fill="none" stroke="#91072a" stroke-width="2" stroke-opacity="0.698039" d="M612,-402C616.03,-402 695.74,-384.74 764.27,-369.73"/>
<polygon fill="#91072a" fill-opacity="0.698039" stroke="#91072a" stroke-width="2" stroke-opacity="0.698039" points="764.93,-373.17 773.95,-367.61 763.44,-366.33 764.93,-373.17"/>
</g>
<!-- github.com/hasansino/goapp/internal/example/provider/http&#45;&gt;github.com/hasansino/goapp/internal/example/domain -->
<g id="edge27" class="edge">
<title>github.com/hasansino/goapp/internal/example/provider/http:e&#45;&gt;github.com/hasansino/goapp/internal/example/domain</title>
<path fill="none" stroke="#91074b" stroke-width="2" stroke-opacity="0.698039" d="M612,-402C781.14,-402 974.94,-382.38 1102.2,-366.79"/>
<polygon fill="#91074b" fill-opacity="0.698039" stroke="#91074b" stroke-width="2" stroke-opacity="0.698039" points="1102.57,-370.27 1112.07,-365.57 1101.71,-363.32 1102.57,-370.27"/>
</g>
<!-- github.com/hasansino/goapp/internal/example/provider/http&#45;&gt;github.com/hasansino/goapp/internal/utils -->
<g id="edge28" class="edge">
<title>github.com/hasansino/goapp/internal/example/provider/http:e&#45;&gt;github.com/hasansino/goapp/internal/utils</title>
<path fill="none" stroke="#918b07" stroke-width="2" stroke-opacity="0.698039" d="M612,-402C680.69,-402 800.85,-590.17 845.57,-664.4"/>
<polygon fill="#918b07" fill-opacity="0.698039" stroke="#918b07" stroke-width="2" stroke-opacity="0.698039" points="842.4,-665.91 850.53,-672.69 848.4,-662.31 842.4,-665.91"/>
</g>
<!-- github.com/hasansino/goapp/internal/example/repository/gorm&#45;&gt;github.com/hasansino/goapp/internal/example/domain -->
<g id="edge29" class="edge">
<title>github.com/hasansino/goapp/internal/example/repository/gorm:e&#45;&gt;github.com/hasansino/goapp/internal/example/domain</title>
<path fill="none" stroke="#91074b" stroke-width="2" stroke-opacity="0.698039" d="M1008,-240C1047.21,-240 1142.52,-290.98 1198.34,-322.89"/>
<polygon fill="#91074b" fill-opacity="0.698039" stroke="#91074b" stroke-width="2" stroke-opacity="0.698039" points="1196.25,-325.72 1206.66,-327.68 1199.74,-319.65 1196.25,-325.72"/>
</g>
<!-- github.com/hasansino/goapp/internal/example/repository/gorm&#45;&gt;github.com/hasansino/goapp/internal/example/models -->
<g id="edge30" class="edge">
<title>github.com/hasansino/goapp/internal/example/repository/gorm:e&#45;&gt;github.com/hasansino/goapp/internal/example/models</title>
<path fill="none" stroke="#072891" stroke-width="2" stroke-opacity="0.698039" d="M1008,-240C1038.58,-240 1071.41,-240 1102.5,-240"/>
<polygon fill="#072891" fill-opacity="0.698039" stroke="#072891" stroke-width="2" stroke-opacity="0.698039" points="1102.21,-243.5 1112.21,-240 1102.21,-236.5 1102.21,-243.5"/>
</g>
<!-- github.com/hasansino/goapp/tests -->
<g id="node24" class="node">
<title>github.com/hasansino/goapp/tests</title>
<g id="a_node24"><a xlink:href="https://pkg.go.dev/github.com/hasansino/goapp/tests" xlink:title="github.com/hasansino/goapp/tests\l0 / 0B\l" target="_graphviz">
<polygon fill="none" stroke="#910772" stroke-width="2" stroke-opacity="0.698039" points="198,-843 18,-843 18,-807 198,-807 198,-843"/>
<text text-anchor="start" x="26" y="-826.75" font-family="Times,serif" font-size="10.00">github.com/hasansino/goapp/tests</text>
<text text-anchor="start" x="26" y="-815.5" font-family="Times,serif" font-size="10.00">0 / 0B</text>
</a>
</g>
</g>
</g>
</svg>
