<svg xmlns="http://www.w3.org/2000/svg" preserveAspectRatio="xMidYMid meet" viewBox="128.5 259.5 727 514">
  <style>
.logo-shape { fill: #12BCD6; stroke: none; fill-rule: evenodd; }
</style>
  <path d="M 816.00 700.50 L 523.50 696.00 L 535.50 636.00 L 721.50 458.00 L 752.50 416.00 L 748.50 369.00 L 713.00 350.50 L 675.50 365.00 L 654.00 417.50 L 564.50 415.00 L 570.50 365.00 L 591.50 320.00 L 656.00 269.50 L 701.00 259.50 L 772.00 267.50 L 819.00 294.50 L 849.50 341.00 L 855.50 404.00 L 834.50 461.00 L 793.00 510.50 L 681.50 612.00 L 828.00 612.50 L 834.50 624.00 L 816.00 700.50 Z M 446.00 700.50 L 368.50 697.00 L 378.00 603.50 L 199.00 603.50 L 192.50 591.00 L 207.50 530.00 L 407.50 274.00 L 418.00 263.50 L 512.00 262.50 L 520.50 268.00 L 520.50 286.00 L 481.50 515.00 L 531.00 516.50 L 536.50 527.00 L 522.50 599.00 L 466.50 607.00 L 446.00 700.50 Z M 384.50 517.00 L 399.50 514.00 L 420.00 387.50 L 317.50 516.00 L 384.50 517.00 Z M 150.00 680.50 L 128.50 670.00 L 139.00 643.50 L 333.00 643.50 L 342.50 654.00 L 335.00 678.50 L 150.00 680.50 Z M 255.00 773.50 L 223.50 764.00 L 226.00 738.50 L 254.00 732.50 L 268.50 739.00 L 272.50 762.00 L 255.00 773.50 Z M 702.00 771.50 L 306.00 771.50 L 297.50 752.00 L 311.00 734.50 L 700.00 734.50 L 710.50 745.00 L 702.00 771.50 Z" class="logo-shape"/>
</svg>